SplineFontDB: 3.2
FontName: TemporaSerif-BoldItalic
FullName: Tempora Serif Bold Italic
FamilyName: Tempora Serif
Weight: Bold
Copyright: Copyright Copyright 2012-2024 The Libertinus Project Authors.
Version: 5.0
ItalicAngle: -12
UnderlinePosition: -95
UnderlineWidth: 40
Ascent: 800
Descent: 200
InvalidEm: 0
sfntRevision: 0x00070d0e
LayerCount: 2
Layer: 0 0 "Atr+AOEA-s" 1
Layer: 1 0 "Fore" 0
XUID: [1021 149 -1843968052 7077997]
StyleMap: 0x0021
FSType: 0
OS2Version: 4
OS2_WeightWidthSlopeOnly: 0
OS2_UseTypoMetrics: 1
CreationTime: 1155510122
ModificationTime: 1759735922
PfmFamily: 81
TTFWeight: 700
TTFWidth: 5
LineGap: 0
VLineGap: 0
Panose: 0 0 0 0 0 0 0 0 0 0
OS2TypoAscent: 894
OS2TypoAOffset: 0
OS2TypoDescent: -246
OS2TypoDOffset: 0
OS2TypoLinegap: 0
OS2WinAscent: 894
OS2WinAOffset: 0
OS2WinDescent: 246
OS2WinDOffset: 0
HheadAscent: 894
HheadAOffset: 0
HheadDescent: -246
HheadDOffset: 0
OS2SubXSize: 650
OS2SubYSize: 600
OS2SubXOff: -16
OS2SubYOff: 75
OS2SupXSize: 650
OS2SupYSize: 600
OS2SupXOff: 74
OS2SupYOff: 350
OS2StrikeYSize: 40
OS2StrikeYPos: 257
OS2CapHeight: 645
OS2XHeight: 429
OS2FamilyClass: 261
OS2Vendor: 'QUE '
OS2CodePages: 600001bf.00000000
OS2UnicodeRanges: e0000aff.5200e0fb.01000020.00000000
Lookup: 1 0 0 "'locl' Localized Forms in Cyrillic lookup 0" { "'locl' Localized Forms in Cyrillic lookup 0 subtable"  } ['locl' ('cyrl' <'MKD ' 'SRB ' > ) ]
Lookup: 1 0 0 "'locl' Localized Forms in Latin lookup 1" { "'locl' Localized Forms in Latin lookup 1 subtable"  } ['locl' ('latn' <'FIN ' 'ISM ' 'LSM ' 'NOR ' 'NSM ' 'SKS ' 'SSM ' 'SVE ' 'TRK ' > ) ]
Lookup: 4 0 0 "'locl' Localized Forms in Latin lookup 2" { "'locl' Localized Forms in Latin lookup 2 subtable"  } ['locl' ('latn' <'NLD ' > ) ]
Lookup: 1 0 0 "Single Substitution lookup 3" { "Single Substitution lookup 3 subtable"  } []
Lookup: 1 0 0 "Single Substitution lookup 4" { "Single Substitution lookup 4 subtable"  } []

StartChar: .notdef
Encoding: 1114112 -1 0
Width: 500
GlyphClass: 1
Flags: MW
HStem: 0 50<48 388 48 463> 650 50<112 452 112 112>
VStem: 0 50 450 50
LayerCount: 2
Fore
SplineSet
-37 0 m 1
 37 700 l 1
 537 700 l 1
 463 0 l 1
 -37 0 l 1
48 50 m 1
 388 50 l 1
 245 305 l 1
 48 50 l 1
77 605 m 1
 23 95 l 1
 220 350 l 1
 77 605 l 1
280 350 m 1
 423 95 l 1
 477 605 l 1
 280 350 l 1
255 395 m 1
 452 650 l 1
 112 650 l 1
 255 395 l 1
EndSplineSet
EndChar

StartChar: exclam
Encoding: 33 33 2
Width: 266
GlyphClass: 2
Flags: MW
HStem: -10 139<96 119> 638 20G<277.5 309.5>
VStem: 62 146
LayerCount: 2
Fore
SplineSet
292 658 m 0
 327 658 351 634 336 583 c 0
 324 548 304 510 289 477 c 0
 243 379 198 279 182 230 c 0
 176 211 165 188 143 188 c 0
 118 188 121 208 131 242 c 0
 145 290 170 410 180 480 c 0
 185 515 188 544 200 583 c 0
 218 639 263 658 292 658 c 0
34 58 m 0
 38 97 76 129 116 129 c 0
 156 129 184 99 180 60 c 0
 176 22 139 -10 99 -10 c 0
 59 -10 30 20 34 58 c 0
EndSplineSet
EndChar

StartChar: quotedbl
Encoding: 34 34 3
Width: 376
GlyphClass: 2
Flags: MW
HStem: 625 20G<196.5 236.5 329 369>
VStem: 125 39 257 115
LayerCount: 2
Fore
SplineSet
126 411 m 1
 113 415 l 1
 113 415 137 585 139 591 c 0
 146 614 176 645 217 645 c 0
 256 645 253 626 247 608 c 0
 242 593 152 417 152 417 c 1
 126 411 l 1
258 411 m 1
 245 415 l 1
 245 415 269 585 272 591 c 0
 278 614 309 645 349 645 c 0
 389 645 385 626 380 608 c 0
 374 593 284 417 284 417 c 1
 258 411 l 1
EndSplineSet
EndChar

StartChar: numbersign
Encoding: 35 35 4
Width: 514
GlyphClass: 2
Flags: MW
HStem: 187 66<86 150 57 180 232 294 86 203 372 454> 360 66<167 231 137 261 167 285 312 373 453 534>
VStem: 70 480
LayerCount: 2
Fore
SplineSet
423 360 m 1
 372 253 l 1
 483 253 l 1
 454 187 l 1
 343 187 l 1
 314 127 289 72 262 14 c 1
 212 14 l 1
 294 187 l 1
 203 187 l 1
 174 127 149 72 121 14 c 1
 69 14 l 1
 150 187 l 1
 57 187 l 1
 86 253 l 1
 180 253 l 1
 198 290 214 323 231 360 c 1
 137 360 l 1
 167 426 l 1
 261 426 l 1
 288 484 315 541 343 599 c 1
 395 599 l 1
 312 426 l 1
 403 426 l 1
 431 484 457 541 485 599 c 1
 533 599 l 1
 453 426 l 1
 563 426 l 1
 534 360 l 1
 423 360 l 1
322 253 m 1
 373 360 l 1
 285 360 l 1
 267 323 250 290 232 253 c 1
 322 253 l 1
EndSplineSet
EndChar

StartChar: dollar
Encoding: 36 36 5
Width: 514
GlyphClass: 2
Flags: MW
HStem: -9 40<221 235> 572 38<397 411> 675 20G<475 481>
VStem: 79 59
LayerCount: 2
Fore
SplineSet
557 585 m 1
 546 531 537 493 522 444 c 1
 510 436 489 435 478 439 c 1
 480 491 480 552 433 568 c 1
 359 366 l 1
 362 364 l 2
 390 345 435 317 456 277 c 0
 472 247 483 219 468 171 c 0
 450 114 407 70 367 41 c 0
 322 8 272 -8 221 -9 c 1
 189 -93 l 1
 182 -97 158 -98 149 -98 c 1
 183 -8 l 1
 95 -6 94 9 49 9 c 1
 51 43 58 92 80 162 c 0
 82 162 83 163 84 163 c 0
 98 167 113 170 124 165 c 1
 116 91 149 43 197 32 c 1
 275 242 l 1
 243 267 194 297 175 345 c 0
 164 373 167 414 179 450 c 0
 194 495 230 538 272 566 c 0
 316 595 372 608 411 610 c 1
 440 690 l 1
 449 693 469 695 481 695 c 1
 449 609 l 1
 504 605 518 591 557 585 c 1
303 216 m 1
 235 31 l 1
 283 37 324 66 337 107 c 0
 352 152 329 188 303 216 c 1
331 392 m 1
 397 572 l 1
 356 568 316 537 300 489 c 0
 289 453 309 418 331 392 c 1
EndSplineSet
EndChar

StartChar: percent
Encoding: 37 37 6
Width: 637
GlyphClass: 2
Flags: MW
HStem: -19 39<399.5 461.5> -4 21G<75 75> 214 36<538 552.5> 297 39<197.5 259.5> 474 45<478.5 483> 530 36<336 350.5>
VStem: 144 83 346 40 379 83 581 40
LayerCount: 2
Fore
SplineSet
229 517 m 0x7740
 261 546 305 566 347 566 c 0x7740
 368 566 389 561 400 546 c 1
 420 531 464 519 493 519 c 0
 532 519 596 525 649 569 c 1
 687 548 l 1
 121 -16 l 1
 75 -4 l 1
 577 497 l 1
 535 481 497 474 469 474 c 0
 449 474 424 483 409 493 c 1x7f40
 399 438 366 388 336 356 c 0
 302 320 262 297 222 297 c 0
 173 297 149 323 154 373 c 0
 160 434 188 480 229 517 c 0x7740
431 201 m 0xb6c0
 463 230 506 250 548 250 c 0
 583 250 617 236 612 189 c 0
 606 129 570 75 537 40 c 0
 503 4 464 -19 424 -19 c 0
 375 -19 351 7 356 57 c 0
 362 118 390 164 431 201 c 0xb6c0
438 48 m 0
 437 34 443 20 452 20 c 0
 471 20 491 37 511 60 c 0
 540 94 566 137 571 182 c 0
 574 211 558 214 547 214 c 0
 529 214 505 191 485 162 c 0
 461 128 443 98 438 48 c 0
236 364 m 0x7740
 235 350 241 336 250 336 c 0
 269 336 290 353 310 376 c 0
 339 410 364 453 369 498 c 0
 372 527 356 530 345 530 c 0
 327 530 303 507 283 478 c 0
 259 444 241 414 236 364 c 0x7740
EndSplineSet
EndChar

StartChar: ampersand
Encoding: 38 38 7
Width: 729
GlyphClass: 2
Flags: MW
HStem: -10 41<203.5 230> -10 61<471.5 545> 402 34<581 591> 613 41<479.5 494.5>
VStem: 70 126 248 125
LayerCount: 2
Fore
SplineSet
606 355 m 0xbc
 631 390 611 400 583 402 c 0
 579 402 578 406 578 409 c 2
 586 433 l 1
 591 436 l 1
 591 436 650 434 687 434 c 0
 717 434 766 436 766 436 c 1
 767 434 l 1
 759 411 l 2
 757 406 752 402 746 402 c 0
 717 400 694 382 656 341 c 2
 656 341 539 217 484 156 c 1
 496 111 506 51 536 51 c 0
 554 51 575 52 610 90 c 1x7c
 619 90 628 75 631 61 c 1
 579 10 535 -10 492 -10 c 0
 451 -10 407 -2 386 64 c 1
 332 21 268 -10 192 -10 c 0
 142 -10 95 -1 69 26 c 0
 44 52 40 96 57 150 c 0
 80 222 139 284 285 349 c 1
 260 409 255 445 270 491 c 0
 279 521 308 565 349 600 c 0
 389 634 452 654 507 654 c 0
 593 654 620 587 604 537 c 0
 581 464 502 418 411 377 c 1
 412 372 l 2
 418 344 431 299 461 214 c 0
 463 207 469 205 475 210 c 0
 529 263 586 326 606 355 c 0xbc
295 317 m 1
 221 265 198 214 184 170 c 0
 162 101 184 31 223 31 c 0
 269 31 310 52 366 105 c 1
 342 167 307 276 295 317 c 1
395 536 m 0
 388 515 386 458 398 420 c 1
 402 414 l 1
 451 447 502 489 514 527 c 0
 529 573 513 613 476 613 c 0
 458 613 432 604 416 581 c 0
 404 565 400 554 395 536 c 0
EndSplineSet
Substitution2: "'ss06' Style Set 6 lookup 45 subtable" ampersand.alt
Substitution2: "'salt' Stylistic Alternatives lookup 22 subtable" ampersand.alt
EndChar

StartChar: quotesingle
Encoding: 39 39 8
Width: 215
GlyphClass: 2
Flags: MW
HStem: 625 20G<185 225>
VStem: 113 115 113 117
LayerCount: 2
Fore
SplineSet
115 411 m 1xa0
 101 415 l 1
 101 415 125 585 128 591 c 0
 135 614 165 645 205 645 c 0
 245 645 242 626 236 608 c 0
 231 593 140 417 140 417 c 1xc0
 115 411 l 1xa0
EndSplineSet
EndChar

StartChar: parenleft
Encoding: 40 40 9
Width: 315
GlyphClass: 2
Flags: MW
HStem: -213 933<167 465>
VStem: 85 100
LayerCount: 2
Fore
SplineSet
97 253 m 0
 155 435 306 607 465 720 c 1
 480 686 l 1
 441 651 289 517 205 253 c 0
 121 -11 186 -145 205 -181 c 1
 167 -213 l 1
 16 -17 82 208 97 253 c 0
EndSplineSet
MultipleSubs2: "'c2sc' Capitals to Small Capitals lookup 12 subtable" parenleft.sc
Substitution2: "'case' Case-Sensitive Forms lookup 8 subtable" parenleft.sc
Substitution2: "'subs' Subscript lookup 7 subtable" uni208D
Substitution2: "'sups' Superscript lookup 6 subtable" uni207D
Substitution2: "Single Substitution lookup 4 subtable" uni207D
Substitution2: "Single Substitution lookup 3 subtable" uni208D
EndChar

StartChar: parenright
Encoding: 41 41 10
Width: 315
GlyphClass: 2
Flags: MW
HStem: -216 933<-43 255>
VStem: 237 100
LayerCount: 2
Fore
SplineSet
325 251 m 0
 268 69 116 -103 -43 -216 c 1
 -58 -182 l 1
 -18 -147 133 -13 217 251 c 0
 301 515 236 649 217 685 c 1
 255 717 l 1
 406 521 340 296 325 251 c 0
EndSplineSet
MultipleSubs2: "'c2sc' Capitals to Small Capitals lookup 12 subtable" parenright.sc
Substitution2: "'case' Case-Sensitive Forms lookup 8 subtable" parenright.sc
Substitution2: "'subs' Subscript lookup 7 subtable" uni208E
Substitution2: "'sups' Superscript lookup 6 subtable" uni207E
Substitution2: "Single Substitution lookup 4 subtable" uni207E
Substitution2: "Single Substitution lookup 3 subtable" uni208E
EndChar

StartChar: asterisk
Encoding: 42 42 11
Width: 433
GlyphClass: 2
Flags: MW
HStem: 567 73 568 20 568 74<319 394.5> 568 150<298.5 344.5>
VStem: 257 22<588 588> 257 147
LayerCount: 2
Fore
SplineSet
245 566 m 1x88
 242 567 238 567 235 568 c 0
 227 570 219 572 209 571 c 0
 164 563 129 563 143 608 c 0
 147 622 163 640 185 640 c 0x88
 217 640 222 607 257 588 c 1
 262 609 260 626 258 641 c 0x48
 256 655 255 667 259 679 c 0
 265 700 290 718 307 718 c 0
 324 718 341 707 333 683 c 0x18
 324 656 290 618 279 588 c 1x48
 327 607 349 642 380 642 c 0x24
 409 642 409 618 406 608 c 0
 396 578 361 568 328 568 c 0
 310 568 295 568 277 565 c 1
 285 552 296 544 306 536 c 0
 325 523 340 512 330 480 c 0x44
 324 462 304 451 291 451 c 0
 260 451 260 479 259 509 c 0
 260 524 260 539 256 552 c 1
 218 507 213 451 158 451 c 0
 142 451 134 464 140 479 c 0
 157 533 202 528 245 566 c 1x88
EndSplineSet
EndChar

StartChar: plus
Encoding: 43 43 12
Width: 537
GlyphClass: 2
Flags: MW
HStem: 195 74<138 271 115 295 373 506 138 349> 413 20G<347 424 424 424>
VStem: 119 406
LayerCount: 2
Fore
SplineSet
373 269 m 1
 529 269 l 1
 506 195 l 1
 349 195 l 1
 297 32 l 1
 220 32 l 1
 271 195 l 1
 115 195 l 1
 138 269 l 1
 295 269 l 1
 347 433 l 1
 424 433 l 1
 373 269 l 1
EndSplineSet
Substitution2: "'subs' Subscript lookup 7 subtable" uni208A
Substitution2: "'sups' Superscript lookup 6 subtable" uni207A
Substitution2: "Single Substitution lookup 4 subtable" uni207A
Substitution2: "Single Substitution lookup 3 subtable" uni208A
EndChar

StartChar: comma
Encoding: 44 44 13
Width: 244
GlyphClass: 2
Flags: MW
HStem: -167 294
VStem: 71 136 122 85
LayerCount: 2
Fore
SplineSet
158 127 m 0xc0
 210 127 231 86 204 4 c 0
 192 -31 152 -80 115 -108 c 0xc0
 78 -136 29 -161 -9 -167 c 1
 -18 -159 -15 -149 -6 -136 c 1
 41 -124 113 -53 121 -27 c 0xa0
 127 -8 111 0 102 4 c 0
 100 5 99 5 98 6 c 0
 77 18 72 48 81 73 c 0
 88 96 133 127 158 127 c 0xc0
EndSplineSet
EndChar

StartChar: hyphen
Encoding: 45 45 14
Width: 358
GlyphClass: 2
Flags: MW
HStem: 215 79<113 342 142 323>
VStem: 92 282
LayerCount: 2
Fore
SplineSet
323 215 m 2
 125 215 l 2
 101 215 89 225 90 236 c 0
 92 253 121 294 142 294 c 2
 342 294 l 2
 370 294 377 284 376 273 c 0
 375 260 346 215 323 215 c 2
EndSplineSet
MultipleSubs2: "'c2sc' Capitals to Small Capitals lookup 12 subtable" hyphen.sc
MultipleSubs2: "'smcp' Lowercase to Small Capitals lookup 10 subtable" hyphen.sc
Substitution2: "'case' Case-Sensitive Forms lookup 8 subtable" hyphen.cap
Substitution2: "'subs' Subscript lookup 7 subtable" uni208B
Substitution2: "'sups' Superscript lookup 6 subtable" uni207B
Substitution2: "Single Substitution lookup 4 subtable" uni207B
Substitution2: "Single Substitution lookup 3 subtable" uni208B
EndChar

StartChar: period
Encoding: 46 46 15
Width: 226
GlyphClass: 2
Flags: MW
HStem: -10 139<101 125>
VStem: 40 146
LayerCount: 2
Fore
SplineSet
40 58 m 0
 44 97 81 129 121 129 c 0
 161 129 190 99 186 60 c 0
 182 22 145 -10 105 -10 c 0
 65 -10 36 20 40 58 c 0
EndSplineSet
EndChar

StartChar: slash
Encoding: 47 47 16
Width: 296
GlyphClass: 2
Flags: MW
HStem: -21 703<-12 442 -12 442>
VStem: 25 380
LayerCount: 2
Fore
SplineSet
442 682 m 1
 47 -21 l 1
 -12 -21 l 1
 383 682 l 1
 442 682 l 1
EndSplineSet
Substitution2: "'sups' Superscript lookup 6 subtable" fraction
Substitution2: "Single Substitution lookup 4 subtable" fraction
EndChar

StartChar: zero
Encoding: 48 48 17
Width: 514
GlyphClass: 2
Flags: MW
HStem: -10 43<216.5 246.5> 565 45<397 420>
VStem: 96 119 425 124
LayerCount: 2
Fore
SplineSet
220 -10 m 0
 113 -10 73 78 85 195 c 0
 100 341 178 470 251 536 c 0
 305 584 365 610 423 610 c 0
 500 610 577 565 562 420 c 0
 548 284 471 146 410 83 c 0
 345 16 273 -10 220 -10 c 0
408 565 m 0
 386 565 357 553 321 491 c 0
 283 427 209 242 196 118 c 0
 191 70 198 33 235 33 c 0
 260 33 294 56 337 140 c 0
 366 198 433 375 443 469 c 0
 450 539 432 565 408 565 c 0
EndSplineSet
Substitution2: "'zero' Slashed Zero lookup 19 subtable" zero.slash
Substitution2: "'pnum' Proportional Numbers lookup 17 subtable" zero.fitted
Substitution2: "'onum' Oldstyle Figures lookup 15 subtable" zero.oldstyle
Substitution2: "'case' Case-Sensitive Forms lookup 8 subtable" zero.cap
Substitution2: "'subs' Subscript lookup 7 subtable" uni2080
Substitution2: "'sups' Superscript lookup 6 subtable" uni2070
Substitution2: "Single Substitution lookup 4 subtable" uni2070
Substitution2: "Single Substitution lookup 3 subtable" uni2080
EndChar

StartChar: one
Encoding: 49 49 18
Width: 514
GlyphClass: 2
Flags: MW
HStem: -2 34 590 20G<499.5 508> 593 17<499.5 514>
VStem: 127 358
LayerCount: 2
Fore
SplineSet
357 122 m 2xd0
 330 39 374 35 425 32 c 1
 432 26 427 4 415 -2 c 1
 356 -1 296 0 258 0 c 0
 220 0 158 -1 99 -2 c 1
 92 4 97 26 109 32 c 1
 161 35 208 39 235 122 c 2
 335 435 l 2
 351 485 345 489 333 489 c 0
 320 489 286 487 228 464 c 1
 218 474 216 490 221 507 c 1
 314 543 387 567 453 595 c 0
 478 606 495 610 504 610 c 0
 512 610 518 606 514 593 c 2xb0
 514 593 489 536 472 483 c 2
 357 122 l 2xd0
EndSplineSet
Substitution2: "'pnum' Proportional Numbers lookup 17 subtable" one.fitted
Substitution2: "'onum' Oldstyle Figures lookup 15 subtable" one.oldstyle
Substitution2: "'case' Case-Sensitive Forms lookup 8 subtable" one.cap
Substitution2: "'subs' Subscript lookup 7 subtable" uni2081
Substitution2: "'sups' Superscript lookup 6 subtable" uni00B9
Substitution2: "Single Substitution lookup 4 subtable" uni00B9
Substitution2: "Single Substitution lookup 3 subtable" uni2081
EndChar

StartChar: two
Encoding: 50 50 19
Width: 514
GlyphClass: 2
Flags: MW
HStem: 0 99<190 331 331 352 190 384> 550 60<327 442.5>
VStem: 140 109 400 131
LayerCount: 2
Fore
SplineSet
286 583 m 0
 322 599 354 610 402 610 c 0
 483 610 558 560 550 482 c 0
 540 387 478 346 330 223 c 2
 271 174 l 2
 232 141 212 122 190 99 c 1
 331 99 l 2
 373 99 384 106 426 174 c 1
 448 174 455 170 465 164 c 1
 440 107 407 38 384 0 c 1
 32 0 l 1
 29 8 33 26 40 36 c 0
 73 63 125 109 227 204 c 2
 318 289 l 2
 381 348 410 396 417 466 c 0
 422 518 389 550 346 550 c 0
 308 550 284 539 271 518 c 0
 264 506 265 496 266 485 c 0
 267 476 268 466 265 454 c 0
 256 423 223 410 196 410 c 0
 166 410 154 433 156 455 c 0
 162 512 221 553 286 583 c 0
EndSplineSet
Substitution2: "'pnum' Proportional Numbers lookup 17 subtable" two.fitted
Substitution2: "'onum' Oldstyle Figures lookup 15 subtable" two.oldstyle
Substitution2: "'case' Case-Sensitive Forms lookup 8 subtable" two.cap
Substitution2: "'subs' Subscript lookup 7 subtable" uni2082
Substitution2: "'sups' Superscript lookup 6 subtable" uni00B2
Substitution2: "Single Substitution lookup 4 subtable" uni00B2
Substitution2: "Single Substitution lookup 3 subtable" uni2082
EndChar

StartChar: three
Encoding: 51 51 20
Width: 514
GlyphClass: 2
Flags: MW
HStem: -10 42<196.5 219.5> 291 38<228 289.5> 550 60<361.5 370.5>
VStem: 371 128 397 114
LayerCount: 2
Fore
SplineSet
351 550 m 0xe8
 319 550 287 545 274 505 c 0
 263 472 243 434 206 434 c 0
 183 434 163 448 166 474 c 0
 169 500 194 521 226 544 c 0
 266 572 325 610 398 610 c 0
 505 610 536 535 531 492 c 0xe8
 524 422 481 386 404 347 c 1
 404 344 l 1
 467 321 496 273 490 217 c 0
 482 141 445 100 401 60 c 0
 335 0 252 -10 187 -10 c 0
 141 -10 82 5 54 23 c 0
 40 32 34 43 36 58 c 0
 39 83 59 111 92 111 c 0
 127 111 140 89 145 74 c 0
 152 57 178 32 215 32 c 0
 280 32 350 94 359 182 c 0xf0
 367 258 310 291 269 291 c 0
 255 291 238 291 219 289 c 1
 228 329 l 1
 260 333 294 340 324 354 c 0
 389 384 409 419 416 482 c 0
 420 520 390 550 351 550 c 0xe8
EndSplineSet
Substitution2: "'pnum' Proportional Numbers lookup 17 subtable" three.fitted
Substitution2: "'onum' Oldstyle Figures lookup 15 subtable" three.oldstyle
Substitution2: "'case' Case-Sensitive Forms lookup 8 subtable" three.cap
Substitution2: "'subs' Subscript lookup 7 subtable" uni2083
Substitution2: "'sups' Superscript lookup 6 subtable" uni00B3
Substitution2: "Single Substitution lookup 4 subtable" uni00B3
Substitution2: "Single Substitution lookup 3 subtable" uni2083
EndChar

StartChar: four
Encoding: 52 52 21
Width: 514
GlyphClass: 2
Flags: MW
HStem: -2 34 162 47<90.5 284 111 269 400 464> 590 20G<443 528 528 528>
VStem: 69 445
LayerCount: 2
Fore
SplineSet
492 209 m 2
 500 209 504 205 503 199 c 0
 501 183 479 162 464 162 c 2
 385 162 l 1
 373 122 l 2
 346 39 380 35 431 32 c 1
 438 26 433 4 421 -2 c 1
 344 -1 314 0 276 0 c 0
 238 0 207 -1 130 -2 c 1
 123 4 128 26 140 32 c 1
 192 35 229 39 256 122 c 2
 269 162 l 1
 102 162 l 2
 79 162 76 164 74 169 c 0
 70 177 58 201 59 209 c 0
 59 213 67 219 70 223 c 0
 187 347 342 519 443 610 c 1
 528 610 l 1
 400 209 l 1
 492 209 l 2
377 501 m 1
 304 429 185 293 111 209 c 1
 284 209 l 1
 377 501 l 1
EndSplineSet
Substitution2: "'pnum' Proportional Numbers lookup 17 subtable" four.fitted
Substitution2: "'onum' Oldstyle Figures lookup 15 subtable" four.oldstyle
Substitution2: "'case' Case-Sensitive Forms lookup 8 subtable" four.cap
Substitution2: "'subs' Subscript lookup 7 subtable" uni2084
Substitution2: "'sups' Superscript lookup 6 subtable" uni2074
Substitution2: "Single Substitution lookup 4 subtable" uni2074
Substitution2: "Single Substitution lookup 3 subtable" uni2084
EndChar

StartChar: five
Encoding: 53 53 22
Width: 514
GlyphClass: 2
Flags: MW
HStem: -10 44<202.5 249 202.5 259.5> 508 92<410 431 384 447>
VStem: 358 129
LayerCount: 2
Fore
SplineSet
347 193 m 0
 353 248 336 280 295 293 c 0
 266 302 199 312 163 313 c 1
 154 321 l 1
 284 610 l 1
 337 606 365 600 403 600 c 0
 459 600 497 606 568 613 c 1
 585 600 l 1
 540 514 l 1
 482 510 464 508 430 508 c 0
 390 508 324 510 295 513 c 1
 245 408 l 1
 271 404 323 391 350 384 c 0
 454 358 485 281 478 218 c 0
 463 77 329 -10 190 -10 c 0
 145 -10 96 -2 66 18 c 0
 49 29 40 47 42 63 c 0
 45 91 68 118 103 118 c 0
 138 118 158 99 165 79 c 0
 173 55 193 34 212 34 c 0
 286 34 338 109 347 193 c 0
EndSplineSet
Substitution2: "'pnum' Proportional Numbers lookup 17 subtable" five.fitted
Substitution2: "'onum' Oldstyle Figures lookup 15 subtable" five.oldstyle
Substitution2: "'case' Case-Sensitive Forms lookup 8 subtable" five.cap
Substitution2: "'subs' Subscript lookup 7 subtable" uni2085
Substitution2: "'sups' Superscript lookup 6 subtable" uni2075
Substitution2: "Single Substitution lookup 4 subtable" uni2075
Substitution2: "Single Substitution lookup 3 subtable" uni2085
EndChar

StartChar: six
Encoding: 54 54 23
Width: 514
GlyphClass: 2
Flags: MW
HStem: -10 42<236.5 283 236.5 298.5> 321 50<305.5 425>
VStem: 90 121 381 130
LayerCount: 2
Fore
SplineSet
572 602 m 1
 508 579 463 557 392 509 c 0
 336 471 284 408 254 336 c 1
 294 358 334 371 362 371 c 0
 488 371 509 294 503 240 c 0
 489 106 372 -10 225 -10 c 0
 146 -10 62 52 76 184 c 0
 90 314 180 439 287 513 c 0
 373 573 453 610 566 636 c 1
 572 628 573 616 572 602 c 1
235 295 m 1
 215 254 199 193 193 137 c 0
 185 60 225 32 248 32 c 0
 318 32 363 136 372 225 c 0
 377 275 359 321 314 321 c 0
 297 321 279 319 235 295 c 1
EndSplineSet
Substitution2: "'pnum' Proportional Numbers lookup 17 subtable" six.fitted
Substitution2: "'onum' Oldstyle Figures lookup 15 subtable" six.oldstyle
Substitution2: "'case' Case-Sensitive Forms lookup 8 subtable" six.cap
Substitution2: "'subs' Subscript lookup 7 subtable" uni2086
Substitution2: "'sups' Superscript lookup 6 subtable" uni2076
Substitution2: "Single Substitution lookup 4 subtable" uni2076
Substitution2: "Single Substitution lookup 3 subtable" uni2086
EndChar

StartChar: seven
Encoding: 55 55 24
Width: 514
GlyphClass: 2
Flags: MW
HStem: -12 21G<89 89> 0 21G<88 88> 498 102<274.5 290 290 488> 590 20G<223.5 225> 591 9<271 612>
VStem: 119 462
LayerCount: 2
Fore
SplineSet
290 498 m 2x64
 259 498 241 482 202 410 c 1
 191 408 174 409 162 414 c 1x64
 178 472 203 559 219 607 c 0
 220 610 222 610 225 610 c 0x54
 241 606 239 600 271 600 c 2x64
 609 600 l 1
 612 591 l 1
 404 319 304 169 192 -2 c 1
 89 -12 l 1x8c
 88 0 l 1
 207 144 383 362 488 498 c 1
 290 498 l 2x64
EndSplineSet
Substitution2: "'pnum' Proportional Numbers lookup 17 subtable" seven.fitted
Substitution2: "'onum' Oldstyle Figures lookup 15 subtable" seven.oldstyle
Substitution2: "'case' Case-Sensitive Forms lookup 8 subtable" seven.cap
Substitution2: "'subs' Subscript lookup 7 subtable" uni2087
Substitution2: "'sups' Superscript lookup 6 subtable" uni2077
Substitution2: "Single Substitution lookup 4 subtable" uni2077
Substitution2: "Single Substitution lookup 3 subtable" uni2087
EndChar

StartChar: eight
Encoding: 56 56 25
Width: 514
GlyphClass: 2
Flags: MW
HStem: -10 42<214 247 214 249> 567 43<390 423.5>
VStem: 73 115 168 124 385 120 434 106
LayerCount: 2
Fore
SplineSet
502 395 m 0xe4
 476 372 443 356 412 347 c 1
 454 314 l 2
 487 288 500 248 495 204 c 0
 487 132 451 83 387 41 c 0
 342 11 283 -10 215 -10 c 0
 121 -10 45 34 54 115 c 0
 59 165 94 208 134 242 c 0xe8
 166 269 201 290 255 313 c 1
 239 326 l 2
 198 360 178 392 182 430 c 0
 188 485 217 523 257 555 c 0xd4
 297 588 351 610 425 610 c 0
 524 610 567 550 561 496 c 0
 556 447 534 423 502 395 c 0xe4
234 32 m 0
 260 32 292 37 322 68 c 0
 343 90 367 133 372 180 c 0
 375 210 365 231 328 259 c 2
 286 290 l 1
 192 234 175 175 168 110 c 0
 163 65 194 32 234 32 c 0
406 567 m 0
 374 567 354 561 340 547 c 0
 322 529 312 498 309 466 c 0
 307 443 312 416 340 397 c 2xd4
 379 371 l 1
 417 392 449 442 455 496 c 0
 459 537 441 567 406 567 c 0
EndSplineSet
Substitution2: "'pnum' Proportional Numbers lookup 17 subtable" eight.fitted
Substitution2: "'onum' Oldstyle Figures lookup 15 subtable" eight.oldstyle
Substitution2: "'case' Case-Sensitive Forms lookup 8 subtable" eight.cap
Substitution2: "'subs' Subscript lookup 7 subtable" uni2088
Substitution2: "'sups' Superscript lookup 6 subtable" uni2078
Substitution2: "Single Substitution lookup 4 subtable" uni2078
Substitution2: "Single Substitution lookup 3 subtable" uni2088
EndChar

StartChar: nine
Encoding: 57 57 26
Width: 514
GlyphClass: 2
Flags: MW
HStem: 229 50<194 313.5> 568 42<335 381.5>
VStem: 108 130 408 122
LayerCount: 2
Fore
SplineSet
48 -2 m 1
 112 21 156 43 227 91 c 0
 283 129 335 192 365 264 c 1
 325 242 285 229 257 229 c 0
 131 229 110 306 116 360 c 0
 130 494 247 610 394 610 c 0
 473 610 558 548 544 416 c 0
 530 286 439 161 332 87 c 0
 246 27 167 -10 54 -36 c 1
 48 -28 47 -16 48 -2 c 1
384 305 m 1
 404 346 420 407 426 463 c 0
 434 540 393 568 370 568 c 0
 300 568 256 464 247 375 c 0
 242 325 260 279 305 279 c 0
 322 279 340 281 384 305 c 1
EndSplineSet
Substitution2: "'pnum' Proportional Numbers lookup 17 subtable" nine.fitted
Substitution2: "'onum' Oldstyle Figures lookup 15 subtable" nine.oldstyle
Substitution2: "'case' Case-Sensitive Forms lookup 8 subtable" nine.cap
Substitution2: "'subs' Subscript lookup 7 subtable" uni2089
Substitution2: "'sups' Superscript lookup 6 subtable" uni2079
Substitution2: "Single Substitution lookup 4 subtable" uni2079
Substitution2: "Single Substitution lookup 3 subtable" uni2089
EndChar

StartChar: colon
Encoding: 58 58 27
Width: 256
GlyphClass: 2
Flags: MW
HStem: -9 139<114 137> 291 139<205 228>
VStem: 68 146 128 146
LayerCount: 2
Fore
SplineSet
52 59 m 0xe0
 56 98 94 130 134 130 c 0
 174 130 202 100 198 61 c 0
 194 23 157 -9 117 -9 c 0
 77 -9 48 21 52 59 c 0xe0
144 359 m 0xd0
 148 398 185 430 225 430 c 0
 265 430 294 400 290 361 c 0
 286 323 248 291 208 291 c 0
 168 291 140 321 144 359 c 0xd0
EndSplineSet
EndChar

StartChar: semicolon
Encoding: 59 59 28
Width: 256
GlyphClass: 2
Flags: MW
HStem: 294 139<213 236>
VStem: 81 136 127 146 132 85
LayerCount: 2
Fore
SplineSet
153 127 m 0xc0
 204 127 224 86 197 4 c 0
 185 -31 146 -80 109 -108 c 0xc0
 72 -136 22 -161 -16 -167 c 1
 -25 -159 -21 -149 -12 -136 c 1
 35 -124 107 -53 115 -27 c 0x90
 121 -8 104 0 95 4 c 0
 93 5 93 5 92 6 c 0
 71 18 66 48 75 73 c 0
 82 96 127 127 153 127 c 0xc0
151 362 m 0xa0
 155 401 193 433 233 433 c 0
 273 433 301 403 297 364 c 0
 293 326 256 294 216 294 c 0
 176 294 147 324 151 362 c 0xa0
EndSplineSet
EndChar

StartChar: less
Encoding: 60 60 29
Width: 512
GlyphClass: 2
Flags: MW
HStem: 62 356<454 568>
VStem: 103 446
LayerCount: 2
Fore
SplineSet
212 240 m 1
 475 124 l 1
 454 62 l 1
 101 218 l 1
 115 262 l 1
 568 418 l 1
 548 356 l 1
 212 240 l 1
EndSplineSet
EndChar

StartChar: equal
Encoding: 61 61 30
Width: 551
GlyphClass: 2
Flags: MW
HStem: 142 56<114 504 96 522> 266 57<154 544 136 562>
VStem: 106 446
LayerCount: 2
Fore
SplineSet
562 323 m 1
 544 266 l 1
 136 266 l 1
 154 323 l 1
 562 323 l 1
522 198 m 1
 504 142 l 1
 96 142 l 1
 114 198 l 1
 522 198 l 1
EndSplineSet
Substitution2: "'subs' Subscript lookup 7 subtable" uni208C
Substitution2: "'sups' Superscript lookup 6 subtable" uni207C
Substitution2: "Single Substitution lookup 4 subtable" uni207C
Substitution2: "Single Substitution lookup 3 subtable" uni208C
EndChar

StartChar: greater
Encoding: 62 62 31
Width: 512
GlyphClass: 2
Flags: MW
HStem: 60 356<51 165>
VStem: 70 446
LayerCount: 2
Fore
SplineSet
406 238 m 1
 145 354 l 1
 165 416 l 1
 518 259 l 1
 504 215 l 1
 51 60 l 1
 71 122 l 1
 406 238 l 1
EndSplineSet
EndChar

StartChar: question
Encoding: 63 63 32
Width: 430
GlyphClass: 2
Flags: MW
HStem: -10 21G<114 152> -10 139<114 198> 622 36<346.5 380.5>
VStem: 193 63 379 106
LayerCount: 2
Fore
SplineSet
264 570 m 0xb8
 260 560 260 554 259 547 c 0
 259 539 259 530 255 516 c 0
 246 491 220 475 192 475 c 0
 169 475 145 495 157 533 c 0
 168 568 193 591 234 619 c 0
 270 644 318 658 375 658 c 0
 482 658 530 597 500 505 c 0
 477 431 404 385 345 348 c 0
 312 328 271 301 247 229 c 1
 244 216 l 2
 235 191 228 182 201 182 c 0
 176 182 176 194 182 216 c 2
 187 231 l 2
 199 272 217 329 305 394 c 0
 347 425 379 462 395 512 c 0
 413 570 407 622 354 622 c 0
 313 622 273 598 264 570 c 0xb8
87 58 m 0
 99 97 142 129 179 129 c 0x78
 217 129 237 99 224 60 c 0
 212 22 171 -10 133 -10 c 0
 95 -10 75 20 87 58 c 0
EndSplineSet
EndChar

StartChar: at
Encoding: 64 64 33
Width: 988
GlyphClass: 2
Flags: MW
HStem: -160 39<346 488> 24 42<644 666.5 644 679> 26 46<404.5 488> 381 34<647.5 666> 584 37<595.5 723>
VStem: 157 91 342 110 559 93 857 82
LayerCount: 2
Fore
SplineSet
636 80 m 0xdf80
 632 67 639 66 649 66 c 0
 684 66 807 129 852 273 c 0
 922 494 778 584 668 584 c 0
 523 584 330 459 257 228 c 0
 209 80 231 -121 461 -121 c 0
 533 -121 608 -97 682 -46 c 1
 692 -75 l 1
 617 -124 546 -160 430 -160 c 0
 208 -160 93 -7 166 221 c 0
 232 428 451 621 689 621 c 0
 901 621 997 476 937 287 c 0
 892 147 742 24 616 24 c 0
 586 24 557 27 548 39 c 0xdf80
 538 53 538 67 544 86 c 1
 500 44 449 26 426 26 c 0
 383 26 357 35 342 54 c 0xbf80
 323 79 327 122 338 158 c 0
 378 286 553 415 661 415 c 0
 707 415 728 398 738 377 c 1
 784 410 l 1
 806 399 l 1
 669 146 l 2
 655 120 639 91 636 80 c 0xdf80
661 320 m 0
 673 355 678 381 654 381 c 0
 641 381 611 381 566 343 c 0
 508 295 471 227 451 164 c 0
 436 117 429 72 474 72 c 0xbf80
 502 72 541 107 594 193 c 0
 614 226 653 296 661 320 c 0
EndSplineSet
EndChar

StartChar: A
Encoding: 65 65 34
Width: 710
GlyphClass: 2
Flags: MW
HStem: -2 34 -2 34 235 48<267.5 458 312 458 312 461> 638 20G<579 579>
VStem: 4 705
AnchorPoint: "Anchor-6" 547 5 basechar 0
AnchorPoint: "Anchor-3" 277 -110 basechar 0
AnchorPoint: "Anchor-0" 424 850 basechar 0
LayerCount: 2
Fore
SplineSet
148 79 m 2xb8
 121 39 163 35 198 32 c 2
 200 32 l 1
 204 26 197 4 189 -2 c 1
 154 -1 102 0 63 0 c 0
 26 0 7 -1 -29 -2 c 1
 -33 4 -26 26 -18 32 c 1
 24 35 54 40 98 102 c 2
 460 614 l 1
 494 614 562 649 579 658 c 1
 606 86 l 2
 608 35 639 36 676 32 c 1
 680 26 673 4 665 -2 c 1
 630 -1 577 0 538 0 c 0
 501 0 409 -1 373 -2 c 1xb8
 369 4 375 26 383 32 c 0
 389 32 394 33 400 33 c 0
 438 35 466 36 466 72 c 2x78
 461 235 l 1
 279 235 l 2
 256 235 248 231 240 218 c 2
 148 79 l 2xb8
312 283 m 2
 458 283 l 1
 450 520 l 1
 444 520 l 1
 292 296 l 2
 285 286 291 283 312 283 c 2
EndSplineSet
MultipleSubs2: "'c2sc' Capitals to Small Capitals lookup 12 subtable" a.sc
Position2: "'cpsp' Capital Spacing lookup 2 per glyph data 0" dx=2 dy=0 dh=5 dv=1
EndChar

StartChar: B
Encoding: 66 66 35
Width: 621
GlyphClass: 2
Flags: MW
HStem: -2 42<260 342.5 250.5 393> 334 42<298 365 311 365 365 366> 605 42<438 465.5>
VStem: 204 137 483 141 496 134
LayerCount: 2
Fore
SplineSet
325 645 m 0xf8
 355 645 414 647 462 647 c 0
 626 647 657 585 651 524 c 0xf4
 643 448 584 389 514 361 c 1
 513 359 l 1
 591 336 621 293 614 228 c 0
 600 91 497 -2 289 -2 c 0
 231 -2 170 0 132 0 c 0
 94 0 -16 -2 -16 -2 c 2
 -19 0 -20 5 -19 10 c 0
 -18 19 -14 28 -7 32 c 0
 46 35 75 39 100 122 c 2
 220 523 l 2
 225 539 228 553 229 564 c 0
 234 608 210 611 168 613 c 0
 165 615 164 619 165 624 c 0
 166 633 171 643 178 647 c 1
 178 647 287 645 325 645 c 0xf8
298 334 m 1
 223 84 l 2
 221 78 220 72 219 67 c 0
 217 49 228 40 273 40 c 0
 412 40 464 140 473 228 c 0
 480 292 448 334 366 334 c 2
 298 334 l 1
366 562 m 2
 311 376 l 1
 365 376 l 2
 443 376 507 427 518 528 c 0
 525 592 484 605 447 605 c 0
 385 605 375 591 366 562 c 2
EndSplineSet
MultipleSubs2: "'c2sc' Capitals to Small Capitals lookup 12 subtable" b.sc
Position2: "'cpsp' Capital Spacing lookup 2 per glyph data 0" dx=2 dy=0 dh=5 dv=1
EndChar

StartChar: C
Encoding: 67 67 36
Width: 675
GlyphClass: 2
Flags: MW
HStem: -10 52<302.5 389.5> 616 42<465 588>
VStem: 89 149 659 43
AnchorPoint: "Anchor-7" 345 315 basechar 0
AnchorPoint: "Anchor-6" 321 -7 basechar 0
AnchorPoint: "Anchor-3" 317 -110 basechar 0
AnchorPoint: "Anchor-0" 395 850 basechar 0
LayerCount: 2
Fore
SplineSet
343 -10 m 0
 250 -10 180 7 133 53 c 0
 73 111 67 221 95 315 c 0
 161 535 356 658 544 658 c 0
 662 658 694 618 741 613 c 1
 733 558 726 510 716 458 c 1
 703 452 684 449 673 453 c 1
 674 539 654 616 522 616 c 0
 408 616 292 489 246 334 c 0
 200 178 247 42 358 42 c 0
 425 42 511 68 602 146 c 1
 613 146 626 134 628 125 c 1
 536 36 436 -10 343 -10 c 0
EndSplineSet
MultipleSubs2: "'c2sc' Capitals to Small Capitals lookup 12 subtable" c.sc
Position2: "'cpsp' Capital Spacing lookup 2 per glyph data 0" dx=2 dy=0 dh=5 dv=1
EndChar

StartChar: D
Encoding: 68 68 37
Width: 698
GlyphClass: 2
Flags: MW
HStem: -2 42<285.5 340> 604 42<440.5 514.5>
VStem: 585 141
LayerCount: 2
Fore
SplineSet
298 -2 m 0
 260 -2 181 0 143 0 c 0
 105 0 -5 -2 -5 -2 c 2
 -8 0 -9 4 -8 9 c 0
 -7 18 -2 28 5 32 c 0
 58 35 87 39 112 122 c 2
 232 523 l 2
 237 539 240 552 241 563 c 0
 246 608 221 611 179 613 c 0
 176 615 175 619 176 624 c 0
 177 633 182 643 189 647 c 1
 189 647 299 645 337 645 c 0
 375 645 415 646 466 646 c 0
 668 646 749 535 733 387 c 0
 719 253 641 132 571 82 c 0
 484 20 382 -2 298 -2 c 0
246 119 m 2
 243 107 239 97 238 88 c 0
 234 48 258 40 313 40 c 0
 431 40 573 204 596 426 c 0
 606 525 579 604 450 604 c 0
 415 604 385 584 368 529 c 2
 246 119 l 2
EndSplineSet
MultipleSubs2: "'c2sc' Capitals to Small Capitals lookup 12 subtable" d.sc
Position2: "'cpsp' Capital Spacing lookup 2 per glyph data 0" dx=2 dy=0 dh=5 dv=1
EndChar

StartChar: E
Encoding: 69 69 38
Width: 578
GlyphClass: 2
Flags: MW
HStem: 0 42<245 342 342 350> 317 50<304 366 288 382> 409 20G<487 528> 413 20G 603 42<401.5 413 413 495> 629 20G<648 649.5>
VStem: 7 610
AnchorPoint: "Anchor-6" 300 4 basechar 0
AnchorPoint: "Anchor-3" 288 -110 basechar 0
AnchorPoint: "Anchor-0" 383 850 basechar 0
LayerCount: 2
Fore
SplineSet
382 367 m 2xda
 446 367 467 374 487 429 c 1xda
 495 435 524 435 528 429 c 1
 518 399 512 377 501 343 c 0
 490 309 486 290 476 255 c 1
 468 249 439 249 435 255 c 1
 446 300 432 317 366 317 c 2
 288 317 l 1
 220 90 l 2
 212 63 224 42 245 42 c 2
 342 42 l 2
 415 42 475 98 516 170 c 1
 529 173 549 171 557 165 c 1
 534 114 510 48 482 -2 c 1
 482 -2 396 0 350 0 c 2
 124 0 l 1
 124 0 22 -1 -25 -2 c 1
 -29 4 -23 26 -15 32 c 1
 53 35 71 39 96 122 c 2
 215 522 l 2
 240 605 226 610 159 613 c 1
 155 619 161 641 169 647 c 1
 217 646 317 645 317 645 c 1
 600 645 l 2xea
 623 645 631 646 648 649 c 0
 651 649 651 648 651 646 c 0xd6
 650 638 626 542 619 501 c 1
 608 496 588 494 576 496 c 1
 575 565 567 603 495 603 c 2
 413 603 l 2
 390 603 367 578 359 554 c 2
 304 367 l 1
 382 367 l 2xda
EndSplineSet
MultipleSubs2: "'c2sc' Capitals to Small Capitals lookup 12 subtable" e.sc
Position2: "'cpsp' Capital Spacing lookup 2 per glyph data 0" dx=2 dy=0 dh=5 dv=1
EndChar

StartChar: F
Encoding: 70 70 39
Width: 518
GlyphClass: 2
Flags: MW
HStem: -2 34 297 50<297 360 282 375> 603 42<401.5 413 413 499> 629 20G<653 654.5>
VStem: 9 613
AnchorPoint: "Anchor-3" 288 -110 basechar 0
AnchorPoint: "Anchor-0" 383 850 basechar 0
LayerCount: 2
Fore
SplineSet
230 122 m 2xe8
 205 39 240 35 292 32 c 1
 299 26 294 4 282 -2 c 1
 244 -1 165 0 127 0 c 0
 89 0 18 -1 -21 -2 c 1
 -28 4 -23 26 -11 32 c 1
 42 35 71 39 96 122 c 2
 215 522 l 2
 240 605 226 610 159 613 c 1
 155 619 161 641 169 647 c 1
 217 646 317 645 317 645 c 1
 605 645 l 2xe8
 628 645 636 646 653 649 c 0
 656 649 656 648 656 646 c 0xd8
 655 638 629 537 622 496 c 1
 611 491 592 489 580 491 c 1
 579 560 571 603 499 603 c 2
 413 603 l 2
 390 603 367 578 359 554 c 2
 297 347 l 1
 375 347 l 2
 439 347 461 354 481 409 c 1
 489 415 518 415 522 409 c 1
 512 379 506 357 495 323 c 0
 484 289 480 270 470 235 c 1
 462 229 433 229 429 235 c 1
 440 280 426 297 360 297 c 2
 282 297 l 1
 230 122 l 2xe8
EndSplineSet
MultipleSubs2: "'c2sc' Capitals to Small Capitals lookup 12 subtable" f.sc
Position2: "'cpsp' Capital Spacing lookup 2 per glyph data 0" dx=2 dy=0 dh=5 dv=1
EndChar

StartChar: G
Encoding: 71 71 40
Width: 723
GlyphClass: 2
Flags: MW
HStem: -10 42<301.5 404.5> 271 37 616 42<511 596.5>
VStem: 83 148 695 44
AnchorPoint: "Anchor-7" 339 335 basechar 0
AnchorPoint: "Anchor-6" 363 2 basechar 0
AnchorPoint: "Anchor-3" 351 -110 basechar 0
AnchorPoint: "Anchor-1" 575 750 basechar 0
AnchorPoint: "Anchor-0" 450 850 basechar 0
LayerCount: 2
Fore
SplineSet
553 658 m 0
 670 658 722 623 780 623 c 1
 765 551 757 501 753 459 c 1
 709 453 l 1
 710 539 666 616 527 616 c 0
 480 616 416 595 360 542 c 0
 307 491 265 413 239 327 c 0
 199 195 212 32 383 32 c 0
 435 32 464 42 506 74 c 1
 550 223 l 2
 562 263 538 267 486 271 c 1
 482 277 489 302 497 308 c 1
 542 307 607 306 644 306 c 0
 682 306 730 307 759 308 c 1
 763 302 756 277 748 271 c 1
 720 268 700 258 689 223 c 2
 655 106 l 2
 652 95 653 87 661 78 c 1
 580 24 461 -10 348 -10 c 0
 255 -10 169 12 122 66 c 0
 70 124 61 217 88 307 c 0
 120 415 194 505 280 565 c 0
 369 627 469 658 553 658 c 0
EndSplineSet
MultipleSubs2: "'c2sc' Capitals to Small Capitals lookup 12 subtable" g.sc
Position2: "'cpsp' Capital Spacing lookup 2 per glyph data 0" dx=2 dy=0 dh=5 dv=1
EndChar

StartChar: H
Encoding: 72 72 41
Width: 735
GlyphClass: 2
Flags: MW
HStem: -2 34 319 48<320 555 305 570> 613 34
VStem: 25 812
AnchorPoint: "Anchor-3" 312 -110 basechar 0
LayerCount: 2
Fore
SplineSet
616 523 m 2
 641 606 615 610 563 613 c 1
 556 619 561 641 573 647 c 1
 611 646 683 645 721 645 c 0
 759 645 828 646 867 647 c 1
 874 641 869 619 857 613 c 1
 804 610 775 606 750 523 c 2
 630 122 l 2
 605 39 630 35 682 32 c 1
 689 26 685 4 673 -2 c 1
 635 -1 565 0 527 0 c 0
 489 0 418 -1 379 -2 c 1
 372 4 377 26 389 32 c 1
 442 35 471 39 496 122 c 2
 555 319 l 1
 305 319 l 1
 246 122 l 2
 221 39 246 35 298 32 c 1
 305 26 301 4 289 -2 c 1
 251 -1 181 0 143 0 c 0
 105 0 34 -1 -5 -2 c 1
 -12 4 -7 26 5 32 c 1
 58 35 87 39 112 122 c 2
 232 523 l 2
 257 606 231 610 179 613 c 1
 172 619 177 641 189 647 c 1
 227 646 299 645 337 645 c 0
 375 645 444 646 483 647 c 1
 490 641 485 619 473 613 c 1
 420 610 391 606 366 523 c 2
 320 367 l 1
 570 367 l 1
 616 523 l 2
EndSplineSet
MultipleSubs2: "'c2sc' Capitals to Small Capitals lookup 12 subtable" h.sc
Position2: "'cpsp' Capital Spacing lookup 2 per glyph data 0" dx=2 dy=0 dh=5 dv=1
EndChar

StartChar: I
Encoding: 73 73 42
Width: 351
GlyphClass: 2
Flags: MW
HStem: -2 34 613 34
VStem: 25 428
LayerCount: 2
Fore
SplineSet
232 523 m 2
 257 606 231 610 179 613 c 1
 172 619 177 641 189 647 c 1
 227 646 299 645 337 645 c 0
 375 645 444 646 483 647 c 1
 490 641 485 619 473 613 c 1
 420 610 391 606 366 523 c 2
 246 122 l 2
 221 39 246 35 298 32 c 1
 305 26 301 4 289 -2 c 1
 251 -1 181 0 143 0 c 0
 105 0 34 -1 -5 -2 c 1
 -12 4 -7 26 5 32 c 1
 58 35 87 39 112 122 c 2
 232 523 l 2
EndSplineSet
MultipleSubs2: "'c2sc' Capitals to Small Capitals lookup 12 subtable" i.sc
Position2: "'cpsp' Capital Spacing lookup 2 per glyph data 0" dx=2 dy=0 dh=5 dv=1
EndChar

StartChar: J
Encoding: 74 74 43
Width: 373
GlyphClass: 2
Flags: MW
HStem: -187 59<-71.5 47.5> -187 127<-64 -35 -64 -27.5> 613 34
VStem: -97 600
AnchorPoint: "Anchor-7" 296 315 basechar 0
AnchorPoint: "Anchor-0" 490 850 basechar 0
LayerCount: 2
Fore
SplineSet
428 522 m 2xb0
 291 103 l 2
 244 -40 169 -92 112 -129 c 0
 60 -164 2 -187 -57 -187 c 0xb0
 -86 -187 -147 -163 -132 -116 c 0
 -122 -87 -73 -60 -55 -60 c 0x70
 -15 -60 -19 -88 -12 -105 c 0
 -6 -118 8 -128 26 -128 c 0
 69 -128 84 -99 143 81 c 2
 288 522 l 2
 315 605 299 610 220 613 c 1
 216 619 223 641 231 647 c 1
 281 646 332 645 397 645 c 0
 455 645 496 646 545 647 c 1
 549 641 542 619 534 613 c 1
 473 610 455 605 428 522 c 2xb0
EndSplineSet
Substitution2: "'ss02' Style Set 2 lookup 41 subtable" J.alt
Substitution2: "'salt' Stylistic Alternatives lookup 20 subtable" J.alt
MultipleSubs2: "'c2sc' Capitals to Small Capitals lookup 12 subtable" j.sc
Position2: "'cpsp' Capital Spacing lookup 2 per glyph data 0" dx=2 dy=0 dh=5 dv=1
EndChar

StartChar: K
Encoding: 75 75 44
Width: 706
GlyphClass: 2
Flags: MW
HStem: -2 34 308 44<301 315> 613 34
VStem: 25 765
AnchorPoint: "Anchor-6" 114 -1 basechar 0
AnchorPoint: "Anchor-3" 297 -110 basechar 0
AnchorPoint: "Anchor-0" 391 850 basechar 0
LayerCount: 2
Fore
SplineSet
232 523 m 2
 257 606 231 610 179 613 c 1
 172 619 177 641 189 647 c 1
 227 646 299 645 337 645 c 0
 375 645 444 646 483 647 c 1
 490 641 485 619 473 613 c 1
 420 610 391 606 366 523 c 2
 315 352 l 1
 347 357 376 377 450 430 c 2
 450 430 542 493 581 525 c 0
 644 576 657 607 603 613 c 1
 599 619 605 641 613 647 c 1
 658 646 693 645 731 645 c 0
 769 645 777 646 822 647 c 1
 826 641 821 619 813 613 c 1
 738 604 688 559 612 504 c 2
 479 407 l 2
 462 395 461 387 459 381 c 2
 459 378 l 2
 456 370 463 353 474 333 c 2
 607 74 l 2
 623 44 640 36 668 32 c 1
 672 26 667 4 659 -2 c 1
 614 -1 590 0 553 0 c 0
 524 0 466 -1 447 -2 c 0
 443 -2 444 1 444 4 c 0
 447 20 441 48 430 74 c 2
 344 271 l 2
 334 295 326 306 301 308 c 1
 246 122 l 2
 221 39 246 35 298 32 c 1
 305 26 301 4 289 -2 c 1
 251 -1 181 0 143 0 c 0
 105 0 34 -1 -5 -2 c 1
 -12 4 -7 26 5 32 c 1
 58 35 87 39 112 122 c 2
 232 523 l 2
EndSplineSet
Substitution2: "'ss02' Style Set 2 lookup 41 subtable" K.alt
Substitution2: "'salt' Stylistic Alternatives lookup 20 subtable" K.alt
MultipleSubs2: "'c2sc' Capitals to Small Capitals lookup 12 subtable" k.sc
Position2: "'cpsp' Capital Spacing lookup 2 per glyph data 0" dx=2 dy=0 dh=5 dv=1
EndChar

StartChar: L
Encoding: 76 76 45
Width: 552
GlyphClass: 2
Flags: MW
HStem: 0 42<256 314 314 357> 613 34
VStem: 25 538
LayerCount: 2
Fore
SplineSet
314 42 m 2
 415 42 466 98 507 170 c 1
 519 172 539 170 546 165 c 1
 525 113 496 48 472 -2 c 1
 472 -2 385 0 357 0 c 2
 143 0 l 2
 106 0 -5 -2 -5 -2 c 1
 -12 4 -7 26 5 32 c 1
 58 35 87 39 112 122 c 2
 232 523 l 2
 257 606 231 610 179 613 c 1
 172 619 177 641 189 647 c 1
 189 647 299 645 337 645 c 0
 375 645 404 646 483 647 c 1
 490 641 485 619 473 613 c 1
 420 610 391 606 366 523 c 2
 246 121 l 2
 228 61 236 42 256 42 c 2
 314 42 l 2
EndSplineSet
MultipleSubs2: "'c2sc' Capitals to Small Capitals lookup 12 subtable" l.sc
Position2: "'cpsp' Capital Spacing lookup 2 per glyph data 0" dx=2 dy=0 dh=5 dv=1
EndChar

StartChar: M
Encoding: 77 77 46
Width: 862
GlyphClass: 2
Flags: MW
HStem: -8 21G<337 343> -2 34 613 34
VStem: 234 26
AnchorPoint: "Anchor-7" 439 445 basechar 0
AnchorPoint: "Anchor-6" 64 2 basechar 0
AnchorPoint: "Anchor-3" 348 -110 basechar 0
AnchorPoint: "Anchor-0" 487 850 basechar 0
LayerCount: 2
Fore
SplineSet
638 116 m 2x70
 738 534 l 1
 736 534 l 1
 361 5 l 2
 355 -4 346 -8 340 -8 c 0
 334 -8 324 -2 324 5 c 2xb0
 283 498 l 1
 279 498 l 1
 141 123 l 2
 119 67 117 37 178 32 c 1
 182 26 175 4 167 -2 c 1
 138 -1 81 0 58 0 c 0
 35 0 4 -1 -25 -2 c 1
 -29 4 -22 26 -14 32 c 1
 43 37 61 61 84 121 c 2
 245 533 l 2
 274 608 270 609 205 613 c 1
 201 619 206 641 214 647 c 1
 411 645 l 1
 450 201 l 1
 455 201 l 1
 770 645 l 1
 963 647 l 1
 967 641 962 619 954 613 c 1
 888 609 878 596 866 542 c 2
 769 121 l 2
 749 38 751 35 816 32 c 1
 820 26 814 4 806 -2 c 1
 774 -1 730 0 701 0 c 0
 672 0 586 -1 541 -2 c 1
 537 4 543 26 551 32 c 1
 614 35 618 35 638 116 c 2x70
EndSplineSet
MultipleSubs2: "'c2sc' Capitals to Small Capitals lookup 12 subtable" m.sc
Position2: "'cpsp' Capital Spacing lookup 2 per glyph data 0" dx=2 dy=0 dh=5 dv=1
EndChar

StartChar: N
Encoding: 78 78 47
Width: 709
GlyphClass: 2
Flags: MW
HStem: -12 21G<508 525> -2 34 613 34
VStem: 12 809
AnchorPoint: "Anchor-7" 342 90 basechar 0
AnchorPoint: "Anchor-6" 91 -4 basechar 0
AnchorPoint: "Anchor-3" 313 -110 basechar 0
AnchorPoint: "Anchor-0" 412 850 basechar 0
LayerCount: 2
Fore
SplineSet
581 0 m 1x70
 561 -9 542 -12 508 -12 c 1
 508 -12 494 7 483 32 c 2xb0
 280 430 l 2
 273 443 268 450 264 450 c 0
 258 450 253 440 250 430 c 2
 161 133 l 2
 133 42 149 39 214 32 c 1
 218 26 211 4 203 -2 c 1
 155 -1 134 0 89 0 c 0
 47 0 27 -1 -20 -2 c 1
 -24 4 -18 26 -10 32 c 1
 60 39 79 44 105 133 c 2
 229 550 l 1
 231 576 213 610 172 613 c 1
 168 619 175 641 183 647 c 1
 346 645 l 1
 401 540 l 1
 562 228 l 2
 570 212 581 205 589 231 c 2
 672 512 l 2
 700 603 684 606 619 613 c 1
 615 619 622 641 630 647 c 1
 678 646 700 645 745 645 c 0
 787 645 807 646 854 647 c 1
 858 641 851 619 843 613 c 1
 773 606 755 601 729 512 c 2
 606 102 l 2
 597 71 581 0 581 0 c 1x70
EndSplineSet
MultipleSubs2: "'c2sc' Capitals to Small Capitals lookup 12 subtable" n.sc
Position2: "'cpsp' Capital Spacing lookup 2 per glyph data 0" dx=2 dy=0 dh=5 dv=1
EndChar

StartChar: O
Encoding: 79 79 48
Width: 699
GlyphClass: 2
Flags: MW
HStem: -10 42<300.5 403 300.5 423.5> 616 42<463 527.5>
VStem: 88 145 592 145
AnchorPoint: "Anchor-6" 319 -7 basechar 0
AnchorPoint: "Anchor-3" 315 -110 basechar 0
AnchorPoint: "Anchor-0" 559 850 basechar 0
LayerCount: 2
Fore
SplineSet
312 -10 m 0
 169 -10 62 84 79 241 c 0
 93 370 162 474 242 546 c 0
 318 615 415 658 511 658 c 0
 664 658 761 560 745 404 c 0
 721 175 535 -10 312 -10 c 0
487 616 m 0
 434 616 376 584 325 509 c 0
 285 450 234 331 223 226 c 0
 210 102 258 32 343 32 c 0
 463 32 580 216 602 423 c 0
 615 550 568 616 487 616 c 0
EndSplineSet
MultipleSubs2: "'c2sc' Capitals to Small Capitals lookup 12 subtable" o.sc
Position2: "'cpsp' Capital Spacing lookup 2 per glyph data 0" dx=2 dy=0 dh=5 dv=1
EndChar

StartChar: P
Encoding: 80 80 49
Width: 588
GlyphClass: 2
Flags: MW
HStem: -2 34 277 42<368 410.5> 613 41<474 478>
VStem: 517 146
LayerCount: 2
Fore
SplineSet
493 654 m 0
 565 654 615 643 644 621 c 0
 692 584 689 524 677 484 c 0
 661 431 625 366 565 325 c 0
 517 292 453 277 368 277 c 0
 345 277 348 278 335 280 c 1
 324 289 323 303 329 322 c 1
 342 320 361 319 375 319 c 0
 454 319 496 363 527 467 c 0
 564 589 506 613 450 613 c 0
 399 613 386 592 366 524 c 2
 246 122 l 2
 221 39 246 35 298 32 c 1
 305 26 301 4 289 -2 c 1
 251 -1 181 0 143 0 c 0
 105 0 34 -1 -5 -2 c 1
 -12 4 -7 26 5 32 c 1
 58 35 87 39 112 122 c 2
 232 523 l 2
 257 606 230 610 178 613 c 1
 171 619 177 641 189 647 c 1
 227 647 455 654 493 654 c 0
EndSplineSet
MultipleSubs2: "'c2sc' Capitals to Small Capitals lookup 12 subtable" p.sc
Position2: "'cpsp' Capital Spacing lookup 2 per glyph data 0" dx=2 dy=0 dh=5 dv=1
EndChar

StartChar: Q
Encoding: 81 81 50
Width: 699
GlyphClass: 2
Flags: MW
HStem: -229 77 -124 64 -6 21G -6 38 616 42<472 536.5>
VStem: 88 145 592 145
AnchorPoint: "Anchor-0" 406 802 basechar 0
LayerCount: 2
Fore
SplineSet
96 -81 m 0xee
 144 -37 204 -38 272 -6 c 1
 154 13 73 102 88 241 c 0
 102 370 171 474 251 546 c 0
 327 615 424 658 520 658 c 0
 673 658 770 560 754 404 c 0
 731 188 560 10 358 -6 c 0
 333 -9 339 -7 302 -8 c 0
 301 -8 299 -7 303 -14 c 0xee
 344 -81 407 -104 491 -104 c 0
 519 -104 557 -94 586 -67 c 1
 596 -89 l 1
 542 -145 490 -181 430 -181 c 0xae
 305 -181 276 -76 187 -76 c 0
 180 -76 163 -80 146 -90 c 0
 130 -104 115 -119 99 -135 c 1
 71 -105 l 1
 78 -96 86 -88 96 -81 c 0xee
496 616 m 0x9e
 443 616 385 584 334 509 c 0
 294 450 243 331 232 226 c 0
 219 102 267 32 352 32 c 0
 472 32 589 216 611 423 c 0
 624 550 577 616 496 616 c 0x9e
EndSplineSet
MultipleSubs2: "'c2sc' Capitals to Small Capitals lookup 12 subtable" q.sc
Position2: "'cpsp' Capital Spacing lookup 2 per glyph data 0" dx=2 dy=0 dh=5 dv=1
EndChar

StartChar: R
Encoding: 82 82 51
Width: 686
GlyphClass: 2
Flags: MW
HStem: -10 42 -2 21G 283 42<307 332> 613 41<425.5 557.5>
VStem: 522 141
AnchorPoint: "Anchor-6" 149 0 basechar 0
AnchorPoint: "Anchor-3" 246 -111 basechar 0
AnchorPoint: "Anchor-0" 355 808 basechar 0
LayerCount: 2
Fore
SplineSet
494 654 m 0x78
 621 654 694 615 683 511 c 0
 670 392 573 331 513 308 c 1
 580 98 l 2
 595 56 611 32 654 32 c 1
 654 26 l 2
 653 16 649 4 644 -2 c 0
 632 -7 582 -10 543 -10 c 0
 485 -10 459 34 443 79 c 2xb8
 383 253 l 2
 376 276 370 283 294 283 c 1
 246 122 l 2
 241 106 238 92 237 81 c 0
 232 38 257 34 299 32 c 0
 302 30 303 25 302 20 c 0
 301 11 296 2 289 -2 c 1
 251 -1 181 0 143 0 c 0
 105 0 34 -1 -5 -2 c 0
 -8 0 -9 4 -8 9 c 0
 -7 18 -1 28 6 32 c 0
 59 35 87 39 112 122 c 2
 232 523 l 2
 237 539 240 552 241 563 c 0
 246 608 221 611 179 613 c 0
 176 615 175 619 176 624 c 0
 177 633 182 643 189 647 c 1
 227 647 456 654 494 654 c 0x78
542 512 m 0
 551 593 499 613 451 613 c 0
 400 613 386 592 366 524 c 2
 307 325 l 1
 348 325 l 2
 438 325 527 366 542 512 c 0
EndSplineSet
Substitution2: "'ss02' Style Set 2 lookup 41 subtable" R.alt
Substitution2: "'salt' Stylistic Alternatives lookup 20 subtable" R.alt
MultipleSubs2: "'c2sc' Capitals to Small Capitals lookup 12 subtable" r.sc
Position2: "'cpsp' Capital Spacing lookup 2 per glyph data 0" dx=2 dy=0 dh=5 dv=1
EndChar

StartChar: S
Encoding: 83 83 52
Width: 482
GlyphClass: 2
Flags: MW
HStem: -10 42<166 226.5> 617 41<377.5 432>
VStem: 129 131 347 136
AnchorPoint: "Anchor-6" 203 2 basechar 0
AnchorPoint: "Anchor-3" 191 -111 basechar 0
AnchorPoint: "Anchor-0" 305 802 basechar 0
LayerCount: 2
Fore
SplineSet
558 631 m 1
 547 573 539 532 523 479 c 1
 515 474 503 471 492 471 c 0
 485 471 479 472 474 474 c 1
 477 540 473 617 391 617 c 0
 342 617 287 577 280 513 c 0
 275 462 322 416 351 398 c 0
 403 366 480 297 470 205 c 0
 461 124 409 77 361 41 c 0
 310 4 256 -10 197 -10 c 0
 64 -10 68 10 13 10 c 1
 13 20 15 32 16 45 c 0
 19 78 26 121 43 175 c 1
 54 178 66 181 77 181 c 0
 83 181 88 180 93 178 c 1
 85 87 134 32 198 32 c 0
 263 32 320 72 327 136 c 0
 333 197 293 231 240 270 c 0
 175 317 134 367 142 446 c 0
 151 528 193 580 245 614 c 0
 287 641 351 658 404 658 c 0
 493 658 508 639 558 631 c 1
EndSplineSet
MultipleSubs2: "'c2sc' Capitals to Small Capitals lookup 12 subtable" s.sc
Position2: "'cpsp' Capital Spacing lookup 2 per glyph data 0" dx=2 dy=0 dh=5 dv=1
EndChar

StartChar: T
Encoding: 84 84 53
Width: 625
GlyphClass: 2
Flags: MW
HStem: -2 34 605 40<561.5 579 579 587 414 601> 633 20G<191 192 766 766.5>
VStem: 680 39
AnchorPoint: "Anchor-7" 328 285 basechar 0
AnchorPoint: "Anchor-6" 300 10 basechar 0
AnchorPoint: "Anchor-3" 279 -110 basechar 0
AnchorPoint: "Anchor-0" 570 850 basechar 0
LayerCount: 2
Fore
SplineSet
392 123 m 2xd0
 367 40 381 35 457 32 c 1
 461 26 455 4 447 -2 c 1
 399 -1 349 0 286 0 c 0
 225 0 174 -1 127 -2 c 1
 123 4 128 26 136 32 c 1
 213 35 232 40 257 123 c 2
 372 506 l 2
 390 567 392 605 356 605 c 2
 309 605 l 2xd0
 246 605 198 579 155 499 c 1
 143 499 129 500 120 504 c 1
 145 552 169 605 187 650 c 0
 187 651 190 653 192 653 c 0xb0
 228 650 340 645 414 645 c 2
 549 645 l 2xd0
 625 645 733 650 766 653 c 0
 767 653 768 651 768 650 c 0xb0
 755 605 745 553 738 507 c 1
 729 503 710 502 699 502 c 1
 706 579 673 605 601 605 c 2
 579 605 l 2
 544 605 525 567 506 503 c 2
 392 123 l 2xd0
EndSplineSet
MultipleSubs2: "'c2sc' Capitals to Small Capitals lookup 12 subtable" t.sc
Position2: "'cpsp' Capital Spacing lookup 2 per glyph data 0" dx=2 dy=0 dh=5 dv=1
EndChar

StartChar: U
Encoding: 85 85 54
Width: 702
GlyphClass: 2
Flags: MW
HStem: -10 42<334 422.5> 613 34
VStem: 121 136
AnchorPoint: "Anchor-7" 391 321 basechar 0
AnchorPoint: "Anchor-6" 350 4 basechar 0
AnchorPoint: "Anchor-3" 338 -110 basechar 0
AnchorPoint: "Anchor-0" 457 850 basechar 0
LayerCount: 2
Fore
SplineSet
340 522 m 2
 265 269 l 2
 245 204 225 129 258 82 c 0
 278 53 311 32 357 32 c 0
 519 32 573 165 607 277 c 2
 680 522 l 2
 705 604 689 606 620 613 c 1
 619 613 l 1
 615 619 622 641 630 647 c 1
 678 646 703 645 751 645 c 0
 791 645 808 646 855 647 c 1
 859 641 852 619 844 613 c 1
 784 606 768 605 743 522 c 2
 675 295 l 2
 621 117 521 -10 324 -10 c 0
 278 -10 191 -9 143 32 c 0
 100 69 91 139 120 236 c 2
 206 522 l 2
 231 605 217 610 160 613 c 1
 156 619 162 641 170 647 c 1
 218 646 254 645 309 645 c 0
 370 645 420 646 467 647 c 1
 471 641 464 619 456 613 c 1
 381 610 365 605 340 522 c 2
EndSplineSet
MultipleSubs2: "'c2sc' Capitals to Small Capitals lookup 12 subtable" u.sc
Position2: "'cpsp' Capital Spacing lookup 2 per glyph data 0" dx=2 dy=0 dh=5 dv=1
EndChar

StartChar: V
Encoding: 86 86 55
Width: 671
GlyphClass: 2
Flags: MW
HStem: -12 21G<290.5 301> 613 34
VStem: 123 671
AnchorPoint: "Anchor-6" 316 3 basechar 0
AnchorPoint: "Anchor-3" 284 -108 basechar 0
AnchorPoint: "Anchor-0" 438 805 basechar 0
LayerCount: 2
Fore
SplineSet
700 543 m 2
 336 11 l 2
 325 -5 306 -12 296 -12 c 0
 285 -12 273 -4 272 11 c 2
 226 559 l 2
 222 606 193 609 156 613 c 1
 152 619 158 641 166 647 c 1
 201 646 255 645 294 645 c 0
 331 645 428 646 464 647 c 1
 468 641 461 619 453 613 c 1
 406 610 369 606 371 573 c 2
 382 216 l 1
 384 171 l 1
 412 210 l 1
 651 566 l 2
 676 604 634 610 598 613 c 1
 594 619 601 641 609 647 c 1
 644 646 696 645 735 645 c 0
 772 645 791 646 827 647 c 1
 831 641 824 619 816 613 c 1
 773 610 741 603 700 543 c 2
EndSplineSet
MultipleSubs2: "'c2sc' Capitals to Small Capitals lookup 12 subtable" v.sc
Position2: "'cpsp' Capital Spacing lookup 2 per glyph data 0" dx=2 dy=0 dh=5 dv=1
EndChar

StartChar: W
Encoding: 87 87 56
Width: 986
GlyphClass: 2
Flags: MW
HStem: -12 21G<274.5 285 620.5 631> 590 20G 613 34
VStem: 127 978
AnchorPoint: "Anchor-3" 469 -107 basechar 0
AnchorPoint: "Anchor-0" 588 805 basechar 0
LayerCount: 2
Fore
SplineSet
702 613 m 1
 717 216 l 1
 719 174 l 1
 742 210 l 1
 962 566 l 2
 985 604 945 610 909 613 c 1
 905 619 912 641 920 647 c 1
 955 646 1007 645 1046 645 c 0
 1083 645 1102 646 1138 647 c 1
 1142 641 1135 619 1127 613 c 1
 1084 610 1049 602 1011 543 c 2
 666 11 l 2
 654 -7 636 -12 626 -12 c 0
 615 -12 603 0 602 11 c 2
 574 410 l 1
 320 11 l 2
 308 -8 290 -12 280 -12 c 0
 269 -12 256 -4 256 11 c 2
 230 559 l 2
 228 605 197 609 160 613 c 1
 156 619 162 641 170 647 c 1
 205 646 259 645 298 645 c 0
 335 645 432 646 468 647 c 1
 472 641 465 619 457 613 c 1
 410 610 373 604 374 573 c 2
 381 216 l 1
 381 184 l 1
 396 210 l 1
 644 613 l 1
 644 613 672 607 702 613 c 1
EndSplineSet
Substitution2: "'ss05' Style Set 5 lookup 44 subtable" W.alt
Substitution2: "'salt' Stylistic Alternatives lookup 20 subtable" W.alt
MultipleSubs2: "'c2sc' Capitals to Small Capitals lookup 12 subtable" w.sc
Position2: "'cpsp' Capital Spacing lookup 2 per glyph data 0" dx=2 dy=0 dh=5 dv=1
EndChar

StartChar: X
Encoding: 88 88 57
Width: 689
GlyphClass: 2
Flags: MW
HStem: -1 34 613 34
VStem: 343 141
AnchorPoint: "Anchor-6" 75 -1 basechar 0
AnchorPoint: "Anchor-3" 286 -107 basechar 0
AnchorPoint: "Anchor-0" 433 804 basechar 0
LayerCount: 2
Fore
SplineSet
409 89 m 2
 368 246 l 2
 361 269 356 271 343 258 c 0
 285 200 234 141 182 82 c 0
 159 52 168 36 210 33 c 1
 214 27 207 5 199 -1 c 1
 161 0 104 1 82 1 c 0
 60 1 4 0 -25 -1 c 1
 -29 5 -22 27 -14 33 c 1
 30 37 66 45 104 81 c 2
 324 291 l 2
 346 312 347 316 336 344 c 2
 259 547 l 2
 239 600 223 610 183 613 c 1
 179 619 184 641 192 647 c 1
 221 646 304 645 341 645 c 0
 379 645 443 646 482 647 c 1
 486 641 480 619 472 613 c 1
 418 610 412 594 422 557 c 2
 457 429 l 2
 462 410 467 402 481 415 c 0
 535 463 581 516 621 564 c 0
 644 594 636 610 594 613 c 1
 590 619 596 641 604 647 c 1
 642 646 693 645 715 645 c 0
 737 645 784 646 813 647 c 1
 817 641 811 619 803 613 c 1
 759 609 727 601 690 565 c 2
 508 389 l 2
 486 367 481 360 493 327 c 2
 573 99 l 2
 592 45 615 36 655 33 c 1
 659 27 653 5 645 -1 c 1
 616 0 546 1 509 1 c 0
 471 1 398 0 359 -1 c 1
 355 5 362 27 370 33 c 1
 424 36 422 54 409 89 c 2
EndSplineSet
MultipleSubs2: "'c2sc' Capitals to Small Capitals lookup 12 subtable" x.sc
Position2: "'cpsp' Capital Spacing lookup 2 per glyph data 0" dx=2 dy=0 dh=5 dv=1
EndChar

StartChar: Y
Encoding: 89 89 58
Width: 606
GlyphClass: 2
Flags: MW
HStem: -2 33 613 34
VStem: 307 98
AnchorPoint: "Anchor-6" 305 1 basechar 0
AnchorPoint: "Anchor-3" 296 -110 basechar 0
AnchorPoint: "Anchor-0" 396 850 basechar 0
LayerCount: 2
Fore
SplineSet
390 122 m 2
 365 39 380 34 456 31 c 1
 460 25 454 4 446 -2 c 1
 398 -1 354 0 294 0 c 0
 229 0 173 -1 126 -2 c 1
 122 4 127 25 135 31 c 1
 212 34 231 39 256 122 c 2
 296 259 l 2
 307 296 307 303 299 332 c 2
 242 547 l 2
 227 603 212 610 172 613 c 1
 168 619 173 641 181 647 c 1
 210 646 279 645 316 645 c 0
 354 645 397 646 436 647 c 1
 440 641 434 619 426 613 c 1
 372 610 367 595 376 557 c 2
 420 373 l 2
 424 356 436 357 446 370 c 2
 598 564 l 2
 621 594 607 610 565 613 c 1
 561 619 566 641 574 647 c 1
 612 646 658 645 680 645 c 0
 702 645 741 646 770 647 c 1
 774 641 768 619 760 613 c 1
 716 609 695 605 662 565 c 2
 475 351 l 2
 456 330 446 308 434 268 c 2
 390 122 l 2
EndSplineSet
MultipleSubs2: "'c2sc' Capitals to Small Capitals lookup 12 subtable" y.sc
Position2: "'cpsp' Capital Spacing lookup 2 per glyph data 0" dx=2 dy=0 dh=5 dv=1
EndChar

StartChar: Z
Encoding: 90 90 59
Width: 598
GlyphClass: 2
Flags: MW
HStem: -8 21G<511 512> 0 44<199 290> 602 43<452 530> 633 20G<230 231>
VStem: 22 667
AnchorPoint: "Anchor-6" 275 4 basechar 0
AnchorPoint: "Anchor-3" 263 -107 basechar 0
AnchorPoint: "Anchor-0" 372 803 basechar 0
LayerCount: 2
Fore
SplineSet
391 44 m 2x68
 454 44 516 97 559 177 c 1
 571 177 586 176 595 172 c 1
 571 112 533 25 517 -5 c 0
 517 -6 513 -8 511 -8 c 0xa8
 475 -5 364 0 290 0 c 2
 3 0 l 2
 -10 0 -13 5 -10 15 c 0
 -8 22 -4 30 4 38 c 2
 525 579 l 2
 535 589 547 602 530 602 c 2
 346 602 l 2x68
 283 602 229 556 186 476 c 1
 174 476 159 477 150 481 c 1
 175 529 207 605 225 650 c 0
 225 651 229 653 231 653 c 0x58
 267 650 378 645 452 645 c 2
 645 645 l 2
 672 645 696 647 708 647 c 0
 721 647 724 643 722 637 c 0
 719 626 715 620 687 591 c 2
 192 72 l 2
 174 53 169 44 199 44 c 2
 391 44 l 2x68
EndSplineSet
MultipleSubs2: "'c2sc' Capitals to Small Capitals lookup 12 subtable" z.sc
Position2: "'cpsp' Capital Spacing lookup 2 per glyph data 0" dx=2 dy=0 dh=5 dv=1
EndChar

StartChar: bracketleft
Encoding: 91 91 60
Width: 397
GlyphClass: 2
Flags: MW
HStem: -193 30 673 30
VStem: 32 434
LayerCount: 2
Fore
SplineSet
-15 -193 m 1
 269 703 l 1
 508 703 l 1
 512 697 513 679 505 673 c 1
 365 663 342 648 314 561 c 2
 120 -50 l 2
 93 -137 105 -152 239 -163 c 1
 243 -169 238 -187 230 -193 c 1
 -15 -193 l 1
EndSplineSet
MultipleSubs2: "'c2sc' Capitals to Small Capitals lookup 12 subtable" bracketleft.sc
Substitution2: "'case' Case-Sensitive Forms lookup 8 subtable" bracketleft.sc
EndChar

StartChar: backslash
Encoding: 92 92 61
Width: 307
GlyphClass: 2
Flags: MW
HStem: 678 20G<162 227 227 227>
VStem: 123 191
LayerCount: 2
Fore
SplineSet
227 698 m 1
 275 -48 l 1
 210 -48 l 1
 162 698 l 1
 227 698 l 1
EndSplineSet
EndChar

StartChar: bracketright
Encoding: 93 93 62
Width: 397
GlyphClass: 2
Flags: MW
HStem: -193 30 673 30
VStem: 40 433
LayerCount: 2
Fore
SplineSet
520 703 m 1
 236 -193 l 1
 -3 -193 l 1
 -7 -187 -8 -169 0 -163 c 1
 140 -153 164 -138 191 -51 c 2
 385 560 l 2
 412 647 401 662 266 673 c 1
 262 679 267 697 275 703 c 1
 520 703 l 1
EndSplineSet
MultipleSubs2: "'c2sc' Capitals to Small Capitals lookup 12 subtable" bracketright.sc
Substitution2: "'case' Case-Sensitive Forms lookup 8 subtable" bracketright.sc
EndChar

StartChar: asciicircum
Encoding: 94 94 63
Width: 518
GlyphClass: 2
Flags: MW
HStem: 630 20G<343 382 382 382>
VStem: 140 278
LayerCount: 2
Fore
SplineSet
335 569 m 1
 178 346 l 1
 124 346 l 1
 343 650 l 1
 382 650 l 1
 402 346 l 1
 348 346 l 1
 335 569 l 1
EndSplineSet
EndChar

StartChar: underscore
Encoding: 95 95 64
Width: 486
GlyphClass: 2
Flags: MW
HStem: -154 44<-13 453 -24 465>
VStem: -22 485
LayerCount: 2
Fore
SplineSet
465 -110 m 1
 453 -154 l 1
 -24 -154 l 1
 -13 -110 l 1
 465 -110 l 1
EndSplineSet
EndChar

StartChar: grave
Encoding: 96 96 65
Width: 392
GlyphClass: 2
Flags: MW
HStem: 678 20G<309 309>
VStem: 214 138
LayerCount: 2
Fore
SplineSet
309 698 m 2
 344 573 l 2
 345 567 346 562 346 558 c 0
 346 555 345 552 344 549 c 0
 342 544 333 538 326 538 c 0
 319 538 314 543 303 558 c 2
 219 667 l 1
 224 677 l 1
 236 683 260 701 296 701 c 0
 301 701 306 700 309 698 c 2
EndSplineSet
EndChar

StartChar: a
Encoding: 97 97 66
Width: 558
GlyphClass: 2
Flags: MW
HStem: -10 95<121.5 246> 397 42<360.5 392.5> 411 20G<469 481> 416 20G<522 537.5>
VStem: 75 125 338 121
AnchorPoint: "Anchor-6" 156 -3 basechar 0
AnchorPoint: "Anchor-5" 392 16 basechar 0
AnchorPoint: "Anchor-3" 140 -108 basechar 0
AnchorPoint: "Anchor-0" 386 647 basechar 0
LayerCount: 2
Fore
SplineSet
531 436 m 0x9c
 544 436 551 429 550 415 c 0x9c
 548 398 532 360 519 320 c 2
 456 124 l 2
 452 110 446 94 445 81 c 0
 444 71 446 63 454 63 c 0
 464 63 500 80 529 110 c 1
 543 110 553 91 555 82 c 1
 503 23 437 -10 367 -10 c 0
 337 -10 327 3 321 23 c 0
 320 29 319 38 320 47 c 0
 322 64 328 86 335 107 c 2
 342 125 l 1
 338 127 l 1
 269 38 201 -10 158 -10 c 0
 85 -10 58 49 65 118 c 0
 73 192 109 259 160 316 c 0
 222 386 308 439 392 439 c 0xcc
 432 439 429 436 456 433 c 0
 461 432 466 431 472 431 c 0xac
 490 431 513 436 531 436 c 0x9c
366 226 m 1
 398 290 414 378 414 378 c 1
 413 391 403 397 382 397 c 0
 339 397 296 363 262 315 c 0
 226 263 198 196 192 138 c 0
 189 108 199 85 230 85 c 0xcc
 262 85 308 136 366 226 c 1
EndSplineSet
MultipleSubs2: "'smcp' Lowercase to Small Capitals lookup 10 subtable" a.sc
Substitution2: "'subs' Subscript lookup 7 subtable" uni2090
Substitution2: "'sups' Superscript lookup 6 subtable" uni1D43
Substitution2: "Single Substitution lookup 4 subtable" uni1D43
Substitution2: "Single Substitution lookup 3 subtable" uni2090
EndChar

StartChar: b
Encoding: 98 98 67
Width: 521
GlyphClass: 2
Flags: MW
HStem: -10 42<128 266> 352 87<366.5 503.5> 678 20G<340.5 367.5>
VStem: 106 120 216 133 422 129
AnchorPoint: "Anchor-3" 166 -108 basechar 0
LayerCount: 2
Fore
SplineSet
278 336 m 1xec
 280 335 l 1xec
 319 376 390 439 459 439 c 0
 548 439 553 369 549 328 c 0
 538 225 489 148 399 74 c 0
 314 3 233 -10 173 -10 c 0xf4
 83 -10 64 55 85 118 c 2
 233 563 l 2
 256 632 241 638 179 638 c 1
 177 647 180 660 187 672 c 1
 231 679 325 698 356 698 c 0
 379 698 385 686 383 665 c 0
 381 645 369 616 359 583 c 2
 278 336 l 1xec
259 278 m 1
 210 127 l 2xf4
 188 59 192 32 228 32 c 0
 304 32 402 156 417 301 c 0
 419 319 420 352 390 352 c 0
 343 352 312 331 259 278 c 1
EndSplineSet
MultipleSubs2: "'smcp' Lowercase to Small Capitals lookup 10 subtable" b.sc
Substitution2: "'subs' Subscript lookup 7 subtable" b.inferior
Substitution2: "'sups' Superscript lookup 6 subtable" uni1D47
Substitution2: "Single Substitution lookup 4 subtable" uni1D47
Substitution2: "Single Substitution lookup 3 subtable" b.inferior
EndChar

StartChar: c
Encoding: 99 99 68
Width: 434
GlyphClass: 2
Flags: MW
HStem: -10 76<178 290> 402 42<322.5 364>
VStem: 72 132
LayerCount: 2
Fore
SplineSet
407 87 m 1
 354 32 272 -10 211 -10 c 0
 145 -10 108 5 83 42 c 0
 59 78 55 136 76 201 c 0
 123 349 259 444 369 444 c 0
 470 444 504 394 487 340 c 0
 477 309 448 284 418 284 c 0
 388 284 370 304 376 331 c 0
 383 363 381 402 347 402 c 0
 298 402 248 347 212 236 c 0
 178 128 212 66 273 66 c 0
 307 66 341 81 390 118 c 1
 399 118 408 96 407 87 c 1
EndSplineSet
MultipleSubs2: "'smcp' Lowercase to Small Capitals lookup 10 subtable" c.sc
Substitution2: "'subs' Subscript lookup 7 subtable" c.inferior
Substitution2: "'sups' Superscript lookup 6 subtable" uni1D9C
Substitution2: "Single Substitution lookup 4 subtable" uni1D9C
Substitution2: "Single Substitution lookup 3 subtable" c.inferior
EndChar

StartChar: d
Encoding: 100 100 69
Width: 561
GlyphClass: 2
Flags: MW
HStem: -10 66<97 209.5> 393 46<308.5 352> 678 20G<575.5 602.5>
VStem: 58 121 334 127 451 133
AnchorPoint: "Anchor-5" 278 20 basechar 0
AnchorPoint: "Anchor-3" 174 -107 basechar 0
AnchorPoint: "Anchor-0" 250 645 basechar 0
LayerCount: 2
Fore
SplineSet
468 563 m 2xf4
 491 632 476 638 414 638 c 1
 412 647 415 660 422 672 c 1
 466 679 560 698 591 698 c 0
 614 698 620 686 618 665 c 0
 616 645 604 616 594 583 c 2xf4
 445 127 l 2
 441 113 435 97 434 84 c 0
 433 74 435 66 443 66 c 0
 453 66 489 83 518 113 c 1
 532 113 542 94 544 85 c 1
 488 30 418 -10 348 -10 c 0
 312 -10 299 13 303 47 c 0
 305 67 313 95 320 117 c 1
 318 118 l 1xf8
 249 30 198 -10 141 -10 c 0
 53 -10 27 51 35 124 c 0
 44 213 100 321 193 389 c 0
 242 425 282 439 335 439 c 0
 373 439 399 414 408 384 c 1
 408 384 l 1
 468 563 l 2xf4
369 264 m 2
 385 311 l 1
 385 316 l 1
 389 351 371 393 333 393 c 0
 247 393 170 256 159 150 c 0
 153 94 161 56 190 56 c 0
 229 56 272 104 330 194 c 0
 347 220 360 244 369 264 c 2
376 282 m 1
 378 288 380 294 381 300 c 1
 376 282 l 1
EndSplineSet
MultipleSubs2: "'smcp' Lowercase to Small Capitals lookup 10 subtable" d.sc
Substitution2: "'subs' Subscript lookup 7 subtable" d.inferior
Substitution2: "'sups' Superscript lookup 6 subtable" uni1D48
Substitution2: "Single Substitution lookup 4 subtable" uni1D48
Substitution2: "Single Substitution lookup 3 subtable" d.inferior
EndChar

StartChar: e
Encoding: 101 101 70
Width: 409
GlyphClass: 2
Flags: MW
HStem: -10 60<208.5 218.5> 398 41<310.5 340.5>
VStem: 63 129 343 113
AnchorPoint: "Anchor-5" 329 41 basechar 0
AnchorPoint: "Anchor-3" 127 -108 basechar 0
AnchorPoint: "Anchor-0" 380 645 basechar 0
LayerCount: 2
Fore
SplineSet
191 199 m 1
 189 191 188 170 187 165 c 0
 180 98 189 50 228 50 c 0
 276 50 308 66 371 124 c 1
 383 124 397 110 401 99 c 1
 334 23 252 -10 185 -10 c 0
 65 -10 46 57 55 142 c 0
 68 269 164 439 358 439 c 0
 439 439 476 404 472 369 c 0
 470 351 467 317 433 288 c 0
 396 255 320 226 191 199 c 1
359 370 m 0
 361 390 351 398 330 398 c 0
 291 398 251 378 202 237 c 1
 256 246 350 280 359 370 c 0
EndSplineSet
MultipleSubs2: "'smcp' Lowercase to Small Capitals lookup 10 subtable" e.sc
Substitution2: "'subs' Subscript lookup 7 subtable" uni2091
Substitution2: "'sups' Superscript lookup 6 subtable" uni1D49
Substitution2: "Single Substitution lookup 4 subtable" uni1D49
Substitution2: "Single Substitution lookup 3 subtable" uni2091
EndChar

StartChar: f
Encoding: 102 102 71
Width: 397
GlyphClass: 2
Flags: MW
HStem: -233 48<-16.5 -12.5> 382 47<125 222 347 428> 394 35<455 455> 656 42<458.5 497>
VStem: -102 694
AnchorPoint: "Anchor-3" 236 -111 basechar 0
AnchorPoint: "Anchor-0" 501 807 basechar 0
LayerCount: 2
Fore
SplineSet
207 382 m 1xd8
 125 382 l 2
 122 382 119 382 119 384 c 0
 119 386 125 406 126 409 c 0
 129 417 136 425 155 426 c 2
 222 429 l 1
 255 535 293 600 334 640 c 0
 374 680 431 698 486 698 c 0
 571 698 637 657 632 609 c 0
 630 587 611 555 574 555 c 0
 533 555 527 591 525 618 c 0
 523 642 511 656 483 656 c 0
 425 656 395 588 364 486 c 2
 347 429 l 1xd8
 457 429 l 2
 462 429 463 427 463 424 c 0xb8
 463 423 455 394 455 394 c 2
 452 386 437 382 428 382 c 2
 335 382 l 1
 328 359 l 2
 304 271 283 208 258 130 c 0
 200 -48 149 -111 110 -158 c 0
 67 -209 12 -233 -37 -233 c 0
 -119 -233 -147 -195 -144 -168 c 0
 -142 -148 -127 -122 -94 -122 c 0
 -71 -122 -51 -133 -40 -158 c 0
 -32 -172 -23 -185 -10 -185 c 0
 8 -185 34 -168 49 -148 c 0
 100 -79 117 43 140 141 c 0
 158 216 173 269 207 382 c 1xd8
EndSplineSet
MultipleSubs2: "'smcp' Lowercase to Small Capitals lookup 10 subtable" f.sc
Substitution2: "'subs' Subscript lookup 7 subtable" f.inferior
Substitution2: "'sups' Superscript lookup 6 subtable" uni1DA0
Substitution2: "Single Substitution lookup 4 subtable" uni1DA0
Substitution2: "Single Substitution lookup 3 subtable" f.inferior
EndChar

StartChar: g
Encoding: 103 103 72
Width: 497
GlyphClass: 2
Flags: MW
HStem: -238 38<162 241.5> -2 21G 132 40<262 312 258.5 319.5> 365 81<533.5 554> 398 48<491.5 556.5> 399 40<287.5 338.5>
VStem: -3 97 106 92 114 114 331 114 352 105
AnchorPoint: "Anchor-3" 173 -319 basechar 0
AnchorPoint: "Anchor-1" 377 550 basechar 0
AnchorPoint: "Anchor-0" 417 645 basechar 0
LayerCount: 2
Fore
SplineSet
465 291 m 0xe540
 455 192 363 132 276 132 c 0
 248 132 225 139 210 149 c 1
 199 132 196 107 200 88 c 0xe540
 205 66 250 48 327 24 c 0
 379 8 443 -35 436 -100 c 0
 426 -199 310 -238 173 -238 c 0
 92 -238 -37 -217 -28 -136 c 0xe720
 -22 -76 75 -31 131 -2 c 1
 101 9 99 39 101 56 c 0xe540
 105 91 125 132 176 165 c 1
 140 188 128 239 133 283 c 0
 141 363 213 439 325 439 c 0xe4c0
 369 439 419 428 438 402 c 1
 476 434 511 446 543 446 c 0
 570 446 587 427 585 405 c 0
 583 382 565 365 543 365 c 0xf140
 524 365 518 376 513 386 c 0
 510 392 506 398 496 398 c 0
 487 398 471 383 455 369 c 1xe940
 467 349 468 318 465 291 c 0xe540
159 -13 m 1xe720
 132 -31 76 -65 71 -113 c 0
 65 -168 106 -200 218 -200 c 0
 303 -200 325 -157 328 -127 c 0
 331 -99 327 -90 274 -64 c 0
 243 -49 177 -17 159 -13 c 1xe720
351 291 m 2xe4c0
 358 359 360 399 317 399 c 0
 258 399 254 363 249 303 c 2
 247 282 l 1
 245 263 l 2
 238 219 232 172 285 172 c 0
 339 172 344 219 349 273 c 2
 351 291 l 2xe4c0
EndSplineSet
MultipleSubs2: "'smcp' Lowercase to Small Capitals lookup 10 subtable" g.sc
Substitution2: "'subs' Subscript lookup 7 subtable" g.inferior
Substitution2: "'sups' Superscript lookup 6 subtable" uni1D4D
Substitution2: "Single Substitution lookup 4 subtable" uni1D4D
Substitution2: "Single Substitution lookup 3 subtable" g.inferior
EndChar

StartChar: h
Encoding: 104 104 73
Width: 620
GlyphClass: 2
Flags: MW
HStem: -10 21G<92 150.5 387 437> -10 73<387 500> 369 70<393.5 512.5> 419 20G<467.5 512.5> 678 20G<344.5 371.5>
VStem: 220 133 387 127 443 129
AnchorPoint: "Anchor-6" 99 9 basechar 0
AnchorPoint: "Anchor-5" 392 10 basechar 0
AnchorPoint: "Anchor-3" 242 -111 basechar 0
AnchorPoint: "Anchor-0" 447 645 basechar 0
LayerCount: 2
Fore
SplineSet
197 72 m 2x9a
 184 33 181 -10 120 -10 c 0
 64 -10 55 1 57 17 c 0
 58 27 67 48 75 72 c 2
 237 563 l 2
 260 632 245 638 183 638 c 1
 181 647 184 660 191 672 c 1
 235 679 329 698 360 698 c 0
 383 698 389 686 387 665 c 0
 385 645 373 616 363 583 c 2
 277 318 l 1
 376 419 442 439 493 439 c 0
 532 439 580 419 574 359 c 0
 572 341 565 318 553 283 c 2x9d
 498 124 l 2
 489 98 478 63 495 63 c 0
 505 63 541 80 570 110 c 1x5a
 584 110 594 91 596 82 c 1
 544 23 472 -10 402 -10 c 0
 372 -10 362 3 356 23 c 0
 352 41 362 83 373 115 c 2x9a
 427 275 l 2
 439 309 441 319 442 333 c 0
 445 364 432 369 411 369 c 0xa9
 376 369 319 312 249 232 c 1
 197 72 l 2x9a
EndSplineSet
Substitution2: "'salt' Stylistic Alternatives lookup 20 subtable" h.alt
MultipleSubs2: "'smcp' Lowercase to Small Capitals lookup 10 subtable" h.sc
Substitution2: "'subs' Subscript lookup 7 subtable" h.inferior
Substitution2: "'sups' Superscript lookup 6 subtable" uni02B0
Substitution2: "Single Substitution lookup 4 subtable" uni02B0
Substitution2: "Single Substitution lookup 3 subtable" h.inferior
EndChar

StartChar: i
Encoding: 105 105 74
Width: 342
GlyphClass: 2
Flags: MW
HStem: -10 21G<119 169> -10 73<119 233> 416 20G<289 311.5> 530 128<280.5 307.5>
VStem: 115 239
AnchorPoint: "Anchor-6" 104 12 basechar 0
AnchorPoint: "Anchor-5" 176 10 basechar 0
AnchorPoint: "Anchor-3" 91 -107 basechar 0
LayerCount: 2
Fore
SplineSet
293 320 m 2xb8
 230 124 l 2
 221 98 211 63 228 63 c 0
 238 63 274 80 303 110 c 1x78
 317 110 327 91 329 82 c 1
 277 23 204 -10 134 -10 c 0
 104 -10 94 3 88 23 c 0
 84 41 95 83 105 115 c 2
 171 321 l 2
 180 347 180 353 181 362 c 0
 182 372 177 381 165 382 c 2
 125 385 l 1
 120 394 123 415 131 423 c 1
 179 429 273 436 305 436 c 0
 318 436 325 429 324 415 c 0
 322 398 306 360 293 320 c 2xb8
228 596 m 0
 231 626 257 658 304 658 c 0
 346 658 365 622 362 592 c 0
 359 566 330 530 285 530 c 0
 245 530 225 563 228 596 c 0
EndSplineSet
Substitution2: "Single Substitution lookup 25 subtable" dotlessi
Substitution2: "'smcp' Lowercase to Small Capitals in Latin lookup 11 subtable" idotaccent.sc
Substitution2: "'smcp' Lowercase to Small Capitals lookup 9 subtable" i.sc
Substitution2: "'subs' Subscript lookup 7 subtable" i.inferior
Substitution2: "'sups' Superscript lookup 6 subtable" uni2071
Substitution2: "Single Substitution lookup 4 subtable" uni2071
Substitution2: "Single Substitution lookup 3 subtable" i.inferior
EndChar

StartChar: j
Encoding: 106 106 75
Width: 330
GlyphClass: 2
Flags: MW
HStem: -207 35<-26.5 4 -26.5 54.5> 416 20G<299 321.5> 530 128<295.5 322.5>
VStem: -95 434
LayerCount: 2
Fore
SplineSet
136 176 m 2
 181 321 l 2
 190 349 190 353 191 362 c 0
 192 372 187 381 175 382 c 2
 136 385 l 1
 131 394 134 415 142 423 c 1
 190 429 283 436 315 436 c 0
 328 436 335 429 334 415 c 0
 332 398 315 360 303 320 c 2
 278 235 l 1
 200 -8 139 -207 -30 -207 c 0
 -89 -207 -139 -191 -134 -144 c 0
 -131 -114 -108 -99 -90 -99 c 0
 -24 -99 -45 -172 -8 -172 c 0
 16 -172 35 -142 66 -56 c 0
 92 16 106 78 136 176 c 2
243 596 m 0
 246 626 272 658 319 658 c 0
 361 658 381 622 378 592 c 0
 375 566 345 530 300 530 c 0
 260 530 240 563 243 596 c 0
EndSplineSet
Substitution2: "Single Substitution lookup 25 subtable" uni0237
MultipleSubs2: "'smcp' Lowercase to Small Capitals lookup 10 subtable" j.sc
Substitution2: "'subs' Subscript lookup 7 subtable" j.inferior
Substitution2: "'sups' Superscript lookup 6 subtable" uni02B2
Substitution2: "Single Substitution lookup 4 subtable" uni02B2
Substitution2: "Single Substitution lookup 3 subtable" j.inferior
EndChar

StartChar: k
Encoding: 107 107 76
Width: 560
GlyphClass: 2
Flags: MW
HStem: -10 21G<87 145.5 375.5 421.5> -10 62<375.5 463.5> 237 36<258 264> 310 129<529.5 554> 351 88<467 563> 419 20G<525 563> 678 20G<339.5 366.5>
VStem: 86 510 215 133
AnchorPoint: "Anchor-6" 147 9 basechar 0
AnchorPoint: "Anchor-3" 233 -107 basechar 0
AnchorPoint: "Anchor-0" 494 646 basechar 0
LayerCount: 2
Fore
SplineSet
192 72 m 2xa7
 179 33 176 -10 115 -10 c 0
 59 -10 50 1 52 17 c 0
 53 27 62 48 70 72 c 2
 232 563 l 2
 255 632 240 638 178 638 c 1
 176 647 179 660 186 672 c 1
 230 679 324 698 355 698 c 0
 378 698 384 686 382 665 c 0
 380 645 368 616 358 583 c 2
 258 273 l 1
 276 276 296 290 312 303 c 2
 355 337 l 2xa680
 434 401 509 439 541 439 c 0
 585 439 603 406 600 380 c 0
 596 346 570 310 538 310 c 0xb3
 521 310 508 326 500 336 c 0
 494 345 489 351 477 351 c 0
 457 351 432 344 397 316 c 2
 340 270 l 1
 341 266 l 1
 373 257 387 233 400 202 c 0
 411 174 417 146 429 90 c 0
 434 68 438 52 458 52 c 0
 469 52 491 65 514 94 c 1x6b
 525 94 536 85 542 77 c 1
 506 16 447 -10 396 -10 c 0
 355 -10 333 21 308 93 c 0
 293 138 293 189 278 221 c 0
 274 230 268 237 260 237 c 0
 256 237 251 237 246 236 c 1
 192 72 l 2xa7
EndSplineSet
MultipleSubs2: "'smcp' Lowercase to Small Capitals lookup 10 subtable" k.sc
Substitution2: "'subs' Subscript lookup 7 subtable" k.inferior
Substitution2: "'sups' Superscript lookup 6 subtable" uni1D4F
Substitution2: "Single Substitution lookup 4 subtable" uni1D4F
Substitution2: "Single Substitution lookup 3 subtable" k.inferior
EndChar

StartChar: l
Encoding: 108 108 77
Width: 324
GlyphClass: 2
Flags: MW
HStem: -10 21G<93 146> 678 20G<338.5 365.5>
VStem: 97 127 214 133
AnchorPoint: "Anchor-6" 96 10 basechar 0
AnchorPoint: "Anchor-3" 68 -107 basechar 0
AnchorPoint: "Anchor-0" 361 890 basechar 0
LayerCount: 2
Fore
SplineSet
231 563 m 2xd0
 254 632 239 638 177 638 c 1
 175 647 178 660 185 672 c 1
 229 679 323 698 354 698 c 0
 377 698 383 686 381 665 c 0
 379 645 367 616 357 583 c 2xd0
 208 127 l 2
 204 113 198 97 197 84 c 0
 196 74 198 66 206 66 c 0
 216 66 252 83 281 113 c 1
 295 113 305 94 307 85 c 1
 251 30 181 -10 111 -10 c 0
 75 -10 62 13 66 47 c 0
 68 68 76 95 83 118 c 2xe0
 231 563 l 2xd0
EndSplineSet
MultipleSubs2: "'smcp' Lowercase to Small Capitals lookup 10 subtable" l.sc
Substitution2: "'subs' Subscript lookup 7 subtable" l.inferior
Substitution2: "'sups' Superscript lookup 6 subtable" uni02E1
Substitution2: "Single Substitution lookup 4 subtable" uni02E1
Substitution2: "Single Substitution lookup 3 subtable" l.inferior
EndChar

StartChar: m
Encoding: 109 109 78
Width: 884
GlyphClass: 2
Flags: MW
HStem: -10 21G<109 167.5 380 438.5 662 712> -10 73<662 776> 369 70<411 516.5> 416 20G<278 300.5>
VStem: 99 196 161 134 433 129 649 127 705 129
AnchorPoint: "Anchor-6" 135 9 basechar 0
AnchorPoint: "Anchor-3" 366 -105 basechar 0
AnchorPoint: "Anchor-0" 567 645 basechar 0
LayerCount: 2
Fore
SplineSet
149 243 m 2x97
 171 309 174 341 175 352 c 0
 176 364 175 381 161 382 c 2x97
 121 385 l 1
 116 394 119 415 127 423 c 1x9b
 175 429 262 436 294 436 c 0
 307 436 317 426 316 412 c 0x97
 314 395 305 353 292 311 c 1
 293 310 l 1
 396 418 445 439 497 439 c 0
 536 439 583 419 577 359 c 0
 576 353 576 347 574 341 c 1
 656 422 722 439 769 439 c 0
 808 439 855 419 849 359 c 0
 847 341 840 318 828 283 c 2xa680
 773 124 l 2
 764 98 754 63 771 63 c 0
 781 63 817 80 846 110 c 1x57
 860 110 870 91 872 82 c 1
 820 23 747 -10 677 -10 c 0
 647 -10 638 3 632 23 c 0
 628 41 638 83 649 115 c 2x97
 702 275 l 2
 714 309 716 319 717 333 c 0
 720 364 707 369 696 369 c 0
 655 369 608 324 548 258 c 1
 486 72 l 2
 473 34 469 -10 408 -10 c 0
 352 -10 343 1 345 17 c 0
 346 27 357 52 364 72 c 2
 430 275 l 2
 442 309 445 324 447 343 c 0
 449 364 440 369 429 369 c 0xa680
 393 369 341 310 269 228 c 1
 215 72 l 2
 202 34 198 -10 137 -10 c 0
 81 -10 72 1 74 17 c 0
 75 27 86 52 93 72 c 2
 149 243 l 2x97
EndSplineSet
MultipleSubs2: "'smcp' Lowercase to Small Capitals lookup 10 subtable" m.sc
Substitution2: "'subs' Subscript lookup 7 subtable" m.inferior
Substitution2: "'sups' Superscript lookup 6 subtable" uni1D50
Substitution2: "Single Substitution lookup 4 subtable" uni1D50
Substitution2: "Single Substitution lookup 3 subtable" m.inferior
EndChar

StartChar: n
Encoding: 110 110 79
Width: 614
GlyphClass: 2
Flags: MW
HStem: -10 21G<103 161.5 404 454> -10 73<404 518> 369 70<410 530.5> 416 20G<272 294.5>
VStem: 93 196 155 134 391 127 447 129
AnchorPoint: "Anchor-6" 106 9 basechar 0
AnchorPoint: "Anchor-3" 201 -111 basechar 0
AnchorPoint: "Anchor-0" 439 646 basechar 0
LayerCount: 2
Fore
SplineSet
143 243 m 2x96
 165 309 168 341 169 352 c 0
 170 364 169 381 155 382 c 2x96
 115 385 l 1
 110 394 113 415 121 423 c 1x9a
 169 429 256 436 288 436 c 0
 301 436 311 426 310 412 c 0x96
 308 395 299 353 286 311 c 1
 288 309 l 1
 391 417 447 439 511 439 c 0
 550 439 597 419 591 359 c 0
 589 341 582 318 570 283 c 2xa5
 515 124 l 2
 506 98 496 63 513 63 c 0
 523 63 559 80 588 110 c 1x56
 602 110 612 91 614 82 c 1
 562 23 489 -10 419 -10 c 0
 389 -10 380 3 374 23 c 0
 370 41 380 83 391 115 c 2x96
 444 275 l 2
 456 309 458 319 459 333 c 0
 462 364 449 369 428 369 c 0xa5
 392 369 335 310 263 228 c 1
 209 72 l 2
 195 33 192 -10 131 -10 c 0
 75 -10 66 1 68 17 c 0
 69 27 80 52 87 72 c 2
 143 243 l 2x96
EndSplineSet
MultipleSubs2: "'smcp' Lowercase to Small Capitals lookup 10 subtable" n.sc
Substitution2: "'subs' Subscript lookup 7 subtable" n.inferior
Substitution2: "'sups' Superscript lookup 6 subtable" uni207F
Substitution2: "Single Substitution lookup 4 subtable" uni207F
Substitution2: "Single Substitution lookup 3 subtable" n.inferior
EndChar

StartChar: o
Encoding: 111 111 80
Width: 479
GlyphClass: 2
Flags: MW
HStem: -10 42<132.5 288> 397 42<341 360.5>
VStem: 67 129 371 129
AnchorPoint: "Anchor-6" 206 -3 basechar 0
AnchorPoint: "Anchor-5" 352 44 basechar 0
AnchorPoint: "Anchor-3" 151 -107 basechar 0
AnchorPoint: "Anchor-2" 509 396 basechar 0
AnchorPoint: "Anchor-0" 403 645 basechar 0
LayerCount: 2
Fore
SplineSet
61 162 m 0
 70 249 138 353 237 405 c 0
 274 425 318 439 364 439 c 0
 487 439 515 353 507 281 c 0
 493 146 412 58 320 14 c 0
 288 -1 237 -10 196 -10 c 0
 69 -10 54 98 61 162 c 0
191 170 m 0
 179 58 207 32 236 32 c 0
 340 32 367 177 376 260 c 0
 382 318 387 397 334 397 c 0
 233 397 202 270 191 170 c 0
EndSplineSet
MultipleSubs2: "'smcp' Lowercase to Small Capitals lookup 10 subtable" o.sc
Substitution2: "'subs' Subscript lookup 7 subtable" uni2092
Substitution2: "'sups' Superscript lookup 6 subtable" uni1D52
Substitution2: "Single Substitution lookup 4 subtable" uni1D52
Substitution2: "Single Substitution lookup 3 subtable" uni2092
EndChar

StartChar: p
Encoding: 112 112 81
Width: 518
GlyphClass: 2
Flags: HMW
HStem: -234 21G -10 42<275 315 275 346> 377 67<205 232 205 232 317 319>
VStem: 125 105<-110 7 65 309 309 321 321 338> 374 113<168 265 164 268>
AnchorPoint: "Anchor-6" 288 215 basechar 0
AnchorPoint: "Anchor-3" 567 580 basechar 0
AnchorPoint: "Anchor-2" 39 -319 basechar 0
AnchorPoint: "Anchor-0" 463 646 basechar 0
LayerCount: 2
Fore
SplineSet
184 309 m 2
 204 366 200 374 159 379 c 1
 161 385 163 405 168 411 c 1
 227 420 296 434 329 444 c 0
 341 444 343 439 340 427 c 2
 340 427 335 405 327 377 c 1
 332 377 l 1
 371 409 435 444 458 444 c 0
 500 444 539 429 554 394 c 0
 572 355 576 280 556 224 c 0
 505 77 367 -10 244 -10 c 0
 224 -10 210 -4 196 7 c 1
 152 -110 l 2
 121 -193 129 -196 179 -200 c 1
 181 -206 173 -228 165 -234 c 1
 130 -233 89 -232 46 -232 c 0
 3 -232 -35 -233 -69 -234 c 1
 -71 -228 -63 -206 -55 -200 c 1
 -2 -195 3 -193 34 -110 c 2
 184 309 l 2
217 65 m 1
 227 38 266 26 275 26 c 4
 345 26 399 126 430 210 c 0
 471 327 441 377 408 377 c 0
 389 377 347 364 313 338 c 1
 309 321 l 1
 217 65 l 1
EndSplineSet
MultipleSubs2: "'smcp' Lowercase to Small Capitals lookup 10 subtable" p.sc
Substitution2: "'subs' Subscript lookup 7 subtable" p.inferior
Substitution2: "'sups' Superscript lookup 6 subtable" uni1D56
Substitution2: "Single Substitution lookup 4 subtable" uni1D56
Substitution2: "Single Substitution lookup 3 subtable" p.inferior
EndChar

StartChar: q
Encoding: 113 113 82
Width: 531
GlyphClass: 2
Flags: MW
HStem: -235 21G<438 438> -233 26 -233 30 -10 54<142 250.5> 393 46<356 393> 422 20G<559.5 577.5>
VStem: 64 129 405 144
AnchorPoint: "Anchor-3" 150 -110 basechar 0
AnchorPoint: "Anchor-0" 429 645 basechar 0
LayerCount: 2
Fore
SplineSet
270 -161 m 2x5a
 364 99 l 1
 361 100 l 1
 290 14 238 -10 189 -10 c 0
 95 -10 61 72 69 147 c 0
 80 247 143 336 218 388 c 0
 272 424 334 439 378 439 c 0
 419 439 449 418 469 386 c 1x3b
 510 420 l 2
 530 436 556 442 563 442 c 0
 592 442 586 419 574 384 c 2
 389 -161 l 2
 377 -195 403 -200 418 -202 c 2
 437 -205 l 2
 441 -206 443 -208 442 -213 c 2
 440 -233 l 1
 438 -235 l 1
 438 -235 327 -233 288 -233 c 0x37
 252 -233 182 -238 182 -238 c 1
 180 -236 l 1
 182 -217 l 2
 183 -211 188 -210 193 -209 c 2
 213 -206 l 2
 246 -201 260 -189 270 -161 c 2x5a
428 320 m 0
 432 361 411 393 375 393 c 0
 273 393 212 277 196 128 c 0
 190 72 208 44 232 44 c 0
 269 44 348 115 378 180 c 0
 403 236 426 304 428 320 c 0
EndSplineSet
MultipleSubs2: "'smcp' Lowercase to Small Capitals lookup 10 subtable" q.sc
Substitution2: "'subs' Subscript lookup 7 subtable" q.inferior
Substitution2: "'sups' Superscript lookup 6 subtable" q.superior
Substitution2: "Single Substitution lookup 4 subtable" q.superior
Substitution2: "Single Substitution lookup 3 subtable" q.inferior
EndChar

StartChar: r
Encoding: 114 114 83
Width: 426
GlyphClass: 2
Flags: MW
HStem: -10 21G<111 169.5> 310 129<441.5 466> 351 88<374 478> 416 20G<279 301.5> 419 20G<433.5 478>
VStem: 97 397 100 196 162 134<309 382>
AnchorPoint: "Anchor-6" 120 7 basechar 0
AnchorPoint: "Anchor-3" 87 -110 basechar 0
AnchorPoint: "Anchor-0" 365 646 basechar 0
LayerCount: 2
Fore
SplineSet
271 228 m 1x8c
 217 72 l 2
 203 33 200 -10 139 -10 c 0
 83 -10 74 1 76 17 c 0
 77 27 89 52 95 72 c 2
 150 243 l 2
 171 309 175 341 176 352 c 0
 177 364 176 381 162 382 c 2x89
 122 385 l 1
 117 394 120 415 128 423 c 1x92
 176 429 263 436 295 436 c 0
 308 436 318 426 317 412 c 0x91
 315 394 306 353 293 311 c 1
 296 309 l 1x89
 350 402 411 439 456 439 c 0
 500 439 514 406 511 380 c 0
 507 346 482 310 450 310 c 0xc4
 433 310 420 326 412 336 c 0
 406 345 400 351 388 351 c 0xa4
 360 351 328 315 271 228 c 1x8c
EndSplineSet
MultipleSubs2: "'smcp' Lowercase to Small Capitals lookup 10 subtable" r.sc
Substitution2: "'subs' Subscript lookup 7 subtable" r.inferior
Substitution2: "'sups' Superscript lookup 6 subtable" uni02B3
Substitution2: "Single Substitution lookup 4 subtable" uni02B3
Substitution2: "Single Substitution lookup 3 subtable" r.inferior
EndChar

StartChar: s
Encoding: 115 115 84
Width: 417
GlyphClass: 2
Flags: MW
HStem: -10 42<213.5 241 213.5 266> 397 42<286.5 310.5>
VStem: 122 94 300 105
AnchorPoint: "Anchor-6" 172 1 basechar 0
AnchorPoint: "Anchor-5" 269 13 basechar 0
AnchorPoint: "Anchor-4" 404 580 basechar 0
AnchorPoint: "Anchor-3" 162 -110 basechar 0
AnchorPoint: "Anchor-0" 251 645 basechar 0
LayerCount: 2
Fore
SplineSet
441 355 m 0
 442 323 412 304 398 300 c 0
 375 294 353 302 347 322 c 0
 338 356 332 397 289 397 c 0
 261 397 234 377 231 353 c 0
 226 302 272 276 297 262 c 0
 367 223 401 177 396 130 c 0
 389 67 329 -10 203 -10 c 0
 123 -10 45 19 52 87 c 0
 55 119 84 138 100 138 c 0
 130 138 147 115 158 80 c 0
 169 46 198 32 229 32 c 0
 253 32 283 54 286 81 c 0
 291 128 271 157 232 181 c 0
 170 219 127 268 132 311 c 0
 143 417 252 439 321 439 c 0
 383 439 441 404 441 355 c 0
EndSplineSet
MultipleSubs2: "'smcp' Lowercase to Small Capitals lookup 10 subtable" s.sc
Substitution2: "'subs' Subscript lookup 7 subtable" s.inferior
Substitution2: "'sups' Superscript lookup 6 subtable" uni02E2
Substitution2: "Single Substitution lookup 4 subtable" uni02E2
Substitution2: "Single Substitution lookup 3 subtable" s.inferior
EndChar

StartChar: t
Encoding: 116 116 85
Width: 367
GlyphClass: 2
Flags: MW
HStem: -10 21G<110 163> 382 47<157 205 328 364>
VStem: 108 127
AnchorPoint: "Anchor-6" 135 -3 basechar 0
AnchorPoint: "Anchor-5" 199 15 basechar 0
AnchorPoint: "Anchor-3" 92 -107 basechar 0
LayerCount: 2
Fore
SplineSet
101 118 m 2
 190 382 l 1
 157 382 l 2
 154 382 151 382 151 384 c 0
 151 386 157 406 158 409 c 0
 161 417 158 425 177 426 c 2
 205 429 l 1
 223 479 l 2
 237 517 239 552 275 561 c 0
 307 569 374 581 372 564 c 0
 371 552 348 492 342 474 c 2
 328 429 l 1
 380 429 l 1
 390 421 377 387 364 382 c 1
 313 382 l 1
 226 127 l 2
 222 113 215 97 214 84 c 0
 213 74 215 66 223 66 c 0
 233 66 269 83 298 113 c 1
 312 113 322 94 324 85 c 1
 268 30 198 -10 128 -10 c 0
 92 -10 79 13 83 47 c 0
 85 68 94 95 101 118 c 2
EndSplineSet
MultipleSubs2: "'smcp' Lowercase to Small Capitals lookup 10 subtable" t.sc
Substitution2: "'subs' Subscript lookup 7 subtable" t.inferior
Substitution2: "'sups' Superscript lookup 6 subtable" uni1D57
Substitution2: "Single Substitution lookup 4 subtable" uni1D57
Substitution2: "Single Substitution lookup 3 subtable" t.inferior
EndChar

StartChar: u
Encoding: 117 117 86
Width: 646
GlyphClass: 2
Flags: MW
HStem: -10 21G<437 487> -6 82<129 236> 370 73<197 311>
VStem: 144 128 423 121
AnchorPoint: "Anchor-6" 190 0 basechar 0
AnchorPoint: "Anchor-5" 416 7 basechar 0
AnchorPoint: "Anchor-3" 192 -111 basechar 0
AnchorPoint: "Anchor-0" 431 646 basechar 0
LayerCount: 2
Fore
SplineSet
419 107 m 2xb8
 419 107 411 80 424 122 c 1
 422 124 l 1
 319 16 262 -6 210 -6 c 0
 171 -6 123 16 129 76 c 1
 129 78 l 2
 131 95 133 116 145 150 c 2
 200 309 l 2
 209 335 219 370 202 370 c 0
 192 370 156 353 127 323 c 1
 113 323 103 342 101 351 c 1
 153 410 226 443 296 443 c 0
 326 443 335 431 341 410 c 0
 345 392 335 350 325 318 c 2
 271 158 l 2
 257 117 256 76 293 76 c 0x78
 329 76 370 123 442 205 c 1
 496 361 l 2
 509 400 513 443 574 443 c 0
 630 443 639 433 637 416 c 0
 636 406 624 381 618 361 c 2
 541 124 l 2
 537 110 531 94 530 81 c 0
 529 71 531 63 539 63 c 0
 549 63 585 80 614 110 c 1
 628 110 638 91 640 82 c 1
 588 23 522 -10 452 -10 c 0
 422 -10 412 3 406 23 c 0
 405 29 404 38 405 47 c 0
 407 64 413 86 419 107 c 2xb8
EndSplineSet
MultipleSubs2: "'smcp' Lowercase to Small Capitals lookup 10 subtable" u.sc
Substitution2: "'subs' Subscript lookup 7 subtable" u.inferior
Substitution2: "'sups' Superscript lookup 6 subtable" uni1D58
Substitution2: "Single Substitution lookup 4 subtable" uni1D58
Substitution2: "Single Substitution lookup 3 subtable" u.inferior
EndChar

StartChar: v
Encoding: 118 118 87
Width: 507
GlyphClass: 2
Flags: MW
HStem: -12 21G 419 20G<278 321.5 525.5 560>
VStem: 434 120 460 94
AnchorPoint: "Anchor-4" 543 580 basechar 0
AnchorPoint: "Anchor-3" 178 -110 basechar 0
AnchorPoint: "Anchor-0" 351 646 basechar 0
LayerCount: 2
Fore
SplineSet
299 108 m 1xd0
 308 106 l 1
 382 156 462 254 482 314 c 0xd0
 488 332 487 356 475 383 c 0
 472 387 472 398 474 403 c 0xe0
 480 431 509 439 542 439 c 0
 578 439 598 420 592 392 c 0
 584 356 566 320 543 285 c 0
 501 219 439 158 412 129 c 0
 383 97 298 -15 236 -12 c 0
 209 -11 196 23 199 58 c 2
 211 296 l 2
 215 339 209 347 203 347 c 0
 195 347 161 330 130 298 c 1
 113 302 107 312 104 326 c 1
 166 386 257 439 299 439 c 0
 344 439 342 368 335 309 c 2
 299 108 l 1xd0
EndSplineSet
MultipleSubs2: "'smcp' Lowercase to Small Capitals lookup 10 subtable" v.sc
Substitution2: "'subs' Subscript lookup 7 subtable" v.inferior
Substitution2: "'sups' Superscript lookup 6 subtable" uni1D5B
Substitution2: "Single Substitution lookup 4 subtable" uni1D5B
Substitution2: "Single Substitution lookup 3 subtable" v.inferior
EndChar

StartChar: w
Encoding: 119 119 88
Width: 729
GlyphClass: 2
Flags: MW
HStem: -12 21G<212.5 226 474 510.5> 419 20G<250 293.5 723.5 758>
VStem: 656 120 682 94
AnchorPoint: "Anchor-4" 778 580 basechar 0
AnchorPoint: "Anchor-3" 338 -110 basechar 0
AnchorPoint: "Anchor-0" 410 646 basechar 0
LayerCount: 2
Fore
SplineSet
441 218 m 1xd0
 439 219 l 1
 378 123 273 -13 226 -12 c 0
 199 -12 193 22 194 58 c 2
 198 296 l 2
 199 341 191 347 185 347 c 0
 177 347 145 330 117 298 c 1
 100 302 92 312 88 326 c 1
 144 386 229 439 271 439 c 0
 316 439 324 369 321 309 c 2
 312 139 l 1
 316 137 l 1
 349 166 411 248 464 346 c 1
 494 358 516 362 533 362 c 1
 547 314 562 181 568 108 c 1
 572 106 l 1
 633 151 679 254 693 314 c 0xd0
 697 332 694 356 679 383 c 0
 676 387 675 398 676 403 c 0xe0
 679 431 707 439 740 439 c 0
 776 439 798 420 795 392 c 0
 791 356 776 320 757 285 c 0
 722 219 680 159 656 129 c 0
 629 96 534 -12 487 -12 c 0
 461 -12 458 22 455 58 c 2
 441 218 l 1xd0
EndSplineSet
MultipleSubs2: "'smcp' Lowercase to Small Capitals lookup 10 subtable" w.sc
Substitution2: "'subs' Subscript lookup 7 subtable" w.inferior
Substitution2: "'sups' Superscript lookup 6 subtable" uni02B7
Substitution2: "Single Substitution lookup 4 subtable" uni02B7
Substitution2: "Single Substitution lookup 3 subtable" w.inferior
EndChar

StartChar: x
Encoding: 120 120 89
Width: 517
GlyphClass: 2
Flags: MW
HStem: -10 76<57 137> -10 103<57 80.5 43.5 97.5> 331 107<526.5 538.5 489.5 547> 334 105<210 295.5>
VStem: 27 541
LayerCount: 2
Fore
SplineSet
210 334 m 2x58
 206 345 195 351 182 351 c 0
 161 351 138 340 125 334 c 1
 118 342 112 362 112 373 c 1
 150 394 248 439 283 439 c 0
 308 439 313 423 327 372 c 2
 345 299 l 1
 354 311 372 333 372 333 c 2
 418 391 457 438 522 438 c 0x58
 555 438 589 422 586 390 c 0
 583 360 560 331 534 331 c 0
 519 331 499 339 490 345 c 0
 483 350 470 354 466 354 c 0
 462 354 451 351 438 336 c 2
 352 234 l 1
 399 90 l 2
 404 74 410 66 418 66 c 0xa8
 433 66 448 69 475 93 c 1
 496 67 l 1
 428 0 382 -10 340 -10 c 0
 299 -10 287 26 275 76 c 2
 263 134 l 1
 242 107 216 76 201 61 c 0
 139 -1 122 -10 73 -10 c 0
 41 -10 5 9 9 44 c 0
 12 72 25 93 62 93 c 0x58
 99 93 119 66 134 66 c 0
 140 66 151 73 167 92 c 0x98
 194 124 228 161 252 196 c 1
 240 249 210 334 210 334 c 2x58
EndSplineSet
MultipleSubs2: "'smcp' Lowercase to Small Capitals lookup 10 subtable" x.sc
Substitution2: "'subs' Subscript lookup 7 subtable" uni2093
Substitution2: "'sups' Superscript lookup 6 subtable" uni02E3
Substitution2: "Single Substitution lookup 4 subtable" uni02E3
Substitution2: "Single Substitution lookup 3 subtable" uni2093
EndChar

StartChar: y
Encoding: 121 121 90
Width: 514
GlyphClass: 2
Flags: MW
HStem: -237 21G<64 104> -237 85<64 157> 419 20G<276.5 306.5 521.5 544.5>
VStem: 439 122 466 95
AnchorPoint: "Anchor-3" 346 -107 basechar 0
AnchorPoint: "Anchor-0" 424 644 basechar 0
LayerCount: 2
Fore
SplineSet
216 338 m 0xa8
 210 349 206 351 193 351 c 0
 172 351 145 339 132 333 c 1
 125 341 119 361 119 372 c 1
 157 393 259 439 294 439 c 0
 319 439 330 418 338 365 c 0
 352 262 351 180 347 87 c 1
 350 86 l 1
 447 222 l 2
 480 269 488 310 490 332 c 0xa8
 492 353 467 375 471 410 c 0xb0
 473 432 511 439 532 439 c 0
 557 439 596 428 592 393 c 0
 587 344 570 304 525 242 c 2
 301 -70 l 2
 228 -171 134 -237 74 -237 c 0
 54 -237 7 -225 12 -179 c 0
 17 -135 47 -108 71 -108 c 0
 80 -108 102 -119 109 -128 c 0
 115 -135 138 -152 149 -152 c 0
 165 -152 197 -129 245 -62 c 0x68
 262 -32 245 290 216 338 c 0xa8
EndSplineSet
Substitution2: "'salt' Stylistic Alternatives lookup 20 subtable" y.alt
MultipleSubs2: "'smcp' Lowercase to Small Capitals lookup 10 subtable" y.sc
Substitution2: "'subs' Subscript lookup 7 subtable" y.inferior
Substitution2: "'sups' Superscript lookup 6 subtable" uni02B8
Substitution2: "Single Substitution lookup 4 subtable" uni02B8
Substitution2: "Single Substitution lookup 3 subtable" y.inferior
EndChar

StartChar: z
Encoding: 122 122 91
Width: 457
GlyphClass: 2
Flags: MW
HStem: -10 99<259 353.5> -10 130 30 90 327 86 341 98<233 256.5>
VStem: 38 457
LayerCount: 2
Fore
SplineSet
482 450 m 1x54
 496 446 508 434 516 422 c 1
 449 358 261 183 191 117 c 1x54
 221 124 243 117 261 112 c 0
 262 111 264 111 265 111 c 0
 292 102 314 89 345 89 c 0
 362 89 390 89 438 152 c 1x8c
 455 152 464 138 466 128 c 1
 404 21 331 -10 276 -10 c 0x4c
 242 -10 203 -1 178 11 c 0
 145 27 118 30 108 30 c 0x2c
 98 27 83 18 56 -12 c 1
 37 -9 20 -2 16 8 c 1
 21 17 77 71 104 96 c 2
 104 96 263 243 354 329 c 1x54
 339 329 330 327 315 327 c 0
 285 327 281 341 232 341 c 0
 203 341 147 312 132 285 c 1
 118 285 107 288 102 296 c 1
 128 354 210 439 256 439 c 0x4c
 309 439 363 429 410 415 c 0
 419 413 425 413 430 413 c 0
 438 416 447 417 482 450 c 1x54
EndSplineSet
MultipleSubs2: "'smcp' Lowercase to Small Capitals lookup 10 subtable" z.sc
Substitution2: "'subs' Subscript lookup 7 subtable" z.inferior
Substitution2: "'sups' Superscript lookup 6 subtable" uni1DBB
Substitution2: "Single Substitution lookup 4 subtable" uni1DBB
Substitution2: "Single Substitution lookup 3 subtable" z.inferior
EndChar

StartChar: braceleft
Encoding: 123 123 92
Width: 307
GlyphClass: 2
Flags: MW
HStem: -212 24<173.5 187>
VStem: 91 94 145 95
LayerCount: 2
Fore
SplineSet
354 552 m 2xc0
 310 386 l 2
 286 297 236 268 167 249 c 1
 166 245 l 1
 221 217 247 177 217 95 c 2xa0
 161 -54 l 2
 130 -138 153 -188 194 -188 c 1
 198 -194 195 -206 187 -212 c 1xc0
 92 -212 21 -179 68 -49 c 2
 127 121 l 2
 148 182 136 222 70 231 c 1
 65 239 69 254 81 263 c 1
 153 270 191 320 206 370 c 2
 259 554 l 2xa0
 291 667 394 707 478 707 c 1
 482 701 479 689 471 683 c 0
 432 672 382 655 354 552 c 2xc0
EndSplineSet
MultipleSubs2: "'c2sc' Capitals to Small Capitals lookup 12 subtable" braceleft.sc
Substitution2: "'case' Case-Sensitive Forms lookup 8 subtable" braceleft.sc
EndChar

StartChar: bar
Encoding: 124 124 93
Width: 220
GlyphClass: 2
Flags: MW
HStem: -233 21G<20 77 20 20> 678 20G<249 306 306 306>
VStem: 69 188
LayerCount: 2
Fore
SplineSet
77 -233 m 1
 20 -233 l 1
 249 698 l 1
 306 698 l 1
 77 -233 l 1
EndSplineSet
EndChar

StartChar: braceright
Encoding: 125 125 94
Width: 307
GlyphClass: 2
Flags: MW
HStem: 684 24<225 238.5>
VStem: 173 94 227 94
LayerCount: 2
Fore
SplineSet
58 -56 m 2xa0
 103 110 l 2
 126 199 176 228 245 247 c 1
 246 251 l 1
 192 279 165 319 195 401 c 2xc0
 251 550 l 2
 282 634 259 684 218 684 c 1
 214 690 217 702 225 708 c 1xa0
 320 708 391 675 344 545 c 2
 285 375 l 2
 264 314 276 274 342 265 c 1
 347 257 343 242 332 233 c 1
 260 226 221 176 206 126 c 2
 153 -58 l 2xc0
 121 -171 18 -211 -66 -211 c 1
 -70 -205 -67 -193 -59 -187 c 0
 -20 -176 30 -159 58 -56 c 2xa0
EndSplineSet
MultipleSubs2: "'c2sc' Capitals to Small Capitals lookup 12 subtable" braceright.sc
Substitution2: "'case' Case-Sensitive Forms lookup 8 subtable" braceright.sc
EndChar

StartChar: asciitilde
Encoding: 126 126 95
Width: 449
GlyphClass: 2
Flags: MW
HStem: 198 89<327.5 339> 263 89<191 222>
VStem: 63 413
LayerCount: 2
Fore
SplineSet
56 209 m 1x60
 87 274 161 352 221 352 c 0x60
 267 352 305 287 350 287 c 0
 378 287 421 289 457 339 c 1
 468 341 476 339 482 333 c 1
 421 226 351 198 327 198 c 0xa0
 274 198 248 263 196 263 c 0
 161 263 114 250 78 206 c 1
 69 202 59 204 56 209 c 1x60
EndSplineSet
EndChar

StartChar: exclamdown
Encoding: 161 161 97
Width: 266
GlyphClass: 2
Flags: MW
HStem: 305 139<227 250>
VStem: 138 146
LayerCount: 2
Fore
SplineSet
54 -224 m 0
 20 -224 -5 -200 11 -149 c 0
 22 -114 42 -76 57 -43 c 0
 103 55 148 155 164 204 c 0
 170 223 182 246 203 246 c 0
 228 246 225 226 215 192 c 0
 201 144 176 24 166 -46 c 0
 161 -81 158 -110 146 -149 c 0
 128 -205 83 -224 54 -224 c 0
312 376 m 0
 308 337 270 305 230 305 c 0
 190 305 162 335 166 374 c 0
 170 412 207 444 247 444 c 0
 287 444 316 414 312 376 c 0
EndSplineSet
MultipleSubs2: "'c2sc' Capitals to Small Capitals lookup 12 subtable" exclamdown.sc
Substitution2: "'case' Case-Sensitive Forms lookup 8 subtable" exclamdown.sc
EndChar

StartChar: cent
Encoding: 162 162 98
Width: 540
GlyphClass: 2
Flags: MW
HStem: -12 21G<220 252 220 220> 61 71 355 160<419 471.5> 472 43
VStem: 116 129
LayerCount: 2
Fore
SplineSet
409 584 m 1xe8
 441 584 l 1
 419 515 l 1
 511 510 540 454 526 411 c 0
 516 380 487 355 456 355 c 0
 426 355 407 375 413 402 c 0
 419 426 420 455 404 467 c 1
 299 137 l 1
 308 134 318 132 329 132 c 0
 356 132 394 152 444 189 c 1
 454 189 450 170 446 158 c 1
 399 108 329 69 275 62 c 1
 252 -12 l 1
 220 -12 l 1
 243 61 l 1
 185 64 151 79 128 113 c 0
 103 150 100 207 121 272 c 0
 165 412 281 504 387 514 c 1
 409 584 l 1xe8
272 152 m 1
 374 472 l 1xd8
 328 465 286 410 253 307 c 0
 230 234 241 179 272 152 c 1
EndSplineSet
EndChar

StartChar: sterling
Encoding: 163 163 99
Width: 540
GlyphClass: 2
Flags: MW
HStem: -13 69<292 311.5> 292 47<132 205 176 190 327 381> 574 40<435.5 526>
VStem: 33 527
LayerCount: 2
Fore
SplineSet
143 292 m 2
 121 292 118 296 121 303 c 2
 125 319 l 2
 128 329 142 339 176 339 c 2
 205 339 l 1
 213 363 l 2
 243 459 295 512 357 560 c 0
 407 597 464 614 515 614 c 0
 537 614 602 609 587 562 c 0
 576 528 548 505 516 505 c 0
 499 505 488 517 479 531 c 0
 470 548 478 574 458 574 c 0
 413 574 379 502 351 414 c 2
 327 339 l 1
 412 339 l 2
 430 339 440 334 438 328 c 2
 433 312 l 2
 429 298 400 292 381 292 c 2
 312 292 l 1
 275 185 213 131 169 101 c 1
 274 100 268 56 316 56 c 0
 344 56 391 77 427 112 c 1
 444 97 l 1
 410 45 347 -13 276 -13 c 0
 204 -13 168 49 126 49 c 0
 94 49 86 35 82 22 c 0
 73 -7 44 -20 26 -20 c 0
 11 -20 -1 -6 3 7 c 0
 12 35 40 60 73 76 c 0
 100 93 138 127 188 284 c 1
 190 292 l 1
 143 292 l 2
EndSplineSet
EndChar

StartChar: currency
Encoding: 164 164 100
Width: 463
GlyphClass: 2
Flags: MW
HStem: 122 55<213 244.5> 422 55<323.5 351>
VStem: 95 76 395 76
LayerCount: 2
Fore
SplineSet
226 122 m 0
 190 122 162 131 141 147 c 1
 122 129 93 103 79 89 c 1
 40 148 l 1
 103 191 l 1
 88 226 86 261 98 299 c 0
 110 338 135 374 173 409 c 1
 162 421 149 437 138 450 c 1
 208 507 l 1
 237 452 l 1
 271 468 305 477 342 477 c 0
 379 477 404 467 426 451 c 1
 447 470 479 498 493 512 c 1
 529 451 l 1
 462 406 l 1
 477 372 480 337 468 299 c 0
 456 263 432 228 396 193 c 1
 407 180 420 162 430 149 c 1
 361 91 l 1
 332 149 l 1
 298 132 263 122 226 122 c 0
174 300 m 0
 152 230 182 177 244 177 c 0
 307 177 370 231 392 299 c 0
 415 371 378 422 324 422 c 0
 263 422 196 369 174 300 c 0
EndSplineSet
EndChar

StartChar: yen
Encoding: 165 165 101
Width: 540
GlyphClass: 2
Flags: MW
HStem: -2 34 135 42<122 223 109 236 358 467> 245 42<158 258 144 269 394 501> 568 34
VStem: 118 517 238 114
LayerCount: 2
Fore
SplineSet
480 177 m 1xf8
 467 135 l 1
 345 135 l 1
 345 131 342 126 341 122 c 0
 314 39 329 35 404 32 c 1
 407 26 400 4 392 -2 c 1
 346 -1 305 0 248 0 c 0
 186 0 134 -1 88 -2 c 1
 85 4 91 26 99 32 c 1
 175 35 192 39 218 122 c 1
 223 135 l 1
 109 135 l 1
 122 177 l 1
 236 177 l 1
 258 245 l 1
 144 245 l 1
 158 287 l 1
 269 287 l 1
 270 297 267 309 263 332 c 2
 231 492 l 2
 223 543 206 565 168 568 c 1
 164 574 170 596 178 602 c 1
 206 601 269 600 306 600 c 0
 344 600 381 601 418 602 c 1
 422 596 415 574 407 568 c 1
 354 565 349 555 352 531 c 2
 373 373 l 2
 376 349 384 347 400 370 c 2
 517 531 l 2
 537 560 523 565 481 568 c 1
 478 574 485 596 493 602 c 1
 530 601 566 600 587 600 c 0
 609 600 637 601 666 602 c 1
 669 596 662 574 654 568 c 1
 612 564 584 549 555 510 c 2
 430 351 l 2
 408 323 403 312 394 287 c 1
 515 287 l 1
 501 245 l 1
 380 245 l 1
 358 177 l 1
 480 177 l 1xf8
EndSplineSet
Substitution2: "'pnum' Proportional Numbers lookup 17 subtable" Yen.fitted
EndChar

StartChar: brokenbar
Encoding: 166 166 102
Width: 220
GlyphClass: 2
Flags: MW
HStem: -201 875<-4 330 -4 330>
VStem: 42 242
LayerCount: 2
Fore
SplineSet
167 161 m 1
 52 -201 l 1
 -4 -201 l 1
 111 161 l 1
 167 161 l 1
330 674 m 1
 215 312 l 1
 159 312 l 1
 274 674 l 1
 330 674 l 1
EndSplineSet
EndChar

StartChar: section
Encoding: 167 167 103
Width: 466
GlyphClass: 2
Flags: MW
HStem: -169 35<127 175.5 127 210.5> 623 35<404.5 445.5>
VStem: 53 87 98 84 178 29 361 36 393 85 432 89
LayerCount: 2
Fore
SplineSet
366 -26 m 0xd4
 344 -95 275 -169 146 -169 c 0
 77 -169 -2 -125 26 -37 c 0
 35 -11 72 12 92 12 c 0
 132 12 139 -28 136 -39 c 0
 127 -65 109 -73 105 -87 c 0
 103 -94 100 -134 154 -134 c 0xe2
 197 -134 239 -100 260 -33 c 0
 276 18 225 55 186 83 c 0xd2
 102 145 80 197 105 276 c 0
 121 327 167 371 210 402 c 1
 200 428 196 462 209 504 c 0
 219 537 253 583 293 613 c 0
 334 643 382 658 427 658 c 0
 519 658 575 613 547 528 c 0
 538 500 501 478 479 478 c 0
 439 478 435 518 439 529 c 0
 448 560 462 561 467 577 c 0
 474 599 470 623 421 623 c 0xc9
 367 623 329 576 313 524 c 0
 298 477 321 459 357 437 c 0xd2
 445 382 509 342 469 219 c 0
 452 164 405 120 360 88 c 1
 375 53 378 14 366 -26 c 0xd4
221 381 m 1xca
 207 364 199 345 193 324 c 0
 177 275 192 229 278 176 c 0
 307 159 331 136 347 111 c 1xd4
 364 128 375 148 382 171 c 0
 409 255 358 291 252 352 c 0
 241 359 230 368 221 381 c 1xca
EndSplineSet
EndChar

StartChar: dieresis
Encoding: 168 168 104
Width: 410
GlyphClass: 2
Flags: MW
HStem: 519 109<227.5 236.5 401.5 411>
VStem: 180 103<573 573> 355 103<573 573>
LayerCount: 2
Fore
SplineSet
180 573 m 0
 185 604 213 628 242 628 c 0
 271 628 288 604 283 573 c 0
 278 543 251 519 222 519 c 0
 194 519 175 543 180 573 c 0
355 573 m 0
 360 604 387 628 416 628 c 0
 445 628 463 604 458 573 c 0
 453 543 425 519 397 519 c 0
 367 519 350 543 355 573 c 0
EndSplineSet
EndChar

StartChar: copyright
Encoding: 169 169 105
Width: 633
GlyphClass: 2
Flags: MW
HStem: 23 32<225 353.5> 158 40<340 362> 417 33<411 445.5> 557 31<386.5 514.5>
VStem: 97 30 244 80 474 18 612 30
LayerCount: 2
Fore
SplineSet
280 23 m 0
 132 23 55 151 104 306 c 0
 153 462 313 588 460 588 c 0
 607 588 684 462 635 306 c 0
 586 150 427 23 280 23 c 0
449 557 m 0
 318 557 178 445 133 306 c 0
 89 168 159 55 291 55 c 0
 420 55 562 167 606 306 c 0
 651 445 580 557 449 557 c 0
457 218 m 1
 431 188 385 158 339 158 c 0
 303 158 267 173 252 200 c 0
 236 229 236 267 248 306 c 0
 274 387 352 450 426 450 c 0
 485 450 496 436 511 430 c 1
 506 400 503 382 498 360 c 1
 493 357 486 357 479 357 c 1
 472 402 466 417 425 417 c 0
 397 417 357 392 329 305 c 0
 308 235 316 198 364 198 c 0
 408 198 431 218 445 233 c 1
 453 230 456 224 457 218 c 1
EndSplineSet
EndChar

StartChar: ordfeminine
Encoding: 170 170 106
Width: 365
GlyphClass: 2
Flags: MW
HStem: 359 46<298.5 366> 359 59<154 232> 414 20G<410 414.5> 615 27<304.5 324.5>
VStem: 124 79 290 76 327 83
LayerCount: 2
Fore
SplineSet
412 640 m 0x5a
 420 640 424 635 423 626 c 0
 422 615 412 592 404 567 c 2x3a
 365 443 l 2
 362 434 358 424 357 416 c 0
 356 409 358 405 363 405 c 0xbc
 369 405 392 415 410 434 c 1x3c
 419 434 425 423 426 417 c 1
 393 380 352 359 308 359 c 0
 289 359 283 366 279 379 c 0
 278 383 278 389 279 395 c 0
 280 406 284 419 288 432 c 2
 292 444 l 1
 290 445 l 1x5c
 246 389 204 359 177 359 c 0
 131 359 113 396 118 439 c 0
 123 486 146 528 178 564 c 0
 218 608 271 642 324 642 c 0
 349 642 347 640 364 638 c 0
 367 637 370 637 374 637 c 0
 386 637 400 640 412 640 c 0x5a
308 507 m 1
 328 547 338 603 338 603 c 2
 338 611 331 615 318 615 c 0
 291 615 263 593 242 563 c 0
 219 530 202 488 198 452 c 0
 196 433 202 418 222 418 c 0
 242 418 271 450 308 507 c 1
EndSplineSet
EndChar

StartChar: guillemotleft
Encoding: 171 171 107
Width: 555
GlyphClass: 2
Flags: MW
HStem: 23 384
VStem: 137 415
LayerCount: 2
Fore
SplineSet
313 207 m 1
 318 223 l 1
 401 284 456 323 550 407 c 1
 558 404 569 395 570 385 c 1
 509 310 460 254 418 215 c 1
 435 176 449 121 462 45 c 1
 454 35 438 26 428 23 c 1
 388 107 358 146 313 207 c 1
136 207 m 1
 142 223 l 1
 225 284 279 323 373 407 c 1
 381 404 392 395 393 385 c 1
 332 310 283 254 242 215 c 1
 258 176 272 121 285 45 c 1
 277 35 261 26 251 23 c 1
 211 107 181 146 136 207 c 1
EndSplineSet
MultipleSubs2: "'c2sc' Capitals to Small Capitals lookup 12 subtable" guillemotleft.sc
Substitution2: "'case' Case-Sensitive Forms lookup 8 subtable" guillemotleft.sc
EndChar

StartChar: logicalnot
Encoding: 172 172 108
Width: 560
GlyphClass: 2
Flags: MW
HStem: 347 54<135 530 117 617>
VStem: 109 494
LayerCount: 2
Fore
SplineSet
463 133 m 1
 530 347 l 1
 117 347 l 1
 135 401 l 1
 617 401 l 1
 532 133 l 1
 463 133 l 1
EndSplineSet
EndChar

StartChar: uni00AD
Encoding: 173 173 109
Width: 358
GlyphClass: 2
Flags: MW
HStem: 215 79<113 342 142 323>
VStem: 92 282
LayerCount: 2
Fore
SplineSet
323 215 m 2
 125 215 l 2
 101 215 89 225 90 236 c 0
 92 253 121 294 142 294 c 2
 342 294 l 2
 370 294 377 284 376 273 c 0
 375 260 346 215 323 215 c 2
EndSplineSet
EndChar

StartChar: registered
Encoding: 174 174 110
Width: 633
GlyphClass: 2
Flags: MW
HStem: 23 32<225 353.5> 166 17 169 18 285 24<336 358.5> 296 13 423 24 427 20<403 424> 557 31<386.5 514.5>
VStem: 97 30 426 58 429 55 612 30
LayerCount: 2
Fore
SplineSet
280 23 m 0xb3b0
 132 23 55 151 104 306 c 0
 153 462 313 588 460 588 c 0
 607 588 684 462 635 306 c 0
 586 150 427 23 280 23 c 0xb3b0
449 557 m 0
 318 557 178 445 133 306 c 0
 89 168 159 55 291 55 c 0
 420 55 562 167 606 306 c 0
 651 445 580 557 449 557 c 0
491 372 m 0xabb0
 475 320 413 296 413 296 c 1
 432 214 l 2
 437 192 445 183 460 183 c 1
 456 170 l 1
 446 167 437 166 433 166 c 0
 405 166 383 178 381 204 c 1xcbb0
 361 282 l 2
 358 284 341 285 336 285 c 1
 307 194 l 2
 305 189 306 187 312 187 c 2
 323 187 l 2
 331 187 332 185 331 181 c 2
 327 167 l 1
 327 167 277 169 264 169 c 2
 210 167 l 1
 215 181 l 2
 216 185 221 187 228 187 c 2
 239 187 l 2
 244 187 246 188 248 195 c 2
 317 413 l 2
 319 418 320 424 317 424 c 2
 302 423 l 2
 295 423 294 425 295 429 c 2xb5b0
 298 442 l 1
 319 445 356 447 425 447 c 0
 496 447 500 402 491 372 c 0xabb0
433 372 m 0xb3d0
 444 406 440 427 408 427 c 0
 398 427 385 426 380 424 c 1
 344 309 l 1
 373 309 412 310 433 372 c 0xb3d0
EndSplineSet
EndChar

StartChar: macron
Encoding: 175 175 111
Width: 397
GlyphClass: 2
Flags: MW
HStem: 529 44<158.5 428 184 407>
VStem: 154 284
LayerCount: 2
Fore
SplineSet
407 529 m 2
 162 529 l 2
 155 529 152 534 153 540 c 0
 153 541 153 542 154 544 c 0
 157 556 172 573 184 573 c 2
 428 573 l 2
 437 573 440 567 439 562 c 2
 439 559 l 2
 436 547 419 529 407 529 c 2
EndSplineSet
EndChar

StartChar: degree
Encoding: 176 176 112
Width: 255
GlyphClass: 2
Flags: MW
HStem: 458 38<210.5 245> 620 38<247 282.5>
VStem: 144 45 303 45
LayerCount: 2
Fore
SplineSet
276 658 m 0
 325 658 355 622 350 576 c 0
 343 512 274 458 216 458 c 0
 167 458 137 494 142 540 c 0
 149 604 218 658 276 658 c 0
304 571 m 0
 307 595 298 620 267 620 c 0
 226 620 192 583 188 544 c 0
 185 519 196 496 225 496 c 0
 266 496 300 532 304 571 c 0
EndSplineSet
EndChar

StartChar: plusminus
Encoding: 177 177 113
Width: 527
GlyphClass: 2
Flags: MW
HStem: 8 79<75 441 46 470> 300 74<165 298 142 322 400 533 165 376>
VStem: 74 471
LayerCount: 2
Fore
SplineSet
400 374 m 1
 556 374 l 1
 533 300 l 1
 376 300 l 1
 324 137 l 1
 247 137 l 1
 298 300 l 1
 142 300 l 1
 165 374 l 1
 322 374 l 1
 374 538 l 1
 451 538 l 1
 400 374 l 1
470 87 m 1
 441 8 l 1
 46 8 l 1
 75 87 l 1
 470 87 l 1
EndSplineSet
EndChar

StartChar: uni00B2
Encoding: 178 178 114
Width: 340
GlyphClass: 2
Flags: MW
HStem: 364 57<213 290 290 304.5 213 333> 679 30<309 323>
VStem: 183 72 331 85
LayerCount: 2
Fore
SplineSet
192 626 m 0
 201 654 268 709 342 709 c 0
 367 709 399 708 416 689 c 0
 430 673 432 654 422 622 c 0
 414 598 403 580 374 556 c 0
 355 541 327 519 304 503 c 2
 253 466 l 2
 231 451 218 434 213 421 c 1
 290 421 l 2
 319 421 352 453 371 483 c 1
 382 483 393 481 396 477 c 1
 380 438 351 393 333 364 c 1
 111 364 l 1
 124 406 160 445 203 479 c 2
 276 533 l 2
 309 557 328 586 335 608 c 0
 343 632 344 651 340 664 c 0
 338 674 327 679 319 679 c 0
 299 679 286 674 278 661 c 0
 276 657 272 644 269 638 c 2
 264 623 l 2
 264 619 262 615 260 612 c 0
 252 596 231 583 211 583 c 0
 186 583 184 601 192 626 c 0
EndSplineSet
EndChar

StartChar: uni00B3
Encoding: 179 179 115
Width: 340
GlyphClass: 2
Flags: MW
HStem: 359 30<206.5 220.5> 679 30<304.5 323.5>
VStem: 313 92 331 82
LayerCount: 2
Fore
SplineSet
216 389 m 0xe0
 252 389 303 440 308 489 c 0
 311 521 287 530 253 530 c 0
 244 530 232 529 219 526 c 1xe0
 228 556 l 1
 273 562 338 595 343 647 c 0
 345 668 332 679 315 679 c 0
 294 679 267 663 258 640 c 0
 254 626 235 600 208 600 c 0
 186 600 183 613 184 622 c 0
 184 625 186 627 186 628 c 0
 192 647 243 709 340 709 c 0
 395 709 429 687 425 652 c 0xd0
 421 617 392 592 357 571 c 0
 356 570 355 569 355 568 c 2
 355 568 354 567 355 567 c 0
 382 558 406 542 402 504 c 0
 397 455 366 421 329 397 c 0
 290 373 243 359 198 359 c 0
 154 359 101 368 105 403 c 0
 107 424 129 445 152 445 c 0
 179 445 179 417 183 408 c 0
 188 399 197 389 216 389 c 0xe0
EndSplineSet
EndChar

StartChar: acute
Encoding: 180 180 116
Width: 341
GlyphClass: 2
Flags: MW
HStem: 505 171<87 239>
VStem: 86 189
LayerCount: 2
Fore
SplineSet
208 674 m 2
 211 675 219 676 224 676 c 0
 254 676 269 662 275 652 c 1
 279 629 l 1
 133 521 l 2
 117 509 101 505 91 505 c 0
 83 505 76 513 78 519 c 0
 80 525 84 534 92 543 c 2
 208 674 l 2
EndSplineSet
EndChar

StartChar: mu
Encoding: 181 181 117
Width: 589
GlyphClass: 2
Flags: MW
HStem: -232 21G<66 90> -10 63<243.5 259> -3 21G 414 20G<208 208 488 488>
VStem: 381 125 569 11
AnchorPoint: "Anchor-5" 523 19 basechar 0
LayerCount: 2
Fore
SplineSet
375 49 m 1xdc
 367 48 l 1
 318 15 285 -10 233 -10 c 0xdc
 218 -10 202 -9 191 -3 c 1
 183 -35 171 -67 167 -96 c 0xbc
 164 -122 161 -151 155 -168 c 0
 141 -211 105 -232 75 -232 c 0
 57 -232 15 -206 29 -163 c 0
 36 -142 46 -118 58 -92 c 0
 70 -66 83 -40 95 -4 c 0
 99 10 103 26 108 46 c 0
 114 72 116 112 124 137 c 2
 184 323 l 2
 192 348 208 434 208 434 c 1
 342 447 l 1
 342 447 322 375 312 343 c 2
 253 160 l 2
 233 97 227 53 260 53 c 0
 298 53 352 68 382 98 c 1
 488 434 l 1
 615 448 l 1
 513 127 l 2
 498 78 501 60 522 60 c 0
 540 60 550 64 565 74 c 1
 574 64 577 58 573 46 c 1
 527 11 481 -10 429 -10 c 0
 388 -10 369 8 375 49 c 1xdc
EndSplineSet
EndChar

StartChar: paragraph
Encoding: 182 182 118
Width: 602
GlyphClass: 2
Flags: MW
HStem: -234 27<319 341.5 319 485> -234 28<171 200 458 485 157 200> 616 25<545.5 562> 618 28
VStem: 100 587
LayerCount: 2
Fore
SplineSet
436 -144 m 2x58
 431 -159 430 -171 429 -179 c 0
 427 -202 436 -205 458 -206 c 2
 488 -206 l 2
 492 -206 492 -209 491 -213 c 2
 485 -234 l 1
 157 -234 l 1
 163 -213 l 2
 165 -208 167 -206 171 -206 c 2
 200 -206 l 2
 233 -205 242 -195 256 -143 c 2
 360 227 l 1
 344 220 312 215 280 215 c 0
 207 215 105 251 119 385 c 0
 121 402 123 420 128 439 c 0
 163 562 257 646 390 646 c 0x58
 465 646 525 641 552 641 c 0x68
 587 641 622 644 622 644 c 1
 733 646 l 1
 727 625 l 2
 726 621 723 618 719 618 c 2
 689 618 l 2
 654 618 646 602 633 556 c 2
 436 -144 l 2x58
327 -207 m 0xa8
 356 -207 365 -187 377 -145 c 2
 575 556 l 2
 578 570 580 581 581 589 c 0
 584 614 574 615 562 616 c 0
 529 616 519 584 511 553 c 2
 315 -143 l 2
 312 -153 310 -164 309 -174 c 0
 307 -192 311 -207 327 -207 c 0xa8
EndSplineSet
EndChar

StartChar: periodcentered
Encoding: 183 183 119
Width: 322
GlyphClass: 2
Flags: MW
HStem: 177 162<204 231>
VStem: 135 164<258 258>
LayerCount: 2
Fore
SplineSet
208 177 m 0
 159 177 131 216 135 258 c 0
 139 300 182 339 226 339 c 0
 267 339 304 304 299 258 c 0
 294 215 254 177 208 177 c 0
EndSplineSet
EndChar

StartChar: cedilla
Encoding: 184 184 120
Width: 541
GlyphClass: 2
Flags: MW
HStem: -215 29<245 270 245 275.5>
VStem: 319 66
LayerCount: 2
Fore
SplineSet
236 -101 m 1
 232 -95 l 1
 309 7 l 1
 343 7 l 1
 311 -41 l 1
 354 -50 397 -70 383 -125 c 0
 371 -175 308 -215 243 -215 c 0
 211 -215 206 -209 184 -198 c 1
 186 -188 191 -176 200 -172 c 1
 225 -182 235 -186 255 -186 c 0
 285 -186 308 -172 315 -145 c 0
 325 -107 272 -103 236 -101 c 1
EndSplineSet
EndChar

StartChar: uni00B9
Encoding: 185 185 121
Width: 340
GlyphClass: 2
Flags: MW
HStem: 363 30 638 20G
VStem: 149 225
LayerCount: 2
Fore
SplineSet
273 640 m 0
 261 640 241 634 214 625 c 1
 209 631 211 646 215 658 c 1
 265 675 312 691 362 714 c 0
 367 717 389 719 392 714 c 1
 307 449 l 2
 292 398 311 395 342 393 c 1
 343 385 338 370 332 363 c 1
 304 364 275 364 239 364 c 0
 206 364 159 364 131 363 c 1
 129 369 134 385 141 393 c 1
 179 395 209 398 225 449 c 2
 273 599 l 2
 282 631 284 640 273 640 c 0
EndSplineSet
EndChar

StartChar: ordmasculine
Encoding: 186 186 122
Width: 368
GlyphClass: 2
Flags: MW
HStem: 358 33<185.5 226.5 185.5 239> 592 29<244.5 289.5>
VStem: 97 80 298 79
LayerCount: 2
Fore
SplineSet
99 484 m 0
 126 569 208 621 281 621 c 0
 308 621 328 618 347 604 c 0
 379 580 389 533 374 490 c 0
 353 422 286 358 192 358 c 0
 110 358 75 412 99 484 c 0
266 592 m 0
 219 592 202 548 184 494 c 0
 169 445 157 391 214 391 c 0
 239 391 264 402 287 474 c 0
 312 554 313 592 266 592 c 0
EndSplineSet
EndChar

StartChar: guillemotright
Encoding: 187 187 123
Width: 555
GlyphClass: 2
Flags: MW
HStem: 23 384
VStem: 92 415
LayerCount: 2
Fore
SplineSet
508 223 m 1
 502 207 l 1
 420 146 365 107 271 23 c 1
 263 26 252 35 251 45 c 1
 312 121 361 176 403 215 c 1
 386 254 372 310 359 385 c 1
 367 395 383 404 393 407 c 1
 433 323 463 284 508 223 c 1
331 223 m 1
 326 207 l 1
 243 146 188 107 95 23 c 1
 86 26 76 35 74 45 c 1
 135 121 184 176 226 215 c 1
 209 254 195 310 182 385 c 1
 190 395 207 404 216 407 c 1
 256 323 286 284 331 223 c 1
EndSplineSet
MultipleSubs2: "'c2sc' Capitals to Small Capitals lookup 12 subtable" guillemotright.sc
Substitution2: "'case' Case-Sensitive Forms lookup 8 subtable" guillemotright.sc
EndChar

StartChar: onequarter
Encoding: 188 188 124
Width: 700
GlyphClass: 2
Flags: MW
HStem: -136 30 -29 42<413 490 581 621> 314 30 581 20G<694 694> 589 20G
VStem: 109 606 518 72
LayerCount: 2
Fore
SplineSet
561 -50 m 2xf2
 545 -101 559 -104 590 -106 c 1
 591 -114 587 -129 581 -136 c 1
 553 -135 519 -135 480 -135 c 0
 446 -135 418 -135 389 -136 c 1
 388 -130 391 -114 399 -106 c 1
 437 -104 467 -101 483 -50 c 2
 490 -29 l 1
 352 -29 l 1
 345 -17 l 1
 408 49 531 162 588 219 c 1
 635 219 l 2
 640 219 646 218 643 209 c 2
 581 13 l 1
 637 13 l 1
 621 -29 l 1
 568 -29 l 1
 561 -50 l 2xf2
694 601 m 1
 749 588 l 1xec
 128 -67 l 1
 75 -54 l 1
 694 601 l 1
293 591 m 0
 281 591 262 585 235 576 c 1
 230 582 232 597 236 609 c 1
 286 626 333 642 383 665 c 0
 388 668 410 670 413 665 c 1
 328 400 l 2
 313 349 331 346 362 344 c 1
 363 336 359 321 353 314 c 1
 325 315 296 315 260 315 c 0
 227 315 180 315 152 314 c 1
 150 320 154 336 161 344 c 1
 199 346 230 349 246 400 c 2
 294 550 l 2
 303 582 304 591 293 591 c 0
543 140 m 1
 413 13 l 1
 503 13 l 1
 516 55 530 98 543 140 c 1
EndSplineSet
EndChar

StartChar: onehalf
Encoding: 189 189 125
Width: 700
GlyphClass: 2
Flags: MW
HStem: -79 57<510 587 587 601.5 510 630> 236 30<606 620> 314 30 581 20G<691 691> 589 20G
VStem: 649 85
LayerCount: 2
Fore
SplineSet
489 183 m 0xec
 498 211 565 266 639 266 c 0
 664 266 696 265 713 246 c 0
 727 230 729 211 719 179 c 0
 711 155 700 137 671 113 c 0
 652 98 624 76 601 60 c 2
 549 23 l 2
 527 8 515 -9 510 -22 c 1
 587 -22 l 2
 616 -22 649 10 668 40 c 1
 679 40 690 38 693 34 c 1
 677 -5 648 -50 630 -79 c 1
 408 -79 l 1
 421 -37 457 2 500 36 c 2
 573 90 l 2
 606 114 624 143 631 165 c 0
 639 189 641 208 637 221 c 0
 635 231 624 236 616 236 c 0
 596 236 583 231 575 218 c 0
 573 214 569 201 566 195 c 2
 561 180 l 2
 560 176 559 172 557 169 c 0
 549 153 528 140 508 140 c 0
 483 140 481 158 489 183 c 0xec
691 601 m 1xf4
 746 588 l 1xec
 125 -67 l 1
 72 -54 l 1
 691 601 l 1xf4
292 591 m 0
 280 591 261 585 234 576 c 1
 229 582 231 597 235 609 c 1
 285 626 332 642 382 665 c 0
 387 668 409 670 412 665 c 1
 327 400 l 2
 312 349 330 346 361 344 c 1
 362 336 358 321 352 314 c 1
 324 315 295 315 259 315 c 0
 226 315 179 315 151 314 c 1
 149 320 153 336 160 344 c 1
 198 346 229 349 245 400 c 2
 293 550 l 2
 302 582 303 591 292 591 c 0
EndSplineSet
EndChar

StartChar: threequarters
Encoding: 190 190 126
Width: 700
GlyphClass: 2
Flags: MW
HStem: -134 30 -27 42<418 495 586 626> 308 30<227.5 241.5> 581 20G<695 695> 628 30<325.5 344.5>
VStem: 311 92 329 82 522 72
LayerCount: 2
Fore
SplineSet
565 -48 m 2xed
 549 -99 564 -102 595 -104 c 1
 596 -112 591 -127 585 -134 c 1
 557 -133 523 -133 484 -133 c 0
 450 -133 422 -133 393 -134 c 1
 392 -128 396 -112 404 -104 c 1
 442 -102 471 -99 487 -48 c 2
 495 -27 l 1
 357 -27 l 1
 350 -15 l 1
 413 51 536 164 593 221 c 1
 640 221 l 2
 645 221 651 220 648 211 c 2
 586 15 l 1
 642 15 l 1
 626 -27 l 1
 573 -27 l 1
 565 -48 l 2xed
237 338 m 0
 273 338 324 389 329 438 c 0
 332 470 308 479 274 479 c 0
 265 479 253 478 240 475 c 1xed
 250 505 l 1
 295 511 359 544 364 596 c 0
 366 617 353 628 336 628 c 0
 315 628 288 612 279 589 c 0
 275 575 256 549 229 549 c 0
 207 549 204 562 205 571 c 0
 205 574 207 576 207 577 c 0
 213 596 265 658 362 658 c 0
 417 658 451 636 447 601 c 0xeb
 443 566 413 541 378 520 c 0
 377 519 376 518 376 517 c 2
 376 517 376 516 377 516 c 0
 404 507 427 491 423 453 c 0
 418 404 387 370 350 346 c 0
 311 322 264 308 219 308 c 0
 175 308 122 317 126 352 c 0
 128 373 150 394 173 394 c 0
 200 394 200 366 204 357 c 0
 209 348 218 338 237 338 c 0
695 601 m 1xfd
 749 588 l 1
 128 -67 l 1
 76 -54 l 1
 695 601 l 1xfd
547 142 m 1
 418 15 l 1
 508 15 l 1
 521 57 534 100 547 142 c 1
EndSplineSet
EndChar

StartChar: questiondown
Encoding: 191 191 127
Width: 430
GlyphClass: 2
Flags: MW
HStem: -228 36<125.5 159.5> 301 139<308 392> 420 20G<354.5 392>
VStem: 21 106 250 62
LayerCount: 2
Fore
SplineSet
242 -140 m 0xb8
 246 -130 246 -124 247 -117 c 0
 247 -109 247 -100 251 -86 c 0
 260 -61 286 -45 314 -45 c 0
 337 -45 361 -65 349 -103 c 0
 338 -138 313 -161 272 -189 c 0
 236 -214 188 -228 131 -228 c 0
 24 -228 -24 -167 6 -75 c 0
 29 -1 102 45 161 82 c 0
 194 102 236 129 259 201 c 2
 263 214 l 2
 271 239 278 248 305 248 c 0
 330 248 330 236 324 214 c 2
 320 199 l 2
 307 158 289 101 201 36 c 0
 159 5 127 -32 111 -82 c 0
 93 -140 99 -192 152 -192 c 0
 194 -192 233 -168 242 -140 c 0xb8
419 372 m 0
 407 333 364 301 327 301 c 0xd8
 289 301 269 331 282 370 c 0
 294 408 336 440 373 440 c 0
 411 440 431 410 419 372 c 0
EndSplineSet
MultipleSubs2: "'c2sc' Capitals to Small Capitals lookup 12 subtable" questiondown.sc
Substitution2: "'case' Case-Sensitive Forms lookup 8 subtable" questiondown.sc
EndChar

StartChar: Agrave
Encoding: 192 192 128
Width: 710
GlyphClass: 2
Flags: MW
HStem: -2 34 -2 34 235 48<258.5 449 303 449 303 452> 638 20G<570 570>
VStem: 4 705
LayerCount: 2
Fore
SplineSet
139 79 m 2xb8
 112 39 154 35 189 32 c 2
 191 32 l 1
 195 26 188 4 180 -2 c 1
 145 -1 92 0 53 0 c 0
 16 0 -2 -1 -38 -2 c 1
 -42 4 -35 26 -27 32 c 1
 15 35 45 40 89 102 c 2
 451 614 l 1
 485 614 553 649 570 658 c 1
 597 86 l 2
 599 35 630 36 667 32 c 1
 671 26 664 4 656 -2 c 1
 621 -1 567 0 528 0 c 0
 491 0 400 -1 364 -2 c 1xb8
 360 4 366 26 374 32 c 0
 380 32 385 33 391 33 c 0
 429 35 457 36 457 72 c 2x78
 452 235 l 1
 270 235 l 2
 247 235 239 231 231 218 c 2
 139 79 l 2xb8
303 283 m 2
 449 283 l 1
 441 520 l 1
 435 520 l 1
 283 296 l 2
 276 286 282 283 303 283 c 2
465 830 m 1
 498 802 552 752 569 734 c 0
 577 726 575 720 573 713 c 1
 573 713 l 1
 571 705 559 698 550 698 c 0
 541 698 529 699 517 705 c 2
 387 763 l 1
 387 775 l 1
 405 796 438 818 465 830 c 1
EndSplineSet
MultipleSubs2: "'c2sc' Capitals to Small Capitals lookup 12 subtable" agrave.sc
Position2: "'cpsp' Capital Spacing lookup 2 per glyph data 0" dx=2 dy=0 dh=5 dv=1
EndChar

StartChar: Aacute
Encoding: 193 193 129
Width: 710
GlyphClass: 2
Flags: MW
HStem: -2 34 -2 34 235 48<258.5 449 303 449 303 452> 638 20G<569 569>
VStem: 4 705
LayerCount: 2
Fore
SplineSet
139 79 m 2xb8
 112 39 154 35 189 32 c 2
 191 32 l 1
 195 26 188 4 180 -2 c 1
 145 -1 92 0 53 0 c 0
 16 0 -2 -1 -38 -2 c 1
 -42 4 -35 26 -27 32 c 1
 15 35 45 40 89 102 c 2
 451 614 l 1
 485 614 552 649 569 658 c 1
 596 86 l 2
 598 35 630 36 667 32 c 1
 671 26 664 4 656 -2 c 1
 621 -1 567 0 528 0 c 0
 491 0 400 -1 364 -2 c 1xb8
 360 4 366 26 374 32 c 0
 380 32 385 33 391 33 c 0
 429 35 457 36 457 72 c 2x78
 452 235 l 1
 270 235 l 2
 247 235 239 231 231 218 c 2
 139 79 l 2xb8
303 283 m 2
 449 283 l 1
 441 520 l 1
 435 520 l 1
 282 296 l 2
 275 286 282 283 303 283 c 2
570 833 m 1
 593 821 614 799 622 778 c 1
 616 766 l 1
 458 708 l 2
 441 702 430 701 421 701 c 0
 412 701 403 708 405 716 c 0
 407 723 408 729 420 737 c 0
 445 755 523 805 570 833 c 1
EndSplineSet
MultipleSubs2: "'c2sc' Capitals to Small Capitals lookup 12 subtable" aacute.sc
Position2: "'cpsp' Capital Spacing lookup 2 per glyph data 0" dx=2 dy=0 dh=5 dv=1
EndChar

StartChar: Acircumflex
Encoding: 194 194 130
Width: 710
GlyphClass: 2
Flags: MW
HStem: -2 34 -2 34 235 48<258.5 449 303 449 303 452> 638 20G<569 569>
VStem: 4 705
LayerCount: 2
Fore
SplineSet
139 79 m 2xb8
 112 39 154 35 189 32 c 2
 191 32 l 1
 195 26 188 4 180 -2 c 1
 145 -1 92 0 53 0 c 0
 16 0 -2 -1 -38 -2 c 1
 -42 4 -35 26 -27 32 c 1
 15 35 45 40 89 102 c 2
 451 614 l 1
 485 614 552 649 569 658 c 1
 596 86 l 2
 598 35 630 36 667 32 c 1
 671 26 664 4 656 -2 c 1
 621 -1 567 0 528 0 c 0
 491 0 400 -1 364 -2 c 1xb8
 360 4 366 26 374 32 c 0
 380 32 385 33 391 33 c 0
 429 35 457 36 457 72 c 2x78
 452 235 l 1
 270 235 l 2
 247 235 239 231 231 218 c 2
 139 79 l 2xb8
303 283 m 2
 449 283 l 1
 441 520 l 1
 435 520 l 1
 282 296 l 2
 275 286 282 283 303 283 c 2
674 724 m 1
 672 714 662 702 652 698 c 1
 616 710 564 733 542 754 c 1
 507 732 445 709 405 698 c 1
 397 702 395 715 397 725 c 1
 446 752 506 794 550 829 c 1
 566 834 l 1
 593 797 641 750 674 724 c 1
EndSplineSet
MultipleSubs2: "'c2sc' Capitals to Small Capitals lookup 12 subtable" acircumflex.sc
Position2: "'cpsp' Capital Spacing lookup 2 per glyph data 0" dx=2 dy=0 dh=5 dv=1
EndChar

StartChar: Atilde
Encoding: 195 195 131
Width: 710
GlyphClass: 2
Flags: MW
HStem: -2 34 -2 34 235 48<260.5 451 305 451 305 454> 638 20G<571 571> 688 70<559.5 610> 726 71<466.5 467>
VStem: 4 705
AnchorPoint: "Anchor-0" 416 894 basechar 0
LayerCount: 2
Fore
SplineSet
140 79 m 2xb6
 113 39 155 35 190 32 c 2
 192 32 l 1
 196 26 190 4 182 -2 c 1
 147 -1 94 0 55 0 c 0
 18 0 0 -1 -36 -2 c 1
 -40 4 -34 26 -26 32 c 1
 16 35 47 40 91 102 c 2
 453 614 l 1
 487 614 554 649 571 658 c 1
 598 86 l 2
 600 35 631 36 668 32 c 1
 672 26 666 4 658 -2 c 1
 623 -1 569 0 530 0 c 0
 493 0 402 -1 366 -2 c 1xb6
 362 4 367 26 375 32 c 0
 381 32 386 33 392 33 c 0
 430 35 459 36 459 72 c 2x76
 454 235 l 1
 272 235 l 2
 249 235 241 231 233 218 c 2
 140 79 l 2xb6
305 283 m 2
 451 283 l 1
 443 520 l 1
 437 520 l 1
 284 296 l 2
 277 286 284 283 305 283 c 2
603 758 m 0xba
 617 758 639 765 662 801 c 1
 676 801 688 793 685 781 c 0
 654 723 608 688 571 688 c 0xba
 548 688 528 694 512 709 c 0
 495 722 476 726 458 726 c 0
 436 726 419 724 399 686 c 1
 387 686 374 690 377 704 c 1
 406 755 449 797 484 797 c 0xb6
 515 797 535 788 551 772 c 0
 566 758 592 758 603 758 c 0xba
EndSplineSet
MultipleSubs2: "'c2sc' Capitals to Small Capitals lookup 12 subtable" atilde.sc
Position2: "'cpsp' Capital Spacing lookup 2 per glyph data 0" dx=2 dy=0 dh=5 dv=1
EndChar

StartChar: Adieresis
Encoding: 196 196 132
Width: 710
GlyphClass: 2
Flags: MW
HStem: -2 34 -2 34 235 48<259.5 450 304 450 304 453> 638 20G<570 570> 708 113<425 445 613 633>
VStem: 342 112 529 112
LayerCount: 2
Fore
SplineSet
139 79 m 2xbe
 112 39 154 35 189 32 c 2
 191 32 l 1
 195 26 189 4 181 -2 c 1
 146 -1 93 0 54 0 c 0
 17 0 -1 -1 -37 -2 c 1
 -41 4 -35 26 -27 32 c 1
 15 35 46 40 90 102 c 2
 451 614 l 1
 485 614 553 649 570 658 c 1
 597 86 l 2
 599 35 630 36 667 32 c 1
 671 26 665 4 657 -2 c 1
 622 -1 568 0 529 0 c 0
 492 0 401 -1 365 -2 c 1xbe
 361 4 366 26 374 32 c 0
 380 32 385 33 391 33 c 0
 429 35 458 36 458 72 c 2x7e
 453 235 l 1
 271 235 l 2
 248 235 240 231 232 218 c 2
 139 79 l 2xbe
304 283 m 2
 450 283 l 1
 442 520 l 1
 436 520 l 1
 283 296 l 2
 276 286 283 283 304 283 c 2
566 764 m 0
 569 796 597 821 629 821 c 0
 661 821 681 796 678 764 c 0
 675 732 649 708 617 708 c 0
 585 708 563 732 566 764 c 0
379 764 m 0
 382 796 409 821 441 821 c 0
 473 821 494 796 491 764 c 0
 488 732 461 708 429 708 c 0
 397 708 376 732 379 764 c 0
EndSplineSet
Substitution2: "'ss01' Style Set 1 lookup 40 subtable" Adieresis.alt
MultipleSubs2: "'c2sc' Capitals to Small Capitals lookup 12 subtable" adieresis.sc
Position2: "'cpsp' Capital Spacing lookup 2 per glyph data 0" dx=2 dy=0 dh=5 dv=1
EndChar

StartChar: Aring
Encoding: 197 197 133
Width: 710
GlyphClass: 2
Flags: MW
HStem: -2 34 -2 34 235 48<258.5 449 303 449 303 452> 638 20G<570 570> 665 27<492.5 523.5 492.5 527> 804 27<511.5 542>
VStem: 396 37 533 37
LayerCount: 2
Fore
SplineSet
139 79 m 2xaf
 112 39 154 35 189 32 c 2
 191 32 l 1
 195 26 188 4 180 -2 c 1
 145 -1 92 0 53 0 c 0
 16 0 -2 -1 -38 -2 c 1
 -42 4 -35 26 -27 32 c 1
 15 35 45 40 89 102 c 2
 451 614 l 1
 485 614 553 649 570 658 c 1
 596 86 l 2
 598 35 630 36 667 32 c 1
 671 26 664 4 656 -2 c 1
 621 -1 567 0 528 0 c 0
 491 0 400 -1 364 -2 c 1xb7
 360 4 366 26 374 32 c 0
 380 32 385 33 391 33 c 0
 429 35 457 36 457 72 c 2x6f
 452 235 l 1
 270 235 l 2
 247 235 239 231 231 218 c 2
 139 79 l 2xaf
431 748 m 0
 438 794 486 831 532 831 c 0
 578 831 613 795 605 748 c 0
 597 703 551 665 503 665 c 0
 457 665 423 702 431 748 c 0
303 283 m 2
 449 283 l 1
 441 520 l 1
 435 520 l 1
 283 296 l 2
 276 286 282 283 303 283 c 2
527 804 m 0
 496 804 472 778 468 748 c 0
 463 720 477 692 508 692 c 0
 539 692 563 720 568 748 c 0
 572 779 557 804 527 804 c 0
EndSplineSet
MultipleSubs2: "'c2sc' Capitals to Small Capitals lookup 12 subtable" aring.sc
Position2: "'cpsp' Capital Spacing lookup 2 per glyph data 0" dx=2 dy=0 dh=5 dv=1
EndChar

StartChar: AE
Encoding: 198 198 134
Width: 956
GlyphClass: 2
Flags: MW
HStem: -2 34 0 42<609 710 710 718> 266 50<363 500 322 515> 317 50<672 736 655 753> 409 20G<863 906> 413 20G 567 78 603 42<775 787 787 872> 613 32<475 475 475 495> 629 20G<1032 1033.5>
VStem: 10 991 815 43 938 45
AnchorPoint: "Anchor-6" 601 4 basechar 0
AnchorPoint: "Anchor-3" 565 -110 basechar 0
AnchorPoint: "Anchor-0" 824 850 basechar 0
LayerCount: 2
Fore
SplineSet
111 102 m 2xa520
 509 562 l 2
 540 598 518 613 472 613 c 0
 466 613 466 616 467 620 c 2x64a0
 475 645 l 1
 478 647 l 1
 684 645 l 1
 982 645 l 2x6508
 1006 645 1014 646 1032 649 c 0
 1035 649 1036 648 1035 646 c 0
 1035 642 1030 621 1024 595 c 0x6448
 1016 563 1006 524 1002 501 c 1
 990 496 968 494 956 496 c 1
 956 565 947 603 872 603 c 2
 787 603 l 2
 763 603 739 578 731 554 c 2
 672 367 l 1
 753 367 l 2
 820 367 843 374 863 429 c 1x5508
 872 435 903 435 906 429 c 1
 896 399 888 377 877 343 c 0
 866 309 862 290 851 255 c 1
 843 249 812 249 808 255 c 1
 820 300 805 317 736 317 c 2x5910
 655 317 l 1
 583 90 l 2
 574 63 587 42 609 42 c 2
 710 42 l 2
 786 42 849 98 892 170 c 1
 906 173 927 171 935 165 c 1
 911 114 885 48 856 -2 c 1
 856 -2 766 0 718 0 c 2
 482 0 l 1
 482 0 377 -1 328 -2 c 1
 324 4 330 26 338 32 c 1x5520
 408 35 427 39 454 122 c 2
 500 266 l 1
 322 266 l 1
 161 79 l 2
 127 40 178 35 215 32 c 1
 219 26 213 4 205 -2 c 1
 168 -1 113 0 72 0 c 0
 33 0 15 -1 -22 -2 c 1
 -26 4 -20 26 -12 32 c 1
 32 35 61 44 111 102 c 2xa520
363 316 m 1
 515 316 l 1
 588 545 l 2
 596 571 586 578 559 546 c 2x6620
 363 316 l 1
EndSplineSet
MultipleSubs2: "'c2sc' Capitals to Small Capitals lookup 12 subtable" ae.sc
Position2: "'cpsp' Capital Spacing lookup 2 per glyph data 1" dx=2 dy=0 dh=5 dv=2
EndChar

StartChar: Ccedilla
Encoding: 199 199 135
Width: 675
GlyphClass: 2
Flags: MW
HStem: -215 29<261 286 261 291.5> -10 52<347 354 347 347> -9 51<313 402.5> 616 42<475 598>
VStem: 89 149 369 66 659 43
LayerCount: 2
Fore
SplineSet
252 -101 m 1xde
 248 -95 l 1
 313 -9 l 1
 240 -4 183 14 143 53 c 0xbe
 83 111 78 221 106 315 c 0
 172 535 367 658 555 658 c 0
 673 658 705 618 752 613 c 1
 744 558 737 510 727 458 c 1
 714 452 694 449 683 453 c 1
 684 539 664 616 532 616 c 0
 418 616 303 489 257 334 c 0
 211 178 258 42 369 42 c 0
 436 42 522 68 613 146 c 1
 624 146 637 134 639 125 c 1
 547 36 447 -10 354 -10 c 2
 347 -10 l 1
 326 -41 l 1
 369 -50 413 -70 399 -125 c 0
 387 -175 324 -215 259 -215 c 0
 227 -215 222 -209 200 -198 c 1
 202 -188 207 -176 216 -172 c 1
 241 -182 251 -186 271 -186 c 0
 301 -186 323 -172 330 -145 c 0
 340 -107 288 -103 252 -101 c 1xde
EndSplineSet
MultipleSubs2: "'c2sc' Capitals to Small Capitals lookup 12 subtable" ccedilla.sc
Position2: "'cpsp' Capital Spacing lookup 2 per glyph data 0" dx=2 dy=0 dh=5 dv=1
EndChar

StartChar: Egrave
Encoding: 200 200 136
Width: 578
GlyphClass: 2
Flags: MW
HStem: 0 42<236 333 333 340> 317 50<294 357 279 372> 409 20G<478 519> 413 20G 603 42<392.5 404 404 486> 629 20G<639 640.5>
VStem: 7 610
LayerCount: 2
Fore
SplineSet
372 367 m 2xda
 436 367 458 374 478 429 c 1xda
 486 435 515 435 519 429 c 1
 509 399 503 377 492 343 c 0
 481 309 476 290 466 255 c 1
 458 249 429 249 425 255 c 1
 436 300 423 317 357 317 c 2
 279 317 l 1
 211 90 l 2
 203 63 215 42 236 42 c 2
 333 42 l 2
 406 42 465 98 506 170 c 1
 519 173 540 171 548 165 c 1
 525 114 500 48 472 -2 c 1
 472 -2 386 0 340 0 c 2
 114 0 l 1
 114 0 12 -1 -35 -2 c 1
 -39 4 -32 26 -24 32 c 1
 44 35 61 39 86 122 c 2
 205 522 l 2
 230 605 217 610 150 613 c 1
 146 619 151 641 159 647 c 1
 207 646 307 645 307 645 c 1
 590 645 l 2xea
 613 645 622 646 639 649 c 0
 642 649 641 648 641 646 c 0xd6
 640 638 616 542 609 501 c 1
 598 496 579 494 567 496 c 1
 566 565 558 603 486 603 c 2
 404 603 l 2
 381 603 358 578 350 554 c 2
 294 367 l 1
 372 367 l 2xda
434 830 m 1
 467 802 521 752 538 734 c 0
 546 726 544 720 542 713 c 1
 542 713 l 1
 540 705 528 698 519 698 c 0
 510 698 498 699 486 705 c 2
 356 763 l 1
 356 775 l 1
 374 796 407 818 434 830 c 1
EndSplineSet
MultipleSubs2: "'c2sc' Capitals to Small Capitals lookup 12 subtable" egrave.sc
Position2: "'cpsp' Capital Spacing lookup 2 per glyph data 0" dx=2 dy=0 dh=5 dv=1
EndChar

StartChar: Eacute
Encoding: 201 201 137
Width: 578
GlyphClass: 2
Flags: MW
HStem: 0 42<236 333 333 340> 317 50<294 357 279 372> 409 20G<477 518> 413 20G 603 42<392.5 404 404 486> 629 20G<639 640.5>
VStem: 7 610
AnchorPoint: "Anchor-0" 312 662 basechar 0
LayerCount: 2
Fore
SplineSet
372 367 m 2xda
 436 367 457 374 477 429 c 1xda
 485 435 514 435 518 429 c 1
 508 399 502 377 491 343 c 0
 480 309 476 290 466 255 c 1
 458 249 429 249 425 255 c 1
 436 300 423 317 357 317 c 2
 279 317 l 1
 211 90 l 2
 203 63 215 42 236 42 c 2
 333 42 l 2
 406 42 465 98 506 170 c 1
 519 173 540 171 548 165 c 1
 525 114 500 48 472 -2 c 1
 472 -2 386 0 340 0 c 2
 114 0 l 1
 114 0 12 -1 -35 -2 c 1
 -39 4 -32 26 -24 32 c 1
 44 35 61 39 86 122 c 2
 205 522 l 2
 230 605 217 610 150 613 c 1
 146 619 151 641 159 647 c 1
 207 646 307 645 307 645 c 1
 590 645 l 2xea
 613 645 622 646 639 649 c 0
 642 649 641 648 641 646 c 0xd6
 640 638 616 542 609 501 c 1
 598 496 578 494 566 496 c 1
 565 565 558 603 486 603 c 2
 404 603 l 2
 381 603 358 578 350 554 c 2
 294 367 l 1
 372 367 l 2xda
536 833 m 1
 559 821 580 799 588 778 c 1
 582 766 l 1
 424 708 l 2
 407 702 396 701 387 701 c 0
 378 701 369 708 371 716 c 0
 373 723 374 729 386 737 c 0
 411 755 489 805 536 833 c 1
EndSplineSet
MultipleSubs2: "'c2sc' Capitals to Small Capitals lookup 12 subtable" eacute.sc
Position2: "'cpsp' Capital Spacing lookup 2 per glyph data 0" dx=2 dy=0 dh=5 dv=1
EndChar

StartChar: Ecircumflex
Encoding: 202 202 138
Width: 578
GlyphClass: 2
Flags: MW
HStem: 0 42<236 333 333 340> 317 50<294 357 279 372> 409 20G<477 518> 413 20G 603 42<392.5 404 404 486> 629 20G<638 639.5>
VStem: 7 610
LayerCount: 2
Fore
SplineSet
372 367 m 2xda
 436 367 457 374 477 429 c 1xda
 485 435 514 435 518 429 c 1
 508 399 502 377 491 343 c 0
 480 309 476 290 466 255 c 1
 458 249 429 249 425 255 c 1
 436 300 423 317 357 317 c 2
 279 317 l 1
 211 90 l 2
 203 63 215 42 236 42 c 2
 333 42 l 2
 406 42 465 98 506 170 c 1
 519 173 540 171 548 165 c 1
 525 114 500 48 472 -2 c 1
 472 -2 386 0 340 0 c 2
 114 0 l 1
 114 0 12 -1 -35 -2 c 1
 -39 4 -32 26 -24 32 c 1
 44 35 61 39 86 122 c 2
 205 522 l 2
 230 605 217 610 150 613 c 1
 146 619 151 641 159 647 c 1
 207 646 307 645 307 645 c 1
 590 645 l 2xea
 613 645 621 646 638 649 c 0
 641 649 641 648 641 646 c 0xd6
 640 638 616 542 609 501 c 1
 598 496 578 494 566 496 c 1
 565 565 558 603 486 603 c 2
 404 603 l 2
 381 603 358 578 350 554 c 2
 294 367 l 1
 372 367 l 2xda
600 724 m 1
 598 714 588 702 578 698 c 1
 542 710 490 733 468 754 c 1
 433 732 371 709 331 698 c 1
 323 702 321 715 323 725 c 1
 372 752 432 794 476 829 c 1
 492 834 l 1
 519 797 567 750 600 724 c 1
EndSplineSet
MultipleSubs2: "'c2sc' Capitals to Small Capitals lookup 12 subtable" ecircumflex.sc
Position2: "'cpsp' Capital Spacing lookup 2 per glyph data 0" dx=2 dy=0 dh=5 dv=1
EndChar

StartChar: Edieresis
Encoding: 203 203 139
Width: 578
GlyphClass: 2
Flags: MW
HStem: 0 42<235 332 332 340> 317 50<294 356 278 372> 409 20G<477 518> 413 20G 603 42<391.5 403 403 485> 629 20G<638 639.5> 727 113<364 384 552 572>
VStem: 280 112 467 112
LayerCount: 2
Fore
SplineSet
372 367 m 2xd980
 436 367 457 374 477 429 c 1xd980
 485 435 514 435 518 429 c 1
 508 399 502 377 491 343 c 0
 480 309 476 290 466 255 c 1
 458 249 429 249 425 255 c 1
 436 300 422 317 356 317 c 2
 278 317 l 1
 210 90 l 2
 202 63 214 42 235 42 c 2
 332 42 l 2
 405 42 465 98 506 170 c 1
 519 173 539 171 547 165 c 1
 524 114 500 48 472 -2 c 1
 472 -2 386 0 340 0 c 2
 114 0 l 1
 114 0 12 -1 -35 -2 c 1
 -39 4 -33 26 -25 32 c 1
 43 35 61 39 86 122 c 2
 205 522 l 2
 230 605 216 610 149 613 c 1
 145 619 151 641 159 647 c 1
 207 646 307 645 307 645 c 1
 590 645 l 2xe980
 613 645 621 646 638 649 c 0
 641 649 641 648 641 646 c 0xd580
 640 638 616 542 609 501 c 1
 598 496 578 494 566 496 c 1
 565 565 557 603 485 603 c 2
 403 603 l 2
 380 603 357 578 349 554 c 2
 294 367 l 1
 372 367 l 2xd980
505 783 m 0xdb80
 508 815 536 840 568 840 c 0
 600 840 620 815 617 783 c 0
 614 751 588 727 556 727 c 0
 524 727 502 751 505 783 c 0xdb80
318 783 m 0
 321 815 348 840 380 840 c 0
 412 840 433 815 430 783 c 0
 427 751 400 727 368 727 c 0
 336 727 315 751 318 783 c 0
EndSplineSet
MultipleSubs2: "'c2sc' Capitals to Small Capitals lookup 12 subtable" edieresis.sc
Position2: "'cpsp' Capital Spacing lookup 2 per glyph data 0" dx=2 dy=0 dh=5 dv=1
EndChar

StartChar: Igrave
Encoding: 204 204 140
Width: 351
GlyphClass: 2
Flags: MW
HStem: -2 34 613 34
VStem: 25 428
LayerCount: 2
Fore
SplineSet
222 523 m 2
 247 606 221 610 169 613 c 1
 162 619 167 641 179 647 c 1
 217 646 289 645 327 645 c 0
 365 645 434 646 473 647 c 1
 480 641 475 619 463 613 c 1
 410 610 381 606 356 523 c 2
 236 122 l 2
 211 39 237 35 289 32 c 1
 296 26 291 4 279 -2 c 1
 241 -1 171 0 133 0 c 0
 95 0 24 -1 -15 -2 c 1
 -22 4 -16 26 -4 32 c 1
 49 35 77 39 102 122 c 2
 222 523 l 2
314 830 m 1
 347 802 401 752 418 734 c 0
 426 726 424 720 422 713 c 1
 422 713 l 1
 420 705 408 698 399 698 c 0
 390 698 378 699 366 705 c 2
 236 763 l 1
 236 775 l 1
 254 796 287 818 314 830 c 1
EndSplineSet
MultipleSubs2: "'c2sc' Capitals to Small Capitals lookup 12 subtable" igrave.sc
Position2: "'cpsp' Capital Spacing lookup 2 per glyph data 0" dx=2 dy=0 dh=5 dv=1
EndChar

StartChar: Iacute
Encoding: 205 205 141
Width: 351
GlyphClass: 2
Flags: MW
HStem: -2 34 613 34
VStem: 25 428
LayerCount: 2
Fore
SplineSet
222 523 m 2
 247 606 221 610 169 613 c 1
 162 619 167 641 179 647 c 1
 217 646 289 645 327 645 c 0
 365 645 434 646 473 647 c 1
 480 641 475 619 463 613 c 1
 410 610 381 606 356 523 c 2
 236 122 l 2
 211 39 237 35 289 32 c 1
 296 26 291 4 279 -2 c 1
 241 -1 171 0 133 0 c 0
 95 0 24 -1 -15 -2 c 1
 -22 4 -16 26 -4 32 c 1
 49 35 77 39 102 122 c 2
 222 523 l 2
406 833 m 1
 429 821 450 799 458 778 c 1
 452 766 l 1
 294 708 l 2
 277 702 266 701 257 701 c 0
 248 701 239 708 241 716 c 0
 243 723 244 729 256 737 c 0
 281 755 359 805 406 833 c 1
EndSplineSet
MultipleSubs2: "'c2sc' Capitals to Small Capitals lookup 12 subtable" iacute.sc
Position2: "'cpsp' Capital Spacing lookup 2 per glyph data 0" dx=2 dy=0 dh=5 dv=1
EndChar

StartChar: Icircumflex
Encoding: 206 206 142
Width: 351
GlyphClass: 2
Flags: MW
HStem: -2 34 613 34
VStem: 25 428
LayerCount: 2
Fore
SplineSet
222 523 m 2
 247 606 221 610 169 613 c 1
 162 619 167 641 179 647 c 1
 217 646 289 645 327 645 c 0
 365 645 434 646 473 647 c 1
 480 641 475 619 463 613 c 1
 410 610 381 606 356 523 c 2
 236 122 l 2
 211 39 237 35 289 32 c 1
 296 26 291 4 279 -2 c 1
 241 -1 171 0 133 0 c 0
 95 0 24 -1 -15 -2 c 1
 -22 4 -16 26 -4 32 c 1
 49 35 77 39 102 122 c 2
 222 523 l 2
483 724 m 1
 481 714 471 702 461 698 c 1
 425 710 373 733 351 754 c 1
 316 732 254 709 214 698 c 1
 206 702 204 715 206 725 c 1
 255 752 315 794 359 829 c 1
 375 834 l 1
 402 797 450 750 483 724 c 1
EndSplineSet
MultipleSubs2: "'c2sc' Capitals to Small Capitals lookup 12 subtable" icircumflex.sc
Position2: "'cpsp' Capital Spacing lookup 2 per glyph data 0" dx=2 dy=0 dh=5 dv=1
EndChar

StartChar: Idieresis
Encoding: 207 207 143
Width: 351
GlyphClass: 2
Flags: MW
HStem: -2 34 613 34 710 113<248 268 436 456>
VStem: 165 112 352 112
LayerCount: 2
Fore
SplineSet
223 523 m 2
 248 606 221 610 169 613 c 1
 162 619 168 641 180 647 c 1
 218 646 290 645 328 645 c 0
 366 645 435 646 474 647 c 1
 481 641 475 619 463 613 c 1
 410 610 382 606 357 523 c 2
 237 122 l 2
 212 39 237 35 289 32 c 1
 296 26 292 4 280 -2 c 1
 242 -1 172 0 134 0 c 0
 96 0 25 -1 -14 -2 c 1
 -21 4 -16 26 -4 32 c 1
 49 35 78 39 103 122 c 2
 223 523 l 2
389 766 m 0
 392 798 420 823 452 823 c 0
 484 823 504 798 501 766 c 0
 498 734 472 710 440 710 c 0
 408 710 386 734 389 766 c 0
202 766 m 0
 205 798 232 823 264 823 c 0
 296 823 317 798 314 766 c 0
 311 734 284 710 252 710 c 0
 220 710 199 734 202 766 c 0
EndSplineSet
MultipleSubs2: "'c2sc' Capitals to Small Capitals lookup 12 subtable" idieresis.sc
Position2: "'cpsp' Capital Spacing lookup 2 per glyph data 0" dx=2 dy=0 dh=5 dv=1
EndChar

StartChar: Eth
Encoding: 208 208 144
Width: 698
GlyphClass: 2
Flags: MW
HStem: -2 42<285.5 340> 283 44<145 173> 284 42<295 307> 604 42<440.5 514.5>
VStem: 585 141
LayerCount: 2
Fore
SplineSet
143 0 m 0xd8
 105 0 -5 -2 -5 -2 c 2
 -8 0 -9 4 -8 9 c 0
 -7 18 -2 28 5 32 c 0
 58 35 87 39 112 122 c 2
 160 283 l 1
 130 283 100 281 73 280 c 1
 88 330 l 1
 115 329 143 328 173 327 c 1
 232 523 l 2
 237 539 240 552 241 563 c 0
 246 608 221 611 179 613 c 0
 176 615 175 619 176 624 c 0
 177 633 182 643 189 647 c 1
 189 647 299 645 337 645 c 0
 375 645 415 646 466 646 c 0
 668 646 749 535 733 387 c 0
 719 253 641 132 571 82 c 0
 484 20 382 -2 298 -2 c 0
 260 -2 181 0 143 0 c 0xd8
246 119 m 2
 243 107 239 97 238 88 c 0
 234 48 258 40 313 40 c 0
 431 40 573 204 596 426 c 0
 606 525 579 604 450 604 c 0
 415 604 385 584 368 529 c 2
 307 326 l 1
 346 327 385 328 419 330 c 1
 404 280 l 1
 370 282 333 283 295 284 c 1xb8
 246 119 l 2
EndSplineSet
MultipleSubs2: "'c2sc' Capitals to Small Capitals lookup 12 subtable" eth.sc
Position2: "'cpsp' Capital Spacing lookup 2 per glyph data 0" dx=2 dy=0 dh=5 dv=1
EndChar

StartChar: Ntilde
Encoding: 209 209 145
Width: 709
GlyphClass: 2
Flags: MW
HStem: -12 21G<500 517> -2 34 613 34 688 70<560.5 610> 726 71<466.5 468>
VStem: 12 809
LayerCount: 2
Fore
SplineSet
573 0 m 1x6c
 553 -9 534 -12 500 -12 c 1
 500 -12 486 7 475 32 c 2xac
 272 430 l 2
 265 443 260 450 256 450 c 0
 250 450 245 440 242 430 c 2
 153 133 l 2
 125 42 141 39 206 32 c 1
 210 26 203 4 195 -2 c 1
 147 -1 126 0 81 0 c 0
 39 0 19 -1 -28 -2 c 1
 -32 4 -26 26 -18 32 c 1
 52 39 71 44 97 133 c 2
 221 550 l 1
 223 576 205 610 164 613 c 1
 160 619 167 641 175 647 c 1
 338 645 l 1
 393 540 l 1
 554 228 l 2
 562 212 573 205 581 231 c 2
 664 512 l 2
 692 603 676 606 611 613 c 1
 607 619 614 641 622 647 c 1
 670 646 692 645 737 645 c 0
 779 645 799 646 846 647 c 1
 850 641 843 619 835 613 c 1
 765 606 747 601 721 512 c 2
 598 102 l 2
 589 71 573 0 573 0 c 1x6c
603 758 m 0x74
 617 758 640 765 663 801 c 1
 677 801 689 793 686 781 c 0
 655 723 609 688 572 688 c 0x74
 549 688 528 694 512 709 c 0
 495 722 477 726 459 726 c 0
 437 726 420 724 400 686 c 1
 388 686 375 690 378 704 c 1
 407 755 449 797 484 797 c 0x6c
 515 797 536 788 552 772 c 0
 567 758 592 758 603 758 c 0x74
EndSplineSet
MultipleSubs2: "'c2sc' Capitals to Small Capitals lookup 12 subtable" ntilde.sc
Position2: "'cpsp' Capital Spacing lookup 2 per glyph data 0" dx=2 dy=0 dh=5 dv=1
EndChar

StartChar: Ograve
Encoding: 210 210 146
Width: 699
GlyphClass: 2
Flags: MW
HStem: -10 42<291.5 394 291.5 414.5> 616 42<454 518.5>
VStem: 88 145 592 145
AnchorPoint: "Anchor-6" 310 -7 basechar 0
AnchorPoint: "Anchor-3" 306 -110 basechar 0
LayerCount: 2
Fore
SplineSet
303 -10 m 0
 160 -10 53 84 70 241 c 0
 84 370 153 474 233 546 c 0
 309 615 406 658 502 658 c 0
 655 658 752 560 736 404 c 0
 712 175 526 -10 303 -10 c 0
478 616 m 0
 425 616 367 584 316 509 c 0
 276 450 225 331 214 226 c 0
 201 102 249 32 334 32 c 0
 454 32 571 216 593 423 c 0
 606 550 559 616 478 616 c 0
494 830 m 1
 527 802 581 752 598 734 c 0
 606 726 605 720 603 713 c 1
 603 713 l 1
 601 705 588 698 579 698 c 0
 570 698 558 699 546 705 c 2
 416 763 l 1
 416 775 l 1
 434 796 467 818 494 830 c 1
EndSplineSet
MultipleSubs2: "'c2sc' Capitals to Small Capitals lookup 12 subtable" ograve.sc
Position2: "'cpsp' Capital Spacing lookup 2 per glyph data 0" dx=2 dy=0 dh=5 dv=1
EndChar

StartChar: Oacute
Encoding: 211 211 147
Width: 699
GlyphClass: 2
Flags: MW
HStem: -10 42<291.5 394 291.5 414.5> 616 42<454 517.5>
VStem: 88 145 592 145
AnchorPoint: "Anchor-6" 310 -7 basechar 0
AnchorPoint: "Anchor-3" 306 -110 basechar 0
LayerCount: 2
Fore
SplineSet
303 -10 m 0
 160 -10 53 84 70 241 c 0
 84 370 153 474 233 546 c 0
 309 615 406 658 502 658 c 0
 655 658 752 560 736 404 c 0
 712 175 526 -10 303 -10 c 0
477 616 m 0
 424 616 367 584 316 509 c 0
 276 450 225 331 214 226 c 0
 201 102 249 32 334 32 c 0
 454 32 571 216 593 423 c 0
 606 550 558 616 477 616 c 0
586 833 m 1
 609 821 631 799 639 778 c 1
 632 766 l 1
 474 708 l 2
 457 702 446 701 437 701 c 0
 428 701 419 708 421 716 c 0
 423 723 424 729 436 737 c 0
 461 755 539 805 586 833 c 1
EndSplineSet
MultipleSubs2: "'c2sc' Capitals to Small Capitals lookup 12 subtable" oacute.sc
Position2: "'cpsp' Capital Spacing lookup 2 per glyph data 0" dx=2 dy=0 dh=5 dv=1
EndChar

StartChar: Ocircumflex
Encoding: 212 212 148
Width: 699
GlyphClass: 2
Flags: MW
HStem: -10 42<291.5 394 291.5 414.5> 616 42<454 517.5>
VStem: 88 145 592 145
AnchorPoint: "Anchor-6" 310 -7 basechar 0
AnchorPoint: "Anchor-3" 306 -110 basechar 0
LayerCount: 2
Fore
SplineSet
303 -10 m 0
 160 -10 53 84 70 241 c 0
 84 370 153 474 233 546 c 0
 309 615 406 658 502 658 c 0
 655 658 752 560 736 404 c 0
 712 175 526 -10 303 -10 c 0
477 616 m 0
 424 616 367 584 316 509 c 0
 276 450 224 331 213 226 c 0
 200 102 249 32 334 32 c 0
 454 32 571 216 593 423 c 0
 606 550 558 616 477 616 c 0
651 724 m 1
 649 714 638 702 628 698 c 1
 592 710 540 733 518 754 c 1
 483 732 421 709 381 698 c 1
 373 702 372 715 374 725 c 1
 423 752 483 794 527 829 c 1
 542 834 l 1
 569 797 618 750 651 724 c 1
EndSplineSet
MultipleSubs2: "'c2sc' Capitals to Small Capitals lookup 12 subtable" ocircumflex.sc
Position2: "'cpsp' Capital Spacing lookup 2 per glyph data 0" dx=2 dy=0 dh=5 dv=1
EndChar

StartChar: Otilde
Encoding: 213 213 149
Width: 699
GlyphClass: 2
Flags: MW
HStem: -10 42<293.5 396 293.5 415.5> 616 42<456 519.5> 688 70<560.5 610> 726 71<466.5 468>
VStem: 88 145 592 145
AnchorPoint: "Anchor-6" 312 -7 basechar 0
AnchorPoint: "Anchor-3" 308 -110 basechar 0
LayerCount: 2
Fore
SplineSet
304 -10 m 0xcc
 161 -10 55 84 72 241 c 0
 86 370 155 474 235 546 c 0
 311 615 408 658 504 658 c 0
 657 658 754 560 738 404 c 0
 714 175 527 -10 304 -10 c 0xcc
479 616 m 0
 426 616 369 584 318 509 c 0
 278 450 226 331 215 226 c 0
 202 102 251 32 336 32 c 0
 456 32 573 216 595 423 c 0
 608 550 560 616 479 616 c 0
603 758 m 0xec
 617 758 640 765 663 801 c 1
 677 801 689 793 686 781 c 0
 655 723 609 688 572 688 c 0xec
 549 688 528 694 512 709 c 0
 495 722 477 726 459 726 c 0
 437 726 420 724 400 686 c 1
 388 686 374 690 377 704 c 1
 406 755 449 797 484 797 c 0xdc
 515 797 536 788 552 772 c 0
 567 758 592 758 603 758 c 0xec
EndSplineSet
MultipleSubs2: "'c2sc' Capitals to Small Capitals lookup 12 subtable" otilde.sc
Position2: "'cpsp' Capital Spacing lookup 2 per glyph data 0" dx=2 dy=0 dh=5 dv=1
EndChar

StartChar: Odieresis
Encoding: 214 214 150
Width: 699
GlyphClass: 2
Flags: MW
HStem: -10 42<292.5 395 292.5 415.5> 616 42<455 518.5> 703 113<421 442 609 630>
VStem: 88 145 338 112 525 112 592 145
AnchorPoint: "Anchor-6" 311 -7 basechar 0
AnchorPoint: "Anchor-3" 307 -110 basechar 0
LayerCount: 2
Fore
SplineSet
304 -10 m 0xda
 161 -10 54 84 71 241 c 0
 85 370 154 474 234 546 c 0
 310 615 407 658 503 658 c 0
 656 658 753 560 737 404 c 0
 713 175 527 -10 304 -10 c 0xda
478 616 m 0
 425 616 368 584 317 509 c 0
 277 450 225 331 214 226 c 0
 201 102 250 32 335 32 c 0
 455 32 572 216 594 423 c 0
 607 550 559 616 478 616 c 0
562 759 m 0xfc
 565 791 593 816 625 816 c 0
 657 816 677 791 674 759 c 0
 671 727 646 703 614 703 c 0
 582 703 559 727 562 759 c 0xfc
375 759 m 0
 378 791 405 816 437 816 c 0
 469 816 490 791 487 759 c 0
 484 727 458 703 426 703 c 0
 394 703 372 727 375 759 c 0
EndSplineSet
Substitution2: "'ss01' Style Set 1 lookup 40 subtable" Odieresis.alt
MultipleSubs2: "'c2sc' Capitals to Small Capitals lookup 12 subtable" odieresis.sc
Position2: "'cpsp' Capital Spacing lookup 2 per glyph data 0" dx=2 dy=0 dh=5 dv=1
EndChar

StartChar: multiply
Encoding: 215 215 151
Width: 527
GlyphClass: 2
Flags: MW
HStem: 69 324<142 248 248 381>
VStem: 127 374
LayerCount: 2
Fore
SplineSet
355 232 m 1
 437 111 l 1
 381 69 l 1
 297 187 l 1
 142 69 l 1
 114 111 l 1
 269 227 l 1
 189 346 l 1
 248 393 l 1
 328 273 l 1
 483 393 l 1
 514 351 l 1
 355 232 l 1
EndSplineSet
EndChar

StartChar: Oslash
Encoding: 216 216 152
Width: 699
GlyphClass: 2
Flags: MW
HStem: -10 42<317 404 317 424.5> 581 20G<681 681> 616 42<464 516> 625 20G<797 797>
VStem: 88 145 592 145
AnchorPoint: "Anchor-6" 320 -7 basechar 0
AnchorPoint: "Anchor-3" 316 -110 basechar 0
LayerCount: 2
Fore
SplineSet
754 670 m 1xec
 797 645 l 1
 712 565 l 1x9c
 740 523 754 468 747 404 c 0
 723 175 536 -10 313 -10 c 0
 251 -10 197 7 156 39 c 1
 69 -43 l 1
 25 -18 l 1
 122 73 l 1
 89 115 73 172 80 241 c 0
 94 370 163 474 243 546 c 0
 319 615 416 658 512 658 c 0xac
 582 658 640 638 681 601 c 1
 754 670 l 1xec
488 616 m 0xac
 435 616 378 584 327 509 c 0
 287 450 235 331 224 226 c 0
 222 205 222 186 223 168 c 1
 599 524 l 1
 584 585 544 616 488 616 c 0xac
606 464 m 1
 233 113 l 1
 251 60 290 32 344 32 c 0
 464 32 582 216 604 423 c 0
 605 437 606 451 606 464 c 1
EndSplineSet
MultipleSubs2: "'c2sc' Capitals to Small Capitals lookup 12 subtable" oslash.sc
Position2: "'cpsp' Capital Spacing lookup 2 per glyph data 0" dx=2 dy=0 dh=5 dv=1
EndChar

StartChar: Ugrave
Encoding: 217 217 153
Width: 702
GlyphClass: 2
Flags: MW
HStem: -10 42<324 413.5> 613 34
VStem: 121 136
LayerCount: 2
Fore
SplineSet
331 522 m 2
 255 269 l 2
 235 204 216 129 249 82 c 0
 269 53 301 32 347 32 c 0
 509 32 563 165 597 277 c 2
 671 522 l 2
 696 604 679 606 610 613 c 1
 609 613 l 1
 605 619 612 641 620 647 c 1
 668 646 694 645 742 645 c 0
 782 645 798 646 845 647 c 1
 849 641 842 619 834 613 c 1
 774 606 759 605 734 522 c 2
 665 295 l 2
 611 117 512 -10 315 -10 c 0
 269 -10 181 -9 133 32 c 0
 90 69 82 139 111 236 c 2
 197 522 l 2
 222 605 207 610 150 613 c 1
 146 619 152 641 160 647 c 1
 208 646 245 645 300 645 c 0
 361 645 410 646 457 647 c 1
 461 641 454 619 446 613 c 1
 371 610 356 605 331 522 c 2
504 830 m 1
 537 802 591 752 608 734 c 0
 616 726 615 720 613 713 c 1
 613 713 l 1
 611 705 598 698 589 698 c 0
 580 698 568 699 556 705 c 2
 426 763 l 1
 426 775 l 1
 444 796 477 818 504 830 c 1
EndSplineSet
MultipleSubs2: "'c2sc' Capitals to Small Capitals lookup 12 subtable" ugrave.sc
Position2: "'cpsp' Capital Spacing lookup 2 per glyph data 0" dx=2 dy=0 dh=5 dv=1
EndChar

StartChar: Uacute
Encoding: 218 218 154
Width: 702
GlyphClass: 2
Flags: MW
HStem: -10 42<324 413.5> 613 34
VStem: 121 136
LayerCount: 2
Fore
SplineSet
331 522 m 2
 255 269 l 2
 235 204 215 129 248 82 c 0
 268 53 301 32 347 32 c 0
 509 32 563 165 597 277 c 2
 671 522 l 2
 696 604 679 606 610 613 c 1
 609 613 l 1
 605 619 612 641 620 647 c 1
 668 646 694 645 742 645 c 0
 782 645 798 646 845 647 c 1
 849 641 842 619 834 613 c 1
 774 606 759 605 734 522 c 2
 665 295 l 2
 611 117 512 -10 315 -10 c 0
 269 -10 181 -9 133 32 c 0
 90 69 82 139 111 236 c 2
 197 522 l 2
 222 605 207 610 150 613 c 1
 146 619 152 641 160 647 c 1
 208 646 245 645 300 645 c 0
 361 645 410 646 457 647 c 1
 461 641 454 619 446 613 c 1
 371 610 356 605 331 522 c 2
636 833 m 1
 659 821 681 799 689 778 c 1
 682 766 l 1
 524 708 l 2
 507 702 496 701 487 701 c 0
 478 701 469 708 471 716 c 0
 473 723 474 729 486 737 c 0
 511 755 589 805 636 833 c 1
EndSplineSet
MultipleSubs2: "'c2sc' Capitals to Small Capitals lookup 12 subtable" uacute.sc
Position2: "'cpsp' Capital Spacing lookup 2 per glyph data 0" dx=2 dy=0 dh=5 dv=1
EndChar

StartChar: Ucircumflex
Encoding: 219 219 155
Width: 702
GlyphClass: 2
Flags: MW
HStem: -10 42<324 413.5> 613 34
VStem: 121 136
LayerCount: 2
Fore
SplineSet
331 522 m 2
 255 269 l 2
 235 204 215 129 248 82 c 0
 268 53 301 32 347 32 c 0
 509 32 563 165 597 277 c 2
 671 522 l 2
 696 604 679 606 610 613 c 1
 609 613 l 1
 605 619 612 641 620 647 c 1
 668 646 693 645 741 645 c 0
 781 645 798 646 845 647 c 1
 849 641 842 619 834 613 c 1
 774 606 759 605 734 522 c 2
 665 295 l 2
 611 117 512 -10 315 -10 c 0
 269 -10 181 -9 133 32 c 0
 90 69 82 139 111 236 c 2
 197 522 l 2
 222 605 207 610 150 613 c 1
 146 619 152 641 160 647 c 1
 208 646 244 645 299 645 c 0
 360 645 410 646 457 647 c 1
 461 641 454 619 446 613 c 1
 371 610 356 605 331 522 c 2
681 724 m 1
 679 714 668 702 658 698 c 1
 622 710 570 733 548 754 c 1
 513 732 451 709 411 698 c 1
 403 702 402 715 404 725 c 1
 453 752 513 794 557 829 c 1
 572 834 l 1
 599 797 648 750 681 724 c 1
EndSplineSet
MultipleSubs2: "'c2sc' Capitals to Small Capitals lookup 12 subtable" ucircumflex.sc
Position2: "'cpsp' Capital Spacing lookup 2 per glyph data 0" dx=2 dy=0 dh=5 dv=1
EndChar

StartChar: Udieresis
Encoding: 220 220 156
Width: 702
GlyphClass: 2
Flags: MW
HStem: -10 42<325 414.5> 613 34 703 113<454 475 642 663>
VStem: 121 136 371 112 558 112
LayerCount: 2
Fore
SplineSet
332 522 m 2
 256 269 l 2
 236 204 216 129 249 82 c 0
 269 53 302 32 348 32 c 0
 510 32 564 165 598 277 c 2
 672 522 l 2
 697 604 680 606 611 613 c 1
 610 613 l 1
 606 619 613 641 621 647 c 1
 669 646 694 645 742 645 c 0
 782 645 799 646 846 647 c 1
 850 641 843 619 835 613 c 1
 775 606 760 605 735 522 c 2
 666 295 l 2
 612 117 513 -10 316 -10 c 0
 270 -10 182 -9 134 32 c 0
 91 69 82 139 111 236 c 2
 198 522 l 2
 223 605 208 610 151 613 c 1
 147 619 153 641 161 647 c 1
 209 646 245 645 300 645 c 0
 361 645 411 646 458 647 c 1
 462 641 455 619 447 613 c 1
 372 610 357 605 332 522 c 2
595 759 m 0
 598 791 626 816 658 816 c 0
 690 816 710 791 707 759 c 0
 704 727 679 703 647 703 c 0
 615 703 592 727 595 759 c 0
408 759 m 0
 411 791 438 816 470 816 c 0
 502 816 523 791 520 759 c 0
 517 727 491 703 459 703 c 0
 427 703 405 727 408 759 c 0
EndSplineSet
Substitution2: "'ss01' Style Set 1 lookup 40 subtable" Udieresis.alt
MultipleSubs2: "'c2sc' Capitals to Small Capitals lookup 12 subtable" udieresis.sc
Position2: "'cpsp' Capital Spacing lookup 2 per glyph data 0" dx=2 dy=0 dh=5 dv=1
EndChar

StartChar: Yacute
Encoding: 221 221 157
Width: 606
GlyphClass: 2
Flags: MW
HStem: -2 33 613 34
VStem: 307 98
LayerCount: 2
Fore
SplineSet
380 122 m 2
 355 39 371 34 447 31 c 1
 451 25 444 4 436 -2 c 1
 388 -1 344 0 284 0 c 0
 219 0 163 -1 116 -2 c 1
 112 4 118 25 126 31 c 1
 203 34 221 39 246 122 c 2
 287 259 l 2
 298 296 297 303 289 332 c 2
 232 547 l 2
 217 603 202 610 162 613 c 1
 158 619 163 641 171 647 c 1
 200 646 269 645 306 645 c 0
 344 645 387 646 426 647 c 1
 430 641 424 619 416 613 c 1
 362 610 357 595 366 557 c 2
 411 373 l 2
 415 356 426 357 436 370 c 2
 589 564 l 2
 612 594 597 610 555 613 c 1
 551 619 556 641 564 647 c 1
 602 646 648 645 670 645 c 0
 692 645 731 646 760 647 c 1
 764 641 758 619 750 613 c 1
 706 609 686 605 653 565 c 2
 465 351 l 2
 446 330 436 308 424 268 c 2
 380 122 l 2
606 833 m 1
 629 821 650 799 658 778 c 1
 652 766 l 1
 494 708 l 2
 477 702 466 701 457 701 c 0
 448 701 439 708 441 716 c 0
 443 723 444 729 456 737 c 0
 481 755 559 805 606 833 c 1
EndSplineSet
MultipleSubs2: "'c2sc' Capitals to Small Capitals lookup 12 subtable" yacute.sc
Position2: "'cpsp' Capital Spacing lookup 2 per glyph data 0" dx=2 dy=0 dh=5 dv=1
EndChar

StartChar: Thorn
Encoding: 222 222 158
Width: 616
GlyphClass: 2
Flags: MW
HStem: -2 34 150 41<318.5 366 315 422.5> 482 41<456.5 471> 613 34
VStem: 492 148
LayerCount: 2
Fore
SplineSet
232 523 m 2
 257 606 231 610 179 613 c 1
 172 619 177 641 189 647 c 1
 227 646 299 645 337 645 c 0
 375 645 444 646 483 647 c 1
 490 641 485 619 473 613 c 1
 420 610 391 606 366 523 c 1
 366 521 l 1
 403 523 448 523 465 523 c 0
 650 523 660 414 638 343 c 0
 614 268 511 150 334 150 c 0
 303 150 273 151 255 155 c 1
 246 122 l 2
 221 39 246 35 298 32 c 1
 305 26 301 4 289 -2 c 1
 251 -1 181 0 143 0 c 0
 105 0 34 -1 -5 -2 c 1
 -12 4 -7 26 5 32 c 1
 58 35 87 39 112 122 c 2
 232 523 l 2
267 194 m 1
 279 192 300 191 330 191 c 0
 402 191 453 234 487 343 c 0
 515 431 501 482 441 482 c 0
 422 482 376 478 352 478 c 1
 267 194 l 1
EndSplineSet
MultipleSubs2: "'c2sc' Capitals to Small Capitals lookup 12 subtable" thorn.sc
Position2: "'cpsp' Capital Spacing lookup 2 per glyph data 0" dx=2 dy=0 dh=5 dv=1
EndChar

StartChar: germandbls
Encoding: 223 223 159
Width: 599
GlyphClass: 2
Flags: MW
HStem: -233 49<-32.5 -25.5> -10 42<376 401.5 376 432> 388 46 660 38<482.5 515.5>
VStem: 301 71 464 139 510 133
AnchorPoint: "Anchor-3" 46 -111 basechar 0
LayerCount: 2
Fore
SplineSet
385 32 m 0xfc
 418 32 452 127 461 208 c 2
 463 221 l 2
 470 289 476 343 408 396 c 1xfc
 413 409 l 1
 485 446 538 507 549 607 c 0
 553 644 525 660 506 660 c 0
 409 660 379 550 344 442 c 2
 322 374 l 2
 294 286 276 222 245 130 c 0
 206 12 135 -111 97 -158 c 0
 55 -209 -1 -233 -50 -233 c 0
 -132 -233 -160 -195 -157 -168 c 0
 -155 -148 -138 -122 -105 -122 c 0
 -82 -122 -62 -144 -53 -158 c 0
 -45 -172 -42 -184 -23 -184 c 0
 -5 -184 21 -168 36 -148 c 0
 87 -79 95 28 127 141 c 0
 153 232 169 282 198 374 c 0
 199 381 197 384 187 385 c 2
 141 390 l 2
 136 391 132 392 133 397 c 0
 134 405 143 434 167 434 c 0
 198 434 221 450 232 477 c 0
 293 639 430 698 535 698 c 0
 577 698 624 692 647 675 c 0
 674 655 684 623 682 600 c 0xfa
 673 518 595 453 474 411 c 1
 474 409 l 1
 553 385 611 307 601 216 c 0
 591 121 492 -10 372 -10 c 0
 289 -10 272 45 290 98 c 0
 296 116 321 146 349 146 c 0
 373 146 394 130 386 106 c 0
 379 86 360 75 353 53 c 0
 349 41 367 32 385 32 c 0xfc
EndSplineSet
Substitution2: "'ss03' Style Set 3 lookup 42 subtable" germandbls.ss03
AlternateSubs2: "'salt' Stylistic Alternatives lookup 21 subtable" germandbls.ss03 germandbls.alt
MultipleSubs2: "'smcp' Lowercase to Small Capitals lookup 10 subtable" germandbls.sc
EndChar

StartChar: agrave
Encoding: 224 224 160
Width: 558
GlyphClass: 2
Flags: MW
HStem: -10 95<109.5 234> 397 42<348.5 380.5> 411 20G<456 468> 416 20G<510 525.5>
VStem: 75 125 338 121
LayerCount: 2
Fore
SplineSet
519 436 m 0x9c
 532 436 539 429 538 415 c 0x9c
 536 398 520 360 507 320 c 2
 444 124 l 2
 440 110 434 94 433 81 c 0
 432 71 434 63 442 63 c 0
 452 63 488 80 517 110 c 1
 531 110 541 91 543 82 c 1
 491 23 425 -10 355 -10 c 0
 325 -10 314 3 308 23 c 0
 307 29 307 38 308 47 c 0
 310 64 315 86 322 107 c 2
 329 125 l 1
 325 127 l 1
 256 38 189 -10 146 -10 c 0
 73 -10 45 49 52 118 c 0
 60 192 96 259 147 316 c 0
 209 386 295 439 379 439 c 0xcc
 419 439 417 436 444 433 c 0
 449 432 453 431 459 431 c 0xac
 477 431 501 436 519 436 c 0x9c
354 226 m 1
 386 290 402 378 402 378 c 1
 401 391 391 397 370 397 c 0
 327 397 283 363 249 315 c 0
 213 263 186 196 180 138 c 0
 177 108 187 85 218 85 c 0xcc
 250 85 296 136 354 226 c 1
424 674 m 2
 462 550 l 2
 464 543 467 532 464 524 c 0
 462 515 452 508 443 508 c 0
 435 508 426 513 413 528 c 2
 319 633 l 1
 323 644 l 1
 334 653 368 676 404 676 c 0
 409 676 420 675 424 674 c 2
EndSplineSet
MultipleSubs2: "'smcp' Lowercase to Small Capitals lookup 10 subtable" agrave.sc
EndChar

StartChar: aacute
Encoding: 225 225 161
Width: 558
GlyphClass: 2
Flags: MW
HStem: -10 95<109.5 234> 397 42<348.5 380.5> 411 20G<456 468> 416 20G<510 525.5>
VStem: 75 125 338 121
LayerCount: 2
Fore
SplineSet
519 436 m 0x9c
 532 436 539 429 538 415 c 0x9c
 536 398 520 360 507 320 c 2
 444 124 l 2
 440 110 434 94 433 81 c 0
 432 71 434 63 442 63 c 0
 452 63 488 80 517 110 c 1
 531 110 541 91 543 82 c 1
 491 23 425 -10 355 -10 c 0
 325 -10 314 3 308 23 c 0
 307 29 307 38 308 47 c 0
 310 64 315 86 322 107 c 2
 329 125 l 1
 325 127 l 1
 256 38 189 -10 146 -10 c 0
 73 -10 45 49 52 118 c 0
 60 192 96 259 147 316 c 0
 209 386 295 439 379 439 c 0xcc
 419 439 417 436 444 433 c 0
 449 432 453 431 459 431 c 0xac
 477 431 501 436 519 436 c 0x9c
354 226 m 1
 386 290 402 378 402 378 c 1
 401 391 391 397 370 397 c 0
 327 397 283 363 249 315 c 0
 213 263 186 196 180 138 c 0
 177 108 187 85 218 85 c 0xcc
 250 85 296 136 354 226 c 1
434 674 m 2
 437 675 445 676 450 676 c 0
 480 676 496 662 502 652 c 1
 505 629 l 1
 359 521 l 2
 343 509 327 505 317 505 c 0
 309 505 303 513 305 519 c 0
 307 525 310 534 318 543 c 2
 434 674 l 2
EndSplineSet
MultipleSubs2: "'smcp' Lowercase to Small Capitals lookup 10 subtable" aacute.sc
EndChar

StartChar: acircumflex
Encoding: 226 226 162
Width: 558
GlyphClass: 2
Flags: MW
HStem: -10 95<110.5 235> 397 42<348.5 380.5> 411 20G<457 469> 416 20G<511 526.5>
VStem: 75 125 338 121
LayerCount: 2
Fore
SplineSet
520 436 m 0x9c
 533 436 539 429 538 415 c 0x9c
 536 398 520 360 507 320 c 2
 445 124 l 2
 441 110 434 94 433 81 c 0
 432 71 434 63 442 63 c 0
 452 63 488 80 517 110 c 1
 531 110 541 91 543 82 c 1
 491 23 426 -10 356 -10 c 0
 326 -10 315 3 309 23 c 0
 308 29 308 38 309 47 c 0
 311 64 316 86 323 107 c 2
 330 125 l 1
 326 127 l 1
 257 38 190 -10 147 -10 c 0
 74 -10 46 49 53 118 c 0
 61 192 97 259 148 316 c 0
 210 386 296 439 380 439 c 0xcc
 420 439 417 436 444 433 c 0
 449 432 454 431 460 431 c 0xac
 478 431 502 436 520 436 c 0x9c
354 226 m 1
 386 290 402 378 402 378 c 1
 401 391 391 397 370 397 c 0
 327 397 284 363 250 315 c 0
 214 263 186 196 180 138 c 0
 177 108 188 85 219 85 c 0xcc
 251 85 296 136 354 226 c 1
435 663 m 1
 453 614 480 570 507 529 c 1
 477 510 l 1
 441 536 417 556 391 593 c 1
 343 554 311 536 264 510 c 1
 244 529 l 1
 290 570 341 615 383 663 c 1
 435 663 l 1
EndSplineSet
MultipleSubs2: "'smcp' Lowercase to Small Capitals lookup 10 subtable" acircumflex.sc
EndChar

StartChar: atilde
Encoding: 227 227 163
Width: 558
GlyphClass: 2
Flags: MW
HStem: -10 95<111.5 236> 397 42<350.5 382.5> 411 20G<459 471> 416 20G<512 527.5> 519 70<429.5 479> 557 71<335.5 337>
VStem: 75 125 338 121
LayerCount: 2
Fore
SplineSet
521 436 m 0x97
 534 436 541 429 540 415 c 0x97
 538 398 522 360 509 320 c 2
 446 124 l 2
 442 110 436 94 435 81 c 0
 434 71 436 63 444 63 c 0
 454 63 490 80 519 110 c 1
 533 110 543 91 545 82 c 1
 493 23 427 -10 357 -10 c 0
 327 -10 317 3 311 23 c 0
 310 29 309 38 310 47 c 0
 312 64 318 86 325 107 c 2
 331 125 l 1
 328 127 l 1
 259 38 191 -10 148 -10 c 0
 75 -10 48 49 55 118 c 0
 63 192 99 259 150 316 c 0
 212 386 297 439 381 439 c 0xc7
 421 439 419 436 446 433 c 0
 451 432 456 431 462 431 c 0xa7
 480 431 503 436 521 436 c 0x97
356 226 m 1
 388 290 404 378 404 378 c 1
 403 391 393 397 372 397 c 0
 329 397 285 363 251 315 c 0
 215 263 188 196 182 138 c 0
 179 108 189 85 220 85 c 0xc7
 252 85 298 136 356 226 c 1
472 589 m 0xcb
 486 589 509 596 532 632 c 1
 546 632 558 624 555 612 c 0
 524 554 478 519 441 519 c 0xcb
 418 519 397 525 381 540 c 0
 364 553 346 557 328 557 c 0
 306 557 289 555 269 517 c 1
 257 517 244 521 247 535 c 1
 276 586 318 628 353 628 c 0xc7
 384 628 405 619 421 603 c 0
 436 589 461 589 472 589 c 0xcb
EndSplineSet
MultipleSubs2: "'smcp' Lowercase to Small Capitals lookup 10 subtable" atilde.sc
EndChar

StartChar: adieresis
Encoding: 228 228 164
Width: 558
GlyphClass: 2
Flags: MW
HStem: -10 95<111.5 236> 397 42<350.5 382.5> 411 20G<459 471> 416 20G<512 527.5> 519 109<288.5 297.5 462.5 472>
VStem: 75 125 213 103 338 121 388 103
LayerCount: 2
Fore
SplineSet
521 436 m 0x9c80
 534 436 541 429 540 415 c 0x9c80
 538 398 522 360 509 320 c 2
 447 124 l 2
 443 110 436 94 435 81 c 0
 434 71 436 63 444 63 c 0
 454 63 490 80 519 110 c 1
 533 110 543 91 545 82 c 1
 493 23 427 -10 357 -10 c 0
 327 -10 317 3 311 23 c 0
 310 29 309 38 310 47 c 0
 312 64 318 86 325 107 c 2
 332 125 l 1
 328 127 l 1
 259 38 191 -10 148 -10 c 0
 75 -10 48 49 55 118 c 0
 63 192 99 259 150 316 c 0
 212 386 298 439 382 439 c 0xcd
 422 439 419 436 446 433 c 0
 451 432 456 431 462 431 c 0xac80
 480 431 503 436 521 436 c 0x9c80
356 226 m 1
 388 290 404 378 404 378 c 1
 403 391 393 397 372 397 c 0
 329 397 286 363 252 315 c 0
 216 263 188 196 182 138 c 0
 179 108 189 85 220 85 c 0xcc80
 252 85 298 136 356 226 c 1
241 573 m 0xce80
 246 604 274 628 303 628 c 0
 332 628 349 604 344 573 c 0
 339 543 312 519 283 519 c 0
 255 519 236 543 241 573 c 0xce80
416 573 m 0
 421 604 448 628 477 628 c 0
 506 628 524 604 519 573 c 0
 514 543 486 519 458 519 c 0
 428 519 411 543 416 573 c 0
EndSplineSet
MultipleSubs2: "'smcp' Lowercase to Small Capitals lookup 10 subtable" adieresis.sc
EndChar

StartChar: aring
Encoding: 229 229 165
Width: 558
GlyphClass: 2
Flags: MW
HStem: -10 95<109.5 234> 397 42<348.5 380.5> 411 20G<456 468> 416 20G<510 525.5> 510 34<381.5 410.5 381.5 411.5> 642 34<406 433.5>
VStem: 75 125 296 38 338 121 429 38
AnchorPoint: "Anchor-0" 477 834 basechar 0
LayerCount: 2
Fore
SplineSet
519 436 m 0x9f40
 532 436 539 429 538 415 c 0x9f40
 536 398 520 360 507 320 c 2
 444 124 l 2
 440 110 434 94 433 81 c 0
 432 71 434 63 442 63 c 0
 452 63 488 80 517 110 c 1
 531 110 541 91 543 82 c 1
 491 23 425 -10 355 -10 c 0
 325 -10 314 3 308 23 c 0
 307 29 307 38 308 47 c 0
 310 64 315 86 322 107 c 2
 329 125 l 1
 325 127 l 1
 256 38 189 -10 146 -10 c 0
 73 -10 45 49 52 118 c 0
 60 192 96 259 147 316 c 0
 209 386 295 439 379 439 c 0xce80
 419 439 417 436 444 433 c 0
 449 432 453 431 459 431 c 0xaf40
 477 431 501 436 519 436 c 0x9f40
354 226 m 1
 386 290 402 378 402 378 c 1
 401 391 391 397 370 397 c 0
 327 397 283 363 249 315 c 0
 213 263 186 196 180 138 c 0
 177 108 187 85 218 85 c 0xcf40
 250 85 296 136 354 226 c 1
323 593 m 0
 335 639 382 676 429 676 c 0
 474 676 506 640 494 593 c 0
 483 548 435 510 388 510 c 0
 342 510 312 547 323 593 c 0
420 642 m 0
 392 642 368 621 361 593 c 0
 354 567 367 544 396 544 c 0
 425 544 449 567 456 593 c 0
 463 622 447 642 420 642 c 0
EndSplineSet
MultipleSubs2: "'smcp' Lowercase to Small Capitals lookup 10 subtable" aring.sc
EndChar

StartChar: ae
Encoding: 230 230 166
Width: 715
GlyphClass: 2
Flags: MW
HStem: -10 50<193 219.5> -10 56<492.5 523> 209 44 217 43 397 42<317 355.5 607 633.5>
VStem: 61 116 127 119 646 118
AnchorPoint: "Anchor-0" 535 645 basechar 0
LayerCount: 2
Fore
SplineSet
338 397 m 0xab
 296 397 263 381 259 342 c 0
 258 334 257 320 254 315 c 0
 245 299 228 280 189 280 c 0
 149 280 136 305 138 323 c 0
 145 394 266 439 357 439 c 0
 379 439 447 433 462 381 c 0
 463 380 464 380 466 381 c 0
 468 381 469 381 470 380 c 0
 514 422 580 439 634 439 c 0
 751 439 782 383 778 346 c 0
 775 316 756 288 735 273 c 0
 691 239 610 224 461 217 c 1
 454 196 450 177 448 159 c 0
 441 89 468 46 517 46 c 0
 559 46 602 64 652 106 c 1x5b
 666 103 673 94 680 83 c 1
 633 29 562 -10 484 -10 c 0
 402 -10 368 35 358 63 c 1
 354 63 l 1
 310 18 246 -10 193 -10 c 0
 89 -10 41 28 47 85 c 0
 51 127 81 159 110 182 c 0xad
 162 223 243 244 358 253 c 1
 371 295 378 318 380 339 c 0
 384 373 373 397 338 397 c 0xab
301 94 m 0xad
 311 112 326 162 343 209 c 1
 276 201 228 180 199 153 c 0
 179 136 167 117 164 89 c 0
 161 60 174 40 212 40 c 0
 237 40 269 53 301 94 c 0xad
619 397 m 0
 566 397 513 339 478 260 c 1
 552 265 599 268 628 288 c 0x9d
 644 300 657 321 660 347 c 0
 663 372 648 397 619 397 c 0
EndSplineSet
MultipleSubs2: "'smcp' Lowercase to Small Capitals lookup 10 subtable" ae.sc
EndChar

StartChar: ccedilla
Encoding: 231 231 167
Width: 434
GlyphClass: 2
Flags: MW
HStem: -211 29<152 177 152 182.5> -9 21G<200 200 235 235> -9 75<200 301 235 301> 402 42<333.5 375>
VStem: 72 132 248 66
LayerCount: 2
Fore
SplineSet
143 -97 m 1xdc
 138 -91 l 1
 200 -9 l 1
 147 -6 116 9 93 42 c 0
 69 78 66 136 87 201 c 0
 134 349 269 444 379 444 c 0
 480 444 514 394 497 340 c 0
 487 309 459 284 429 284 c 0
 399 284 381 304 387 331 c 0
 394 363 392 402 358 402 c 0
 309 402 259 347 223 236 c 0
 189 128 223 66 284 66 c 0
 318 66 351 81 400 118 c 1
 409 118 419 96 418 87 c 1
 369 36 295 -4 235 -9 c 1xbc
 217 -37 l 1
 260 -46 303 -66 289 -121 c 0
 277 -171 215 -211 150 -211 c 0
 118 -211 112 -205 90 -194 c 1
 92 -184 97 -172 106 -168 c 1
 131 -178 142 -182 162 -182 c 0
 192 -182 214 -168 221 -141 c 0
 231 -103 179 -99 143 -97 c 1xdc
EndSplineSet
MultipleSubs2: "'smcp' Lowercase to Small Capitals lookup 10 subtable" ccedilla.sc
EndChar

StartChar: egrave
Encoding: 232 232 168
Width: 409
GlyphClass: 2
Flags: MW
HStem: -10 60<195.5 206.5> 398 41<298.5 328.5>
VStem: 63 129 343 113
LayerCount: 2
Fore
SplineSet
179 199 m 1
 177 191 175 170 174 165 c 0
 167 98 176 50 215 50 c 0
 263 50 296 66 359 124 c 1
 371 124 384 110 388 99 c 1
 321 23 240 -10 173 -10 c 0
 53 -10 34 57 43 142 c 0
 56 269 151 439 345 439 c 0
 426 439 464 404 460 369 c 0
 458 351 454 317 420 288 c 0
 383 255 308 226 179 199 c 1
328 674 m 2
 366 550 l 2
 368 543 371 532 368 524 c 0
 366 515 356 508 347 508 c 0
 339 508 330 513 317 528 c 2
 223 633 l 1
 227 644 l 1
 238 653 272 676 308 676 c 0
 313 676 324 675 328 674 c 2
347 370 m 0
 349 390 339 398 318 398 c 0
 279 398 239 378 190 237 c 1
 244 246 338 280 347 370 c 0
EndSplineSet
MultipleSubs2: "'smcp' Lowercase to Small Capitals lookup 10 subtable" egrave.sc
EndChar

StartChar: eacute
Encoding: 233 233 169
Width: 409
GlyphClass: 2
Flags: MW
HStem: -10 60<195.5 206.5> 398 41<298.5 328.5>
VStem: 63 129 343 113
LayerCount: 2
Fore
SplineSet
179 199 m 1
 177 191 175 170 174 165 c 0
 167 98 176 50 215 50 c 0
 263 50 296 66 359 124 c 1
 371 124 384 110 388 99 c 1
 321 23 240 -10 173 -10 c 0
 53 -10 34 57 43 142 c 0
 56 269 151 439 345 439 c 0
 426 439 464 404 460 369 c 0
 458 351 454 317 420 288 c 0
 383 255 308 226 179 199 c 1
370 674 m 2
 373 675 381 676 386 676 c 0
 416 676 432 662 438 652 c 1
 441 629 l 1
 295 521 l 2
 279 509 263 505 253 505 c 0
 245 505 239 513 241 519 c 0
 243 525 246 534 254 543 c 2
 370 674 l 2
347 370 m 0
 349 390 339 398 318 398 c 0
 279 398 239 378 190 237 c 1
 244 246 338 280 347 370 c 0
EndSplineSet
MultipleSubs2: "'smcp' Lowercase to Small Capitals lookup 10 subtable" eacute.sc
EndChar

StartChar: ecircumflex
Encoding: 234 234 170
Width: 409
GlyphClass: 2
Flags: MW
HStem: -10 60<196.5 207.5> 398 41<299.5 329.5>
VStem: 63 129 343 113
LayerCount: 2
Fore
SplineSet
180 199 m 1
 178 191 176 170 175 165 c 0
 168 98 177 50 216 50 c 0
 264 50 297 66 360 124 c 1
 372 124 385 110 389 99 c 1
 322 23 241 -10 174 -10 c 0
 54 -10 35 57 44 142 c 0
 57 269 152 439 346 439 c 0
 427 439 464 404 460 369 c 0
 458 351 455 317 421 288 c 0
 384 255 309 226 180 199 c 1
395 663 m 1
 413 614 440 570 467 529 c 1
 437 510 l 1
 401 536 377 556 351 593 c 1
 303 554 271 536 224 510 c 1
 204 529 l 1
 250 570 301 615 343 663 c 1
 395 663 l 1
348 370 m 0
 350 390 340 398 319 398 c 0
 280 398 240 378 191 237 c 1
 245 246 339 280 348 370 c 0
EndSplineSet
MultipleSubs2: "'smcp' Lowercase to Small Capitals lookup 10 subtable" ecircumflex.sc
EndChar

StartChar: edieresis
Encoding: 235 235 171
Width: 409
GlyphClass: 2
Flags: MW
HStem: -6 60<198.5 209.5> 402 41<301.5 331.5> 519 109<273.5 283.5 447.5 458>
VStem: 63 129 199 103 343 113 374 103
LayerCount: 2
Fore
SplineSet
182 203 m 1xd4
 180 195 178 174 177 169 c 0
 170 102 179 54 218 54 c 0
 266 54 299 70 362 128 c 1
 374 128 387 114 391 103 c 1
 324 27 243 -6 176 -6 c 0
 56 -6 37 61 46 146 c 0
 59 273 154 443 348 443 c 0
 429 443 467 408 463 373 c 0
 461 355 457 321 423 292 c 0
 386 259 311 230 182 203 c 1xd4
350 374 m 0
 352 394 342 402 321 402 c 0
 282 402 242 382 193 241 c 1
 247 250 341 284 350 374 c 0
227 573 m 0xea
 232 604 259 628 288 628 c 0
 317 628 335 604 330 573 c 0
 325 543 298 519 269 519 c 0
 241 519 222 543 227 573 c 0xea
402 573 m 0
 407 604 433 628 462 628 c 0
 491 628 510 604 505 573 c 0
 500 543 472 519 444 519 c 0
 414 519 397 543 402 573 c 0
EndSplineSet
MultipleSubs2: "'smcp' Lowercase to Small Capitals lookup 10 subtable" edieresis.sc
EndChar

StartChar: igrave
Encoding: 236 236 172
Width: 342
GlyphClass: 2
Flags: MW
HStem: -10 21G<118 168> -10 73<118 232> 416 20G<288 310.5>
VStem: 115 239
LayerCount: 2
Fore
SplineSet
292 320 m 2xb0
 229 124 l 2
 220 98 210 63 227 63 c 0
 237 63 273 80 302 110 c 1x70
 316 110 326 91 328 82 c 1
 276 23 203 -10 133 -10 c 0
 103 -10 93 3 87 23 c 0
 83 41 94 83 104 115 c 2
 170 321 l 2
 179 347 179 353 180 362 c 0
 181 372 176 381 164 382 c 2
 124 385 l 1
 119 394 122 415 130 423 c 1
 178 429 272 436 304 436 c 0
 317 436 324 429 323 415 c 0
 321 398 305 360 292 320 c 2xb0
287 674 m 2
 325 550 l 2
 327 543 330 532 327 524 c 0
 325 515 315 508 306 508 c 0
 298 508 289 513 276 528 c 2
 182 633 l 1
 186 644 l 1
 197 653 231 676 267 676 c 0
 272 676 283 675 287 674 c 2
EndSplineSet
MultipleSubs2: "'smcp' Lowercase to Small Capitals lookup 10 subtable" igrave.sc
EndChar

StartChar: iacute
Encoding: 237 237 173
Width: 342
GlyphClass: 2
Flags: MW
HStem: -10 21G<118 168> -10 73<118 232> 416 20G<288 310.5>
VStem: 115 258
LayerCount: 2
Fore
SplineSet
292 320 m 2xb0
 229 124 l 2
 220 98 210 63 227 63 c 0
 237 63 273 80 302 110 c 1x70
 316 110 326 91 328 82 c 1
 276 23 203 -10 133 -10 c 0
 103 -10 93 3 87 23 c 0
 83 41 94 83 104 115 c 2
 170 321 l 2
 179 347 179 353 180 362 c 0
 181 372 176 381 164 382 c 2
 124 385 l 1
 119 394 122 415 130 423 c 1
 178 429 272 436 304 436 c 0
 317 436 324 429 323 415 c 0
 321 398 305 360 292 320 c 2xb0
333 674 m 2
 336 675 344 676 349 676 c 0
 379 676 395 662 401 652 c 1
 404 629 l 1
 258 521 l 2
 242 509 226 505 216 505 c 0
 208 505 202 513 204 519 c 0
 206 525 209 534 217 543 c 2
 333 674 l 2
EndSplineSet
MultipleSubs2: "'smcp' Lowercase to Small Capitals lookup 10 subtable" iacute.sc
EndChar

StartChar: icircumflex
Encoding: 238 238 174
Width: 342
GlyphClass: 2
Flags: MW
HStem: -10 21G<119 169> -10 73<119 232> 416 20G<289 311.5>
VStem: 103 263
LayerCount: 2
Fore
SplineSet
292 320 m 2xb0
 230 124 l 2
 221 98 210 63 227 63 c 0
 237 63 273 80 302 110 c 1x70
 316 110 326 91 328 82 c 1
 276 23 204 -10 134 -10 c 0
 104 -10 94 3 88 23 c 0
 84 41 95 83 105 115 c 2
 170 321 l 2
 179 347 180 353 181 362 c 0
 182 372 177 381 165 382 c 2
 125 385 l 1
 120 394 123 415 131 423 c 1
 179 429 273 436 305 436 c 0
 318 436 324 429 323 415 c 0
 321 398 305 360 292 320 c 2xb0
315 663 m 1
 333 614 360 570 387 529 c 1
 357 510 l 1
 321 536 297 556 271 593 c 1
 223 554 191 536 144 510 c 1
 124 529 l 1
 170 570 221 615 263 663 c 1
 315 663 l 1
EndSplineSet
MultipleSubs2: "'smcp' Lowercase to Small Capitals lookup 10 subtable" icircumflex.sc
EndChar

StartChar: idieresis
Encoding: 239 239 175
Width: 342
GlyphClass: 2
Flags: MW
HStem: -10 21G<120 170> -10 73<120 234> 416 20G<290 312.5> 519 109<191.5 200.5 365.5 375>
VStem: 116 103 291 103
LayerCount: 2
Fore
SplineSet
294 320 m 2xbc
 232 124 l 2
 223 98 212 63 229 63 c 0
 239 63 275 80 304 110 c 1x7c
 318 110 328 91 330 82 c 1
 278 23 205 -10 135 -10 c 0
 105 -10 96 3 90 23 c 0
 86 41 97 83 107 115 c 2
 172 321 l 2
 181 347 182 353 183 362 c 0
 184 372 179 381 167 382 c 2
 127 385 l 1
 122 394 125 415 133 423 c 1
 181 429 274 436 306 436 c 0
 319 436 326 429 325 415 c 0
 323 398 307 360 294 320 c 2xbc
144 573 m 0
 149 604 177 628 206 628 c 0
 235 628 252 604 247 573 c 0
 242 543 215 519 186 519 c 0
 158 519 139 543 144 573 c 0
319 573 m 0
 324 604 351 628 380 628 c 0
 409 628 427 604 422 573 c 0
 417 543 389 519 361 519 c 0
 331 519 314 543 319 573 c 0
EndSplineSet
MultipleSubs2: "'smcp' Lowercase to Small Capitals lookup 10 subtable" idieresis.sc
EndChar

StartChar: eth
Encoding: 240 240 176
Width: 559
GlyphClass: 2
Flags: MW
HStem: -10 42<230.5 261.5> 402 37 580 20G<483 483> 678 20G<362 362>
VStem: 77 140 445 135
LayerCount: 2
Fore
SplineSet
67 209 m 0
 94 290 146 345 204 382 c 0
 272 425 346 444 394 444 c 0
 410 444 428 442 444 439 c 1
 440 485 425 526 404 557 c 1
 361 533 307 503 269 483 c 1
 257 519 l 1
 386 589 l 1
 367 616 346 645 325 664 c 1
 362 698 l 1
 400 673 433 650 455 627 c 1
 497 651 553 681 591 702 c 1
 604 666 l 1
 483 600 l 1
 513 562 550 515 567 462 c 0
 588 400 586 324 558 239 c 0
 531 156 487 93 430 52 c 0
 368 9 293 -10 230 -10 c 0
 92 -10 33 105 67 209 c 0
259 32 m 0
 297 32 361 67 413 225 c 0
 428 271 440 320 447 361 c 1
 433 385 408 402 379 402 c 0
 296 402 237 300 212 227 c 0
 176 116 202 32 259 32 c 0
EndSplineSet
MultipleSubs2: "'smcp' Lowercase to Small Capitals lookup 10 subtable" eth.sc
EndChar

StartChar: ntilde
Encoding: 241 241 177
Width: 614
GlyphClass: 2
Flags: MW
HStem: -10 21G<93 151.5 394 444> -10 73<394 508> 369 70<400 519.5> 416 20G<262 284.5> 519 70<484.5 534> 557 71<390.5 392>
VStem: 93 196 155 134 391 127 447 129
LayerCount: 2
Fore
SplineSet
133 243 m 2x9580
 155 309 158 341 159 352 c 0
 160 364 158 381 144 382 c 2x9580
 105 385 l 1
 100 394 103 415 111 423 c 1x9680
 159 429 246 436 278 436 c 0
 291 436 301 426 300 412 c 0x9580
 298 395 289 353 276 311 c 1
 278 309 l 1
 381 417 436 439 500 439 c 0
 539 439 587 419 581 359 c 0
 579 341 572 318 560 283 c 2xa540
 505 124 l 2
 496 98 486 63 503 63 c 0
 513 63 549 80 578 110 c 1x5580
 592 110 602 91 604 82 c 1
 552 23 479 -10 409 -10 c 0
 379 -10 370 3 364 23 c 0
 360 41 369 83 380 115 c 2x9580
 434 275 l 2
 446 309 448 319 449 333 c 0
 452 364 439 369 418 369 c 0xa540
 382 369 325 310 253 228 c 1
 199 72 l 2
 185 33 182 -10 121 -10 c 0
 65 -10 56 1 58 17 c 0
 59 27 70 52 77 72 c 2
 133 243 l 2x9580
527 589 m 0x9980
 541 589 564 596 587 632 c 1
 601 632 613 624 610 612 c 0
 579 554 533 519 496 519 c 0x9980
 473 519 452 525 436 540 c 0
 419 553 401 557 383 557 c 0
 361 557 344 555 324 517 c 1
 312 517 299 521 302 535 c 1
 331 586 373 628 408 628 c 0x9580
 439 628 460 619 476 603 c 0
 491 589 516 589 527 589 c 0x9980
EndSplineSet
MultipleSubs2: "'smcp' Lowercase to Small Capitals lookup 10 subtable" ntilde.sc
EndChar

StartChar: ograve
Encoding: 242 242 178
Width: 479
GlyphClass: 2
Flags: MW
HStem: -10 42<120.5 275> 397 42<328 348.5>
VStem: 67 129 371 129
AnchorPoint: "Anchor-6" 194 -3 basechar 0
AnchorPoint: "Anchor-5" 340 44 basechar 0
AnchorPoint: "Anchor-3" 139 -107 basechar 0
LayerCount: 2
Fore
SplineSet
184 -10 m 0
 57 -10 42 98 49 162 c 0
 58 249 126 353 225 405 c 0
 262 425 305 439 351 439 c 0
 474 439 503 353 495 281 c 0
 481 146 399 58 307 14 c 0
 275 -1 225 -10 184 -10 c 0
179 170 m 0
 167 58 194 32 223 32 c 0
 327 32 354 177 363 260 c 0
 369 318 375 397 322 397 c 0
 221 397 190 270 179 170 c 0
412 674 m 2
 450 550 l 2
 452 543 455 532 452 524 c 0
 450 515 440 508 431 508 c 0
 423 508 414 513 401 528 c 2
 307 633 l 1
 311 644 l 1
 322 653 356 676 392 676 c 0
 397 676 408 675 412 674 c 2
EndSplineSet
MultipleSubs2: "'smcp' Lowercase to Small Capitals lookup 10 subtable" ograve.sc
EndChar

StartChar: oacute
Encoding: 243 243 179
Width: 479
GlyphClass: 2
Flags: MW
HStem: -10 42<120.5 275> 397 42<328 348.5>
VStem: 67 129 371 129
AnchorPoint: "Anchor-6" 194 -3 basechar 0
AnchorPoint: "Anchor-5" 340 44 basechar 0
AnchorPoint: "Anchor-3" 139 -107 basechar 0
LayerCount: 2
Fore
SplineSet
184 -10 m 0
 57 -10 42 98 49 162 c 0
 58 249 126 353 225 405 c 0
 262 425 305 439 351 439 c 0
 474 439 503 353 495 281 c 0
 481 146 399 58 307 14 c 0
 275 -1 225 -10 184 -10 c 0
179 170 m 0
 167 58 194 32 223 32 c 0
 327 32 354 177 363 260 c 0
 369 318 375 397 322 397 c 0
 221 397 190 270 179 170 c 0
400 674 m 2
 403 675 411 676 416 676 c 0
 446 676 462 662 468 652 c 1
 471 629 l 1
 325 521 l 2
 309 509 293 505 283 505 c 0
 275 505 269 513 271 519 c 0
 273 525 276 534 284 543 c 2
 400 674 l 2
EndSplineSet
MultipleSubs2: "'smcp' Lowercase to Small Capitals lookup 10 subtable" oacute.sc
EndChar

StartChar: ocircumflex
Encoding: 244 244 180
Width: 479
GlyphClass: 2
Flags: MW
HStem: -10 42<121.5 276> 397 42<329 348.5>
VStem: 67 129 371 129
AnchorPoint: "Anchor-6" 194 -3 basechar 0
AnchorPoint: "Anchor-5" 340 44 basechar 0
AnchorPoint: "Anchor-3" 139 -107 basechar 0
LayerCount: 2
Fore
SplineSet
185 -10 m 0
 58 -10 43 98 50 162 c 0
 59 249 126 353 225 405 c 0
 262 425 306 439 352 439 c 0
 475 439 503 353 495 281 c 0
 481 146 400 58 308 14 c 0
 276 -1 226 -10 185 -10 c 0
180 170 m 0
 168 58 195 32 224 32 c 0
 328 32 355 177 364 260 c 0
 370 318 375 397 322 397 c 0
 221 397 191 270 180 170 c 0
415 663 m 1
 433 614 460 570 487 529 c 1
 457 510 l 1
 421 536 397 556 371 593 c 1
 323 554 291 536 244 510 c 1
 224 529 l 1
 270 570 321 615 363 663 c 1
 415 663 l 1
EndSplineSet
MultipleSubs2: "'smcp' Lowercase to Small Capitals lookup 10 subtable" ocircumflex.sc
EndChar

StartChar: otilde
Encoding: 245 245 181
Width: 479
GlyphClass: 2
Flags: MW
HStem: -10 42<122.5 278> 397 42<330 350.5> 519 70<389.5 439> 557 71<295.5 297>
VStem: 67 129 371 129
AnchorPoint: "Anchor-6" 196 -3 basechar 0
AnchorPoint: "Anchor-5" 342 44 basechar 0
AnchorPoint: "Anchor-3" 141 -107 basechar 0
LayerCount: 2
Fore
SplineSet
186 -10 m 0xdc
 59 -10 44 98 51 162 c 0
 60 249 128 353 227 405 c 0
 264 425 307 439 353 439 c 0
 476 439 505 353 497 281 c 0
 483 146 402 58 310 14 c 0
 278 -1 227 -10 186 -10 c 0xdc
181 170 m 0
 169 58 197 32 226 32 c 0
 330 32 357 177 366 260 c 0
 372 318 377 397 324 397 c 0
 223 397 192 270 181 170 c 0
432 589 m 0xec
 446 589 469 596 492 632 c 1
 506 632 518 624 515 612 c 0
 484 554 438 519 401 519 c 0xec
 378 519 357 525 341 540 c 0
 324 553 306 557 288 557 c 0
 266 557 249 555 229 517 c 1
 217 517 204 521 207 535 c 1
 236 586 278 628 313 628 c 0xdc
 344 628 365 619 381 603 c 0
 396 589 421 589 432 589 c 0xec
EndSplineSet
MultipleSubs2: "'smcp' Lowercase to Small Capitals lookup 10 subtable" otilde.sc
EndChar

StartChar: odieresis
Encoding: 246 246 182
Width: 479
GlyphClass: 2
Flags: MW
HStem: -10 42<122.5 278> 397 42<331 350.5> 519 109<292.5 301.5 466.5 476>
VStem: 67 129 217 103 371 129 392 103
AnchorPoint: "Anchor-6" 196 -3 basechar 0
AnchorPoint: "Anchor-5" 342 44 basechar 0
AnchorPoint: "Anchor-3" 141 -107 basechar 0
LayerCount: 2
Fore
SplineSet
186 -10 m 0xd4
 59 -10 45 98 52 162 c 0
 61 249 128 353 227 405 c 0
 264 425 308 439 354 439 c 0
 477 439 505 353 497 281 c 0
 483 146 402 58 310 14 c 0
 278 -1 227 -10 186 -10 c 0xd4
181 170 m 0
 169 58 197 32 226 32 c 0
 330 32 357 177 366 260 c 0
 372 318 377 397 324 397 c 0
 223 397 192 270 181 170 c 0
245 573 m 0xfa
 250 604 278 628 307 628 c 0
 336 628 353 604 348 573 c 0
 343 543 316 519 287 519 c 0
 259 519 240 543 245 573 c 0xfa
420 573 m 0
 425 604 452 628 481 628 c 0
 510 628 528 604 523 573 c 0
 518 543 490 519 462 519 c 0
 432 519 415 543 420 573 c 0
EndSplineSet
MultipleSubs2: "'smcp' Lowercase to Small Capitals lookup 10 subtable" odieresis.sc
EndChar

StartChar: divide
Encoding: 247 247 183
Width: 527
GlyphClass: 2
Flags: MW
HStem: 34 98<235.5 291.5> 219 49<130 509 113 525> 359 99<341 397.5>
VStem: 116 407 230 101 302 101
LayerCount: 2
Fore
SplineSet
525 268 m 1x50
 509 219 l 1
 113 219 l 1
 130 268 l 1
 525 268 l 1x50
318 397 m 0x64
 321 428 353 458 386 458 c 0
 409 458 423 441 421 419 c 0
 418 386 382 359 353 359 c 0
 329 359 316 375 318 397 c 0x64
212 72 m 0xc8
 215 102 247 132 280 132 c 0
 303 132 317 116 315 94 c 0
 311 60 276 34 247 34 c 0
 224 34 210 50 212 72 c 0xc8
EndSplineSet
EndChar

StartChar: oslash
Encoding: 248 248 184
Width: 479
GlyphClass: 2
Flags: MW
HStem: -10 42<184.5 293> 397 42<346 353.5> 451 20G<505 505>
VStem: 72 129 376 129
AnchorPoint: "Anchor-6" 206 -3 basechar 0
AnchorPoint: "Anchor-5" 352 44 basechar 0
AnchorPoint: "Anchor-3" 151 -107 basechar 0
LayerCount: 2
Fore
SplineSet
505 471 m 1
 536 446 l 1
 486 392 l 1
 511 361 516 319 512 281 c 0
 498 146 417 58 325 14 c 0
 293 -1 242 -10 201 -10 c 0
 168 -10 143 -3 123 9 c 1
 76 -41 l 1
 46 -13 l 1
 93 37 l 1
 66 74 62 125 66 162 c 0
 75 249 143 353 242 405 c 0
 279 425 323 439 369 439 c 0
 406 439 433 431 455 419 c 1
 505 471 l 1
383 343 m 1
 379 374 368 397 339 397 c 0
 238 397 207 270 196 170 c 0
 195 161 194 152 194 143 c 1
 383 343 l 1
383 284 m 1
 195 86 l 1
 202 44 221 32 241 32 c 0
 345 32 372 177 381 260 c 2
 383 284 l 1
EndSplineSet
MultipleSubs2: "'smcp' Lowercase to Small Capitals lookup 10 subtable" oslash.sc
EndChar

StartChar: ugrave
Encoding: 249 249 185
Width: 646
GlyphClass: 2
Flags: MW
HStem: -10 21G<425 475> -6 82<117 223> 370 73<185 299>
VStem: 144 128 423 121
LayerCount: 2
Fore
SplineSet
407 107 m 2xb8
 407 107 399 80 412 122 c 1
 410 124 l 1
 307 16 249 -6 197 -6 c 0
 158 -6 111 16 117 76 c 1
 117 78 l 2
 119 95 121 116 133 150 c 2
 187 309 l 2
 196 335 207 370 190 370 c 0
 180 370 144 353 115 323 c 1
 101 323 91 342 89 351 c 1
 141 410 214 443 284 443 c 0
 314 443 323 431 329 410 c 0
 333 392 322 350 312 318 c 2
 259 158 l 2
 245 117 244 76 281 76 c 0x78
 317 76 358 123 430 205 c 1
 484 361 l 2
 497 400 501 443 562 443 c 0
 618 443 627 433 625 416 c 0
 624 406 612 381 606 361 c 2
 529 124 l 2
 525 110 519 94 518 81 c 0
 517 71 519 63 527 63 c 0
 537 63 573 80 602 110 c 1
 616 110 626 91 628 82 c 1
 576 23 510 -10 440 -10 c 0
 410 -10 399 3 393 23 c 0
 392 29 392 38 393 47 c 0
 395 64 401 86 407 107 c 2xb8
437 674 m 2
 475 550 l 2
 477 543 480 532 477 524 c 0
 475 515 465 508 456 508 c 0
 448 508 439 513 426 528 c 2
 332 633 l 1
 336 644 l 1
 347 653 381 676 417 676 c 0
 422 676 433 675 437 674 c 2
EndSplineSet
MultipleSubs2: "'smcp' Lowercase to Small Capitals lookup 10 subtable" ugrave.sc
EndChar

StartChar: uacute
Encoding: 250 250 186
Width: 646
GlyphClass: 2
Flags: MW
HStem: -10 21G<425 475> -6 82<117 223> 370 73<185 299>
VStem: 144 128 423 121
LayerCount: 2
Fore
SplineSet
407 107 m 2xb8
 407 107 399 80 412 122 c 1
 410 124 l 1
 307 16 249 -6 197 -6 c 0
 158 -6 111 16 117 76 c 1
 117 78 l 2
 119 95 121 116 133 150 c 2
 187 309 l 2
 196 335 207 370 190 370 c 0
 180 370 144 353 115 323 c 1
 101 323 91 342 89 351 c 1
 141 410 214 443 284 443 c 0
 314 443 323 431 329 410 c 0
 333 392 322 350 312 318 c 2
 259 158 l 2
 245 117 244 76 281 76 c 0x78
 317 76 358 123 430 205 c 1
 484 361 l 2
 497 400 501 443 562 443 c 0
 618 443 627 433 625 416 c 0
 624 406 612 381 606 361 c 2
 529 124 l 2
 525 110 519 94 518 81 c 0
 517 71 519 63 527 63 c 0
 537 63 573 80 602 110 c 1
 616 110 626 91 628 82 c 1
 576 23 510 -10 440 -10 c 0
 410 -10 399 3 393 23 c 0
 392 29 392 38 393 47 c 0
 395 64 401 86 407 107 c 2xb8
507 674 m 2
 510 675 518 676 523 676 c 0
 553 676 569 662 575 652 c 1
 578 629 l 1
 432 521 l 2
 416 509 400 505 390 505 c 0
 382 505 376 513 378 519 c 0
 380 525 383 534 391 543 c 2
 507 674 l 2
EndSplineSet
MultipleSubs2: "'smcp' Lowercase to Small Capitals lookup 10 subtable" uacute.sc
EndChar

StartChar: ucircumflex
Encoding: 251 251 187
Width: 646
GlyphClass: 2
Flags: MW
HStem: -10 21G<426 476> -6 82<118 224> 370 73<186 299>
VStem: 144 128 423 121
LayerCount: 2
Fore
SplineSet
408 107 m 2xb8
 408 107 400 80 413 122 c 1
 411 124 l 1
 308 16 250 -6 198 -6 c 0
 159 -6 112 16 118 76 c 1
 118 78 l 2
 120 95 121 116 133 150 c 2
 188 309 l 2
 197 335 208 370 191 370 c 0
 181 370 145 353 116 323 c 1
 102 323 92 342 90 351 c 1
 142 410 214 443 284 443 c 0
 314 443 324 431 330 410 c 0
 334 392 323 350 313 318 c 2
 259 158 l 2
 245 117 245 76 282 76 c 0x78
 318 76 358 123 430 205 c 1
 485 361 l 2
 498 400 501 443 562 443 c 0
 618 443 627 433 625 416 c 0
 624 406 613 381 607 361 c 2
 530 124 l 2
 526 110 519 94 518 81 c 0
 517 71 519 63 527 63 c 0
 537 63 573 80 602 110 c 1
 616 110 626 91 628 82 c 1
 576 23 511 -10 441 -10 c 0
 411 -10 400 3 394 23 c 0
 393 29 393 38 394 47 c 0
 396 64 402 86 408 107 c 2xb8
505 663 m 1
 523 614 550 570 577 529 c 1
 547 510 l 1
 511 536 487 556 461 593 c 1
 413 554 381 536 334 510 c 1
 314 529 l 1
 360 570 411 615 453 663 c 1
 505 663 l 1
EndSplineSet
MultipleSubs2: "'smcp' Lowercase to Small Capitals lookup 10 subtable" ucircumflex.sc
EndChar

StartChar: udieresis
Encoding: 252 252 188
Width: 646
GlyphClass: 2
Flags: MW
HStem: -10 21G<427 477> -6 82<120 226> 370 73<187 301> 519 109<338.5 347.5 512.5 522>
VStem: 144 128 263 103 423 121 438 103
LayerCount: 2
Fore
SplineSet
410 107 m 2xba
 410 107 401 80 414 122 c 1
 413 124 l 1
 310 16 252 -6 200 -6 c 0
 161 -6 114 16 120 76 c 1
 120 78 l 2
 122 95 123 116 135 150 c 2
 190 309 l 2
 199 335 209 370 192 370 c 0
 182 370 146 353 117 323 c 1
 103 323 93 342 91 351 c 1
 143 410 216 443 286 443 c 0
 316 443 326 431 332 410 c 0
 336 392 325 350 315 318 c 2
 261 158 l 2
 247 117 247 76 284 76 c 0x7a
 320 76 360 123 432 205 c 1
 486 361 l 2
 499 400 503 443 564 443 c 0
 620 443 629 433 627 416 c 0
 626 406 614 381 608 361 c 2
 532 124 l 2
 528 110 521 94 520 81 c 0
 519 71 521 63 529 63 c 0
 539 63 575 80 604 110 c 1
 618 110 628 91 630 82 c 1
 578 23 512 -10 442 -10 c 0
 412 -10 402 3 396 23 c 0
 395 29 394 38 395 47 c 0
 397 64 404 86 410 107 c 2xba
466 573 m 0xb5
 471 604 498 628 527 628 c 0
 556 628 574 604 569 573 c 0
 564 543 536 519 508 519 c 0
 478 519 461 543 466 573 c 0xb5
291 573 m 0
 296 604 324 628 353 628 c 0
 382 628 399 604 394 573 c 0
 389 543 362 519 333 519 c 0
 305 519 286 543 291 573 c 0
EndSplineSet
MultipleSubs2: "'smcp' Lowercase to Small Capitals lookup 10 subtable" udieresis.sc
EndChar

StartChar: yacute
Encoding: 253 253 189
Width: 514
GlyphClass: 2
Flags: MW
HStem: -237 21G<52 92> -237 85<52 145> 419 20G<263.5 293.5 508.5 531.5>
VStem: 439 122 466 95
LayerCount: 2
Fore
SplineSet
203 338 m 0xa8
 197 349 194 351 181 351 c 0
 160 351 133 339 120 333 c 1
 113 341 107 361 107 372 c 1
 145 393 246 439 281 439 c 0
 306 439 317 418 325 365 c 0
 339 262 338 180 334 87 c 1
 338 86 l 1
 434 222 l 2
 467 269 476 310 478 332 c 0xa8
 480 353 455 375 459 410 c 0xb0
 461 432 498 439 519 439 c 0
 544 439 583 428 579 393 c 0
 574 344 557 304 512 242 c 2
 289 -70 l 2
 216 -171 122 -237 62 -237 c 0
 42 -237 -6 -225 -1 -179 c 0
 4 -135 35 -108 59 -108 c 0
 68 -108 89 -119 96 -128 c 0
 102 -135 126 -152 137 -152 c 0
 153 -152 184 -129 232 -62 c 0x68
 249 -32 232 290 203 338 c 0xa8
487 674 m 2
 490 675 498 676 503 676 c 0
 533 676 548 662 554 652 c 1
 558 629 l 1
 412 521 l 2
 396 509 380 505 370 505 c 0
 362 505 355 513 357 519 c 0
 359 525 363 534 371 543 c 2
 487 674 l 2
EndSplineSet
MultipleSubs2: "'smcp' Lowercase to Small Capitals lookup 10 subtable" yacute.sc
EndChar

StartChar: thorn
Encoding: 254 254 190
Width: 550
GlyphClass: 2
Flags: MW
HStem: -238 40 -233 36 -233 40 -10 42<281 305.5> 388 51<427.5 435> 678 20G<373.5 400.5>
VStem: 236 134 447 128
AnchorPoint: "Anchor-3" 262 -110 basechar 0
AnchorPoint: "Anchor-0" 369 646 basechar 0
LayerCount: 2
Fore
SplineSet
266 563 m 2x3f
 288 632 274 638 212 638 c 1
 210 647 213 660 220 672 c 1
 264 679 358 698 389 698 c 0
 412 698 418 686 416 665 c 0
 414 645 402 616 392 583 c 2
 392 583 354 467 334 404 c 1
 363 420 402 439 453 439 c 0
 553 439 590 373 581 289 c 0
 574 220 518 111 434 45 c 0
 389 10 333 -10 278 -10 c 0
 242 -10 223 7 210 23 c 1
 153 -151 l 2
 141 -185 167 -190 182 -192 c 2
 200 -195 l 2
 204 -196 206 -198 205 -203 c 2
 202 -233 l 1
 200 -235 l 1
 200 -235 132 -233 93 -233 c 0x3f
 57 -233 -54 -238 -54 -238 c 1
 -56 -236 l 1x9f
 -53 -207 l 2
 -52 -201 -47 -200 -42 -199 c 2
 -23 -196 l 2
 10 -191 26 -179 35 -151 c 2x5f
 178 293 l 1
 148 270 123 252 98 223 c 1
 80 223 77 245 74 259 c 1
 106 294 146 324 200 360 c 1
 222 427 266 563 266 563 c 2x3f
452 273 m 0
 457 322 456 388 414 388 c 0
 376 388 345 370 318 354 c 1
 225 75 l 1
 243 46 268 32 294 32 c 0
 381 32 445 207 452 273 c 0
EndSplineSet
MultipleSubs2: "'smcp' Lowercase to Small Capitals lookup 10 subtable" thorn.sc
EndChar

StartChar: ydieresis
Encoding: 255 255 191
Width: 514
GlyphClass: 2
Flags: MW
HStem: -237 21G<55 95> -237 85<55 147> 419 20G<266.5 296.5 511.5 534.5> 519 109<336.5 346.5 510.5 521>
VStem: 250 103 425 103 439 122 466 95
LayerCount: 2
Fore
SplineSet
206 338 m 0xb9
 200 349 196 351 183 351 c 0
 162 351 135 339 122 333 c 1
 115 341 110 361 110 372 c 1
 148 393 249 439 284 439 c 0
 309 439 320 418 328 365 c 0
 342 262 341 180 337 87 c 1
 340 86 l 1
 437 222 l 2
 470 269 478 310 480 332 c 0xb9
 482 353 458 375 462 410 c 0xba
 464 432 501 439 522 439 c 0
 547 439 586 428 582 393 c 0
 577 344 560 304 515 242 c 2
 291 -70 l 2
 218 -171 125 -237 65 -237 c 0
 45 -237 -3 -225 2 -179 c 0
 7 -135 37 -108 61 -108 c 0
 70 -108 92 -119 99 -128 c 0
 105 -135 128 -152 139 -152 c 0
 155 -152 187 -129 235 -62 c 0x79
 252 -32 235 290 206 338 c 0xb9
290 573 m 0
 295 604 322 628 351 628 c 0
 380 628 398 604 393 573 c 0
 388 543 361 519 332 519 c 0
 304 519 285 543 290 573 c 0
465 573 m 0xbc
 470 604 496 628 525 628 c 0
 554 628 573 604 568 573 c 0
 563 543 535 519 507 519 c 0
 477 519 460 543 465 573 c 0xbc
EndSplineSet
MultipleSubs2: "'smcp' Lowercase to Small Capitals lookup 10 subtable" ydieresis.sc
EndChar

StartChar: Amacron
Encoding: 256 256 192
Width: 710
GlyphClass: 2
Flags: MW
HStem: -2 34 -2 34 235 48<261.5 452 306 452 306 455> 638 20G<573 573> 731 44<398.5 670 425 647>
VStem: 4 705
LayerCount: 2
Fore
SplineSet
142 79 m 2xbc
 115 39 157 35 192 32 c 2
 194 32 l 1
 198 26 191 4 183 -2 c 1
 148 -1 95 0 56 0 c 0
 19 0 1 -1 -35 -2 c 1
 -39 4 -32 26 -24 32 c 1
 18 35 48 40 92 102 c 2
 454 614 l 1
 488 614 556 649 573 658 c 1
 599 86 l 2
 601 35 633 36 670 32 c 1
 674 26 667 4 659 -2 c 1
 624 -1 570 0 531 0 c 0
 494 0 403 -1 367 -2 c 1xbc
 363 4 369 26 377 32 c 0
 383 32 388 33 394 33 c 0
 432 35 460 36 460 72 c 2x7c
 455 235 l 1
 273 235 l 2
 250 235 242 231 234 218 c 2
 142 79 l 2xbc
306 283 m 2
 452 283 l 1
 444 520 l 1
 438 520 l 1
 285 296 l 2
 278 286 285 283 306 283 c 2
647 731 m 2
 403 731 l 2
 394 731 392 739 395 746 c 0
 398 758 414 775 425 775 c 2
 670 775 l 2
 680 775 682 767 680 761 c 0
 676 749 660 731 647 731 c 2
EndSplineSet
MultipleSubs2: "'c2sc' Capitals to Small Capitals lookup 12 subtable" a.sc uni0304
Position2: "'cpsp' Capital Spacing lookup 2 per glyph data 0" dx=2 dy=0 dh=5 dv=1
EndChar

StartChar: amacron
Encoding: 257 257 193
Width: 558
GlyphClass: 2
Flags: MW
HStem: -10 95<114.5 239> 397 42<353.5 385.5> 411 20G<461 473> 416 20G<515 530.5> 539 44<240.5 511 266 489>
VStem: 75 125 338 121
LayerCount: 2
Fore
SplineSet
524 436 m 0x9e
 537 436 544 429 543 415 c 0x9e
 541 398 525 360 512 320 c 2
 449 124 l 2
 445 110 438 94 437 81 c 0
 436 71 439 63 447 63 c 0
 457 63 492 80 521 110 c 1
 535 110 546 91 548 82 c 1
 496 23 430 -10 360 -10 c 0
 330 -10 319 3 313 23 c 0
 312 29 312 38 313 47 c 0
 315 64 320 86 327 107 c 2
 334 125 l 1
 330 127 l 1
 261 38 194 -10 151 -10 c 0
 78 -10 50 49 57 118 c 0
 65 192 101 259 152 316 c 0
 214 386 300 439 384 439 c 0xce
 424 439 421 436 448 433 c 0
 453 432 458 431 464 431 c 0xae
 482 431 506 436 524 436 c 0x9e
359 226 m 1
 391 290 407 378 407 378 c 1
 406 391 396 397 375 397 c 0
 332 397 288 363 254 315 c 0
 218 263 190 196 184 138 c 0
 181 108 192 85 223 85 c 0xce
 255 85 301 136 359 226 c 1
489 539 m 2
 245 539 l 2
 236 539 233 547 236 554 c 0
 239 566 255 583 266 583 c 2
 511 583 l 2
 521 583 524 575 522 569 c 0
 518 557 502 539 489 539 c 2
EndSplineSet
MultipleSubs2: "'smcp' Lowercase to Small Capitals lookup 10 subtable" a.sc uni0304
EndChar

StartChar: Abreve
Encoding: 258 258 194
Width: 710
GlyphClass: 2
Flags: MW
HStem: -2 34 -2 34 235 48<258.5 449 303 449 303 452> 638 20G<569 569> 705 74<510.5 552>
VStem: 371 28
LayerCount: 2
Fore
SplineSet
139 79 m 2xbc
 112 39 154 35 189 32 c 2
 191 32 l 1
 195 26 188 4 180 -2 c 1
 145 -1 92 0 53 0 c 0
 16 0 -2 -1 -38 -2 c 1
 -42 4 -35 26 -27 32 c 1
 15 35 45 40 89 102 c 2
 451 614 l 1
 485 614 552 649 569 658 c 1
 596 86 l 2
 598 35 630 36 667 32 c 1
 671 26 664 4 656 -2 c 1
 621 -1 567 0 528 0 c 0
 491 0 400 -1 364 -2 c 1xbc
 360 4 366 26 374 32 c 0
 380 32 385 33 391 33 c 0
 429 35 457 36 457 72 c 2x7c
 452 235 l 1
 270 235 l 2
 247 235 239 231 231 218 c 2
 139 79 l 2xbc
303 283 m 2
 449 283 l 1
 441 520 l 1
 435 520 l 1
 282 296 l 2
 275 286 282 283 303 283 c 2
686 830 m 1
 663 759 585 705 519 705 c 0
 446 705 403 760 415 830 c 1
 443 833 l 1
 442 794 484 779 537 779 c 0
 586 779 643 794 659 833 c 1
 686 830 l 1
EndSplineSet
MultipleSubs2: "'c2sc' Capitals to Small Capitals lookup 12 subtable" abreve.sc
Position2: "'cpsp' Capital Spacing lookup 2 per glyph data 0" dx=2 dy=0 dh=5 dv=1
EndChar

StartChar: abreve
Encoding: 259 259 195
Width: 558
GlyphClass: 2
Flags: MW
HStem: -10 95<109.5 234> 397 42<348.5 380.5> 411 20G<457 469> 416 20G<510 525.5> 514 74<367.5 405.5> 637 20G<275 275 555 555>
VStem: 75 125 240 35 338 121
LayerCount: 2
Fore
SplineSet
519 436 m 0x9f80
 532 436 539 429 538 415 c 0x9f80
 536 398 520 360 507 320 c 2
 445 124 l 2
 441 110 434 94 433 81 c 0
 432 71 434 63 442 63 c 0
 452 63 488 80 517 110 c 1
 531 110 541 91 543 82 c 1
 491 23 425 -10 355 -10 c 0
 325 -10 315 3 309 23 c 0
 308 29 307 38 308 47 c 0
 310 64 316 86 323 107 c 2
 330 125 l 1
 326 127 l 1
 257 38 189 -10 146 -10 c 0
 73 -10 46 49 53 118 c 0
 61 192 97 259 148 316 c 0
 210 386 296 439 380 439 c 0xcf80
 420 439 417 436 444 433 c 0
 449 432 454 431 460 431 c 0xaf80
 478 431 501 436 519 436 c 0x9f80
354 226 m 1
 386 290 402 378 402 378 c 1
 401 391 391 397 370 397 c 0
 327 397 284 363 250 315 c 0
 214 263 186 196 180 138 c 0
 177 108 187 85 218 85 c 0xcf80
 250 85 296 136 354 226 c 1
311 667 m 1
 299 613 336 588 399 588 c 0
 446 588 507 603 526 667 c 1
 555 657 l 1
 520 552 431 514 380 514 c 0
 299 514 262 576 275 657 c 1
 311 667 l 1
EndSplineSet
MultipleSubs2: "'smcp' Lowercase to Small Capitals lookup 10 subtable" abreve.sc
EndChar

StartChar: Aogonek
Encoding: 260 260 196
Width: 710
GlyphClass: 2
Flags: MW
HStem: -234 60<524.5 586.5> -2 34 0 32 235 48<279.5 470 324 470 324 473> 638 20G<591 591>
VStem: 492 92
LayerCount: 2
Fore
SplineSet
649 -179 m 1xdc
 619 -215 573 -234 534 -234 c 0
 515 -234 499 -227 486 -218 c 0
 465 -203 451 -178 455 -138 c 0
 460 -89 516 -30 573 0 c 1
 550 0 l 2
 513 0 422 -1 386 -2 c 1xdc
 382 4 387 26 395 32 c 0
 401 32 406 33 412 33 c 0
 450 35 478 36 478 72 c 2xbc
 473 235 l 1
 291 235 l 2
 268 235 261 231 253 218 c 2
 160 79 l 2
 133 39 175 35 210 32 c 2
 212 32 l 1
 216 26 210 4 202 -2 c 1
 167 -1 114 0 75 0 c 0
 38 0 20 -1 -16 -2 c 1
 -20 4 -14 26 -6 32 c 1
 36 35 66 40 110 102 c 2
 472 614 l 1
 506 614 574 649 591 658 c 1
 618 86 l 2
 620 35 651 36 688 32 c 1
 692 26 686 4 678 -2 c 1
 671 -2 662 -2 653 -1 c 0
 603 -7 555 -68 548 -132 c 0
 545 -164 561 -174 578 -174 c 0
 595 -174 619 -171 636 -156 c 1
 649 -179 l 1xdc
324 283 m 2
 470 283 l 1
 462 520 l 1
 456 520 l 1
 304 296 l 2
 297 286 303 283 324 283 c 2
EndSplineSet
MultipleSubs2: "'c2sc' Capitals to Small Capitals lookup 12 subtable" aogonek.sc
Position2: "'cpsp' Capital Spacing lookup 2 per glyph data 0" dx=2 dy=0 dh=5 dv=1
EndChar

StartChar: aogonek
Encoding: 261 261 197
Width: 558
GlyphClass: 2
Flags: MW
HStem: -232 60<339 416.5> -10 95<133.5 258> 397 42<372.5 404.5> 411 20G<480 492> 416 20G<534 549.5>
VStem: 75 125 310 92 338 121
LayerCount: 2
Fore
SplineSet
543 436 m 0xce
 556 436 563 429 562 415 c 0
 560 398 544 360 531 320 c 2
 468 124 l 2
 464 110 458 94 457 81 c 0
 456 71 458 63 466 63 c 0
 476 63 512 80 541 110 c 1xcd
 555 110 565 91 567 82 c 1
 538 49 504 24 467 8 c 1
 418 -33 383 -75 376 -140 c 0
 374 -161 391 -172 408 -172 c 0
 425 -172 449 -169 466 -154 c 1
 479 -177 l 1
 449 -213 403 -232 364 -232 c 0
 314 -232 278 -201 284 -146 c 0
 289 -96 339 -48 390 -10 c 1
 379 -10 l 2xe6
 349 -10 339 3 333 23 c 0
 332 29 331 38 332 47 c 0
 334 64 339 86 346 107 c 2
 353 125 l 1
 349 127 l 1
 280 38 213 -10 170 -10 c 0
 97 -10 70 49 77 118 c 0
 85 192 120 259 171 316 c 0
 233 386 319 439 403 439 c 0xe5
 443 439 441 436 468 433 c 0
 473 432 477 431 483 431 c 0xd6
 501 431 525 436 543 436 c 0xce
378 226 m 1
 410 290 426 378 426 378 c 1
 425 391 415 397 394 397 c 0
 351 397 307 363 273 315 c 0
 237 263 210 196 204 138 c 0
 201 108 211 85 242 85 c 0xe6
 274 85 320 136 378 226 c 1
EndSplineSet
MultipleSubs2: "'smcp' Lowercase to Small Capitals lookup 10 subtable" aogonek.sc
EndChar

StartChar: Cacute
Encoding: 262 262 198
Width: 675
GlyphClass: 2
Flags: MW
HStem: -10 52<293.5 380.5> 616 42<455 578>
VStem: 89 149 659 43
LayerCount: 2
Fore
SplineSet
334 -10 m 0
 241 -10 170 7 123 53 c 0
 63 111 58 221 86 315 c 0
 152 535 347 658 535 658 c 0
 653 658 685 618 732 613 c 1
 724 558 717 510 707 458 c 1
 694 452 674 449 663 453 c 1
 664 539 644 616 512 616 c 0
 398 616 283 489 237 334 c 0
 191 178 238 42 349 42 c 0
 416 42 502 68 593 146 c 1
 604 146 617 134 619 125 c 1
 527 36 427 -10 334 -10 c 0
575 833 m 1
 598 821 620 799 628 778 c 1
 621 766 l 1
 463 708 l 2
 446 702 435 701 426 701 c 0
 417 701 408 708 410 716 c 0
 412 723 413 729 425 737 c 0
 450 755 528 805 575 833 c 1
EndSplineSet
MultipleSubs2: "'c2sc' Capitals to Small Capitals lookup 12 subtable" cacute.sc
Position2: "'cpsp' Capital Spacing lookup 2 per glyph data 0" dx=2 dy=0 dh=5 dv=1
EndChar

StartChar: cacute
Encoding: 263 263 199
Width: 434
GlyphClass: 2
Flags: MW
HStem: -10 76<166 278> 402 42<310.5 352>
VStem: 72 132
LayerCount: 2
Fore
SplineSet
395 87 m 1
 342 32 260 -10 199 -10 c 0
 133 -10 95 5 70 42 c 0
 46 78 43 136 64 201 c 0
 111 349 247 444 357 444 c 0
 458 444 492 394 475 340 c 0
 465 309 436 284 406 284 c 0
 376 284 358 304 364 331 c 0
 371 363 369 402 335 402 c 0
 286 402 236 347 200 236 c 0
 166 128 200 66 261 66 c 0
 295 66 328 81 377 118 c 1
 386 118 396 96 395 87 c 1
400 674 m 2
 403 675 411 676 416 676 c 0
 446 676 462 662 468 652 c 1
 471 629 l 1
 325 521 l 2
 309 509 293 505 283 505 c 0
 275 505 269 513 271 519 c 0
 273 525 276 534 284 543 c 2
 400 674 l 2
EndSplineSet
MultipleSubs2: "'smcp' Lowercase to Small Capitals lookup 10 subtable" cacute.sc
EndChar

StartChar: Ccircumflex
Encoding: 264 264 200
Width: 675
GlyphClass: 2
Flags: MW
HStem: -10 52<293.5 380.5> 616 42<455 578>
VStem: 89 149 659 43
LayerCount: 2
Fore
SplineSet
334 -10 m 0
 241 -10 170 7 123 53 c 0
 63 111 58 221 86 315 c 0
 152 535 347 658 535 658 c 0
 653 658 685 618 732 613 c 1
 724 558 717 510 707 458 c 1
 694 452 674 449 663 453 c 1
 664 539 644 616 512 616 c 0
 398 616 283 489 237 334 c 0
 191 178 238 42 349 42 c 0
 416 42 502 68 593 146 c 1
 604 146 617 134 619 125 c 1
 527 36 427 -10 334 -10 c 0
674 724 m 1
 672 714 661 702 651 698 c 1
 615 710 563 733 541 754 c 1
 506 732 444 709 404 698 c 1
 396 702 395 715 397 725 c 1
 446 752 506 794 550 829 c 1
 565 834 l 1
 592 797 641 750 674 724 c 1
EndSplineSet
Position2: "'cpsp' Capital Spacing lookup 2 per glyph data 0" dx=2 dy=0 dh=5 dv=1
EndChar

StartChar: ccircumflex
Encoding: 265 265 201
Width: 434
GlyphClass: 2
Flags: MW
HStem: -10 76<167 279> 402 42<311.5 353>
VStem: 72 132
LayerCount: 2
Fore
SplineSet
396 87 m 1
 343 32 261 -10 200 -10 c 0
 134 -10 96 5 71 42 c 0
 47 78 44 136 65 201 c 0
 112 349 247 444 357 444 c 0
 458 444 492 394 475 340 c 0
 465 309 437 284 407 284 c 0
 377 284 358 304 364 331 c 0
 371 363 370 402 336 402 c 0
 287 402 236 347 200 236 c 0
 166 128 201 66 262 66 c 0
 296 66 329 81 378 118 c 1
 387 118 397 96 396 87 c 1
415 663 m 1
 433 614 460 570 487 529 c 1
 457 510 l 1
 421 536 397 556 371 593 c 1
 323 554 291 536 244 510 c 1
 224 529 l 1
 270 570 321 615 363 663 c 1
 415 663 l 1
EndSplineSet
EndChar

StartChar: Cdotaccent
Encoding: 266 266 202
Width: 675
GlyphClass: 2
Flags: MW
HStem: -10 52<293.5 380.5> 616 42<455 578> 709 124<524 545>
VStem: 89 149 435 124 659 43
LayerCount: 2
Fore
SplineSet
334 -10 m 0
 241 -10 170 7 123 53 c 0
 63 111 58 221 86 315 c 0
 152 535 347 658 535 658 c 0
 653 658 685 618 732 613 c 1
 724 558 717 510 707 458 c 1
 694 452 674 449 663 453 c 1
 664 539 644 616 512 616 c 0
 398 616 283 489 237 334 c 0
 191 178 238 42 349 42 c 0
 416 42 502 68 593 146 c 1
 604 146 617 134 619 125 c 1
 527 36 427 -10 334 -10 c 0
473 771 m 0
 477 805 507 833 541 833 c 0
 575 833 601 805 597 771 c 0
 593 737 562 709 528 709 c 0
 494 709 469 737 473 771 c 0
EndSplineSet
Position2: "'cpsp' Capital Spacing lookup 2 per glyph data 0" dx=2 dy=0 dh=5 dv=1
EndChar

